<?xml version="1.0" standalone="no"?>
<!DOCTYPE svg PUBLIC "-//W3C//DTD SVG 20010904//EN"
 "http://www.w3.org/TR/2001/REC-SVG-20010904/DTD/svg10.dtd">
<svg version="1.0" xmlns="http://www.w3.org/2000/svg"
 width="572.000000pt" height="572.000000pt" viewBox="0 0 572.000000 572.000000"
 preserveAspectRatio="xMidYMid meet">
<metadata>
Created by potrace 1.11, written by Peter Selinger 2001-2013
</metadata>
<g transform="translate(0.000000,572.000000) scale(0.100000,-0.100000)"
fill="#000000" stroke="none">
<path d="M3520 5622 c-14 -15 -24 -28 -22 -29 7 -8 1 -23 -8 -18 -5 3 -11 -1
-11 -9 -2 -23 -9 -44 -33 -101 -7 -17 -10 -39 -6 -50 4 -11 3 -28 -2 -37 -6
-12 -5 -18 2 -18 6 0 8 -5 5 -11 -10 -16 -12 -79 -2 -79 4 0 6 -4 2 -9 -3 -5
2 -16 10 -25 8 -8 11 -17 6 -20 -12 -8 -2 -46 11 -46 6 0 8 -6 5 -14 -3 -7 1
-23 9 -35 8 -12 13 -25 9 -30 -3 -6 3 -14 12 -20 10 -6 15 -11 10 -11 -4 0 0
-11 9 -25 8 -13 12 -30 8 -36 -4 -7 -3 -9 3 -6 6 4 19 -9 29 -28 10 -19 22
-35 27 -35 4 0 6 -4 3 -8 -3 -5 8 -23 24 -41 17 -18 30 -36 30 -42 0 -5 4 -9
10 -9 5 0 9 -3 8 -7 -2 -5 23 -34 55 -66 67 -68 73 -81 17 -36 -22 18 -37 36
-34 40 5 9 -11 13 -31 9 -5 -1 -7 1 -3 5 4 4 -28 43 -71 86 -44 43 -76 80 -73
83 3 3 0 6 -6 6 -7 0 -12 4 -12 9 0 5 -16 26 -35 47 -19 20 -33 39 -31 42 3 2
-7 15 -21 28 -14 13 -22 24 -17 25 5 0 -1 4 -13 9 -14 6 -21 15 -17 24 3 8 -3
19 -16 26 -11 6 -18 15 -15 19 3 5 -9 24 -26 42 -30 32 -32 33 -45 14 -8 -11
-13 -34 -12 -52 1 -18 -1 -35 -5 -39 -4 -4 1 -13 11 -21 9 -8 11 -11 3 -7 -11
6 -11 2 2 -15 8 -13 13 -30 10 -37 -3 -8 0 -14 6 -14 6 0 11 -9 11 -19 0 -10
7 -21 15 -25 8 -3 12 -12 9 -21 -3 -8 -1 -15 6 -15 6 0 8 -4 5 -10 -3 -5 -1
-10 5 -10 6 0 9 -4 5 -9 -3 -5 0 -13 6 -16 5 -4 8 -13 5 -21 -3 -8 -1 -13 4
-11 13 3 60 -64 53 -77 -3 -6 -3 -8 1 -4 9 7 46 -22 46 -35 0 -5 -7 -3 -17 4
-15 13 -15 12 -3 -8 8 -12 19 -21 24 -20 6 1 10 -4 9 -10 -2 -7 6 -13 17 -13
11 0 19 -3 19 -7 -3 -20 2 -33 14 -33 14 0 47 -35 47 -50 0 -6 5 -10 11 -10
15 0 39 -26 32 -34 -4 -3 -1 -6 6 -6 6 0 23 -11 37 -25 14 -14 22 -25 19 -25
-4 0 0 -7 9 -15 8 -8 17 -15 20 -15 3 0 23 -17 43 -37 21 -20 32 -33 24 -28
-10 5 -12 4 -7 -3 4 -7 14 -12 22 -12 8 0 12 -4 9 -10 -3 -5 3 -10 15 -10 12
0 19 -4 15 -9 -3 -6 4 -15 15 -21 11 -6 20 -16 20 -22 0 -9 -3 -9 -12 0 -7 7
-20 12 -30 12 -10 0 -21 7 -24 15 -4 8 -11 12 -18 8 -6 -3 -8 -3 -4 2 11 12
-11 35 -34 35 -10 0 -16 5 -13 10 3 6 -1 10 -9 10 -18 0 -39 34 -28 45 4 5 1
5 -6 1 -8 -5 -20 0 -31 13 -10 12 -23 21 -29 21 -6 0 -14 5 -18 12 -5 7 -2 9
7 3 8 -4 -3 9 -24 30 -20 20 -34 41 -31 47 4 7 2 8 -4 4 -10 -6 -82 56 -82 70
0 3 -10 15 -22 26 -13 11 -16 16 -8 12 8 -4 -7 14 -34 39 -28 26 -44 47 -37
47 6 0 -1 12 -16 26 -15 15 -27 30 -25 35 1 5 -5 9 -14 9 -9 0 -14 6 -11 13 2
6 -8 24 -24 40 l-28 27 -20 -21 c-11 -12 -17 -28 -14 -37 5 -11 3 -13 -8 -7
-12 8 -12 6 0 -8 7 -9 10 -17 5 -17 -4 0 -3 -5 3 -11 7 -7 8 -21 3 -40 -6 -21
-5 -31 6 -37 7 -4 15 -20 16 -35 1 -15 6 -27 11 -27 5 0 7 -7 3 -15 -3 -8 2
-18 10 -23 9 -5 16 -13 16 -18 1 -16 22 -59 33 -66 5 -4 6 -8 2 -8 -5 0 7 -23
27 -50 20 -28 36 -55 36 -61 0 -5 4 -8 8 -5 5 3 9 -1 9 -9 0 -11 -4 -12 -14
-4 -7 6 -13 18 -13 25 0 8 -7 14 -15 14 -8 0 -14 3 -14 8 4 22 -3 32 -22 32
-11 0 -18 4 -15 8 3 5 -2 9 -10 9 -8 0 -13 -6 -10 -14 3 -7 2 -13 -3 -13 -4 0
-8 -7 -8 -15 0 -8 4 -15 9 -15 5 0 4 -9 -2 -20 -6 -11 -7 -20 -2 -20 5 0 8
-11 7 -25 -2 -14 1 -27 6 -31 5 -3 7 -9 4 -14 -3 -5 -1 -11 4 -15 6 -3 8 -12
4 -20 -3 -8 1 -15 8 -15 7 0 9 -3 6 -7 -4 -3 -2 -12 4 -20 6 -7 8 -13 4 -13
-4 0 -2 -7 5 -15 7 -8 9 -15 5 -15 -5 0 0 -8 9 -19 9 -10 16 -23 14 -27 -2 -5
3 -16 10 -24 42 -49 51 -63 46 -71 -3 -5 0 -9 6 -9 6 0 9 -4 6 -9 -3 -5 1 -11
9 -15 8 -3 15 -13 15 -22 0 -10 3 -15 6 -11 10 9 32 -16 27 -30 -3 -7 0 -13 7
-13 6 0 8 -5 5 -10 -4 -6 -2 -9 3 -8 12 4 62 -49 54 -56 -3 -3 0 -6 7 -6 7 0
34 -22 60 -49 25 -26 57 -51 69 -55 12 -4 22 -15 22 -24 0 -10 -3 -13 -8 -7
-4 6 -18 12 -32 14 -14 1 -28 7 -31 13 -3 5 -15 10 -27 11 -11 0 -18 5 -16 9
5 7 -12 12 -19 6 -1 -2 -18 13 -37 32 -19 19 -37 34 -40 33 -4 -1 -13 8 -21
19 -8 11 -38 46 -66 76 -29 31 -51 57 -49 60 3 2 -5 14 -17 26 -12 11 -23 27
-25 35 -1 7 -9 20 -17 28 -9 8 -12 19 -9 25 4 6 2 8 -3 5 -10 -7 -28 20 -25
36 3 12 -15 8 -28 -8 -7 -8 -8 -15 -3 -15 5 0 10 -6 11 -12 3 -35 9 -65 16
-76 4 -7 4 -12 0 -12 -4 0 1 -7 12 -15 14 -11 16 -15 4 -15 -12 -1 -12 -3 2
-14 10 -7 15 -16 11 -19 -3 -4 -1 -7 6 -7 7 0 9 -4 6 -10 -3 -5 -1 -10 5 -10
6 0 9 -4 5 -9 -3 -5 1 -15 8 -23 7 -7 18 -25 24 -40 7 -16 17 -28 23 -28 6 0
8 -4 5 -10 -3 -5 -1 -10 4 -10 6 0 10 -3 10 -7 -3 -18 1 -33 9 -31 9 3 56 -46
60 -63 2 -8 14 -24 28 -35 13 -12 24 -27 24 -34 0 -7 3 -11 6 -8 3 3 19 -7 37
-23 17 -16 27 -32 23 -36 -4 -5 -16 2 -26 15 -10 12 -22 22 -27 22 -5 0 -33
23 -62 51 -40 38 -56 48 -62 38 -4 -8 -5 -16 -1 -19 4 -3 7 -15 6 -27 -1 -13
3 -23 7 -23 5 0 9 -7 9 -15 0 -19 35 -77 42 -69 4 3 9 -8 13 -25 4 -18 13 -31
22 -31 9 0 13 -6 9 -15 -3 -8 -2 -15 3 -15 12 0 46 -33 49 -48 1 -7 -14 3 -34
22 -21 20 -43 36 -51 36 -7 0 -16 6 -19 14 -3 8 -13 14 -22 13 -17 -1 -18 -9
-11 -94 2 -18 6 -33 9 -33 3 0 12 -16 19 -36 12 -32 44 -75 53 -71 1 1 2 0 1
-2 -2 -2 2 -10 8 -18 19 -22 -24 -16 -49 7 -12 11 -26 20 -32 20 -6 0 -9 4 -6
9 4 5 -2 7 -12 4 -19 -4 -22 -28 -8 -51 4 -6 2 -12 -3 -12 -13 0 -10 -22 4
-32 6 -5 4 -12 -5 -18 -8 -5 -11 -10 -6 -10 4 0 1 -10 -7 -23 -10 -16 -12 -28
-5 -40 5 -9 5 -17 1 -17 -10 0 -9 -52 1 -68 4 -7 2 -12 -4 -12 -6 0 -2 -10 9
-22 11 -11 18 -25 15 -30 -3 -5 8 -21 25 -35 17 -15 31 -30 31 -34 0 -10 -35
-6 -42 5 -5 6 -8 1 -8 -12 0 -13 -3 -21 -7 -19 -5 3 -8 -10 -8 -29 0 -21 5
-34 13 -34 6 0 12 -7 12 -16 0 -9 10 -24 22 -33 16 -14 18 -20 8 -26 -8 -5
-11 -4 -6 3 3 6 2 13 -3 16 -10 7 -21 -16 -21 -45 0 -10 -5 -19 -11 -19 -5 0
-8 4 -5 9 3 4 -3 19 -14 31 -11 12 -17 27 -14 31 3 5 -2 9 -12 9 -13 0 -14 3
-5 14 9 11 8 15 -5 20 -9 4 -14 12 -10 21 3 9 -1 18 -9 21 -8 4 -12 10 -9 15
3 5 1 9 -4 9 -6 0 -8 9 -5 20 3 12 0 20 -6 20 -7 0 -10 4 -6 9 3 5 1 12 -3 15
-5 3 -7 18 -4 32 3 19 1 25 -6 20 -8 -5 -10 -2 -6 8 3 9 1 16 -6 16 -6 0 -8 5
-5 10 3 6 1 10 -4 10 -6 0 -11 9 -11 20 0 11 -5 20 -12 20 -6 0 -8 3 -5 7 4 3
0 15 -10 25 -9 10 -13 18 -9 18 4 0 -2 12 -14 27 -16 20 -18 28 -8 35 9 5 8 8
-5 8 -10 0 -17 5 -15 12 3 7 -6 22 -19 34 -12 11 -21 23 -18 25 2 3 -7 18 -20
33 -14 16 -25 33 -25 38 0 5 -12 20 -26 33 -15 14 -23 25 -19 25 5 0 0 7 -11
16 -10 8 -12 12 -4 8 8 -4 -1 8 -20 27 -19 20 -41 33 -49 31 -9 -4 -12 -1 -7
6 4 7 3 12 -3 12 -5 0 -13 9 -16 20 -4 11 -15 20 -26 20 -11 0 -17 5 -14 10 3
6 -1 10 -9 10 -8 0 -18 9 -21 20 -4 11 -11 18 -16 15 -5 -4 -12 1 -15 9 -3 9
-13 16 -21 16 -7 0 -24 10 -37 23 -13 13 -29 21 -36 19 -8 -3 -10 0 -5 8 6 10
4 12 -8 7 -9 -3 -23 0 -31 8 -8 8 -22 15 -30 15 -9 0 -16 5 -16 10 0 6 -9 10
-20 10 -11 0 -20 5 -20 10 0 6 -9 10 -20 10 -11 0 -30 5 -43 12 -48 25 -58 28
-81 28 -14 0 -31 7 -39 15 -8 8 -17 11 -21 8 -8 -9 -75 -9 -69 0 2 4 -1 7 -7
7 -6 0 -9 3 -7 8 6 9 -85 3 -96 -7 -4 -4 -1 -8 8 -9 8 -1 22 -3 30 -4 8 -1 15
-6 15 -11 0 -5 9 -7 19 -4 12 3 22 -1 25 -9 3 -8 20 -14 41 -14 25 0 34 -4 29
-11 -5 -8 1 -10 19 -7 16 3 28 0 31 -8 3 -8 12 -14 21 -14 8 0 15 -4 15 -10 0
-5 11 -10 25 -10 14 0 25 -4 25 -10 0 -5 9 -10 21 -10 11 0 17 -4 14 -10 -4
-6 5 -10 19 -10 14 0 26 -4 26 -10 0 -5 9 -10 20 -10 12 0 24 -10 30 -22 5
-13 9 -19 9 -15 1 5 35 -26 76 -67 41 -42 80 -76 86 -76 7 0 10 -3 6 -6 -3 -3
5 -18 19 -32 13 -15 24 -33 24 -40 0 -7 5 -10 10 -7 6 3 10 0 10 -7 0 -7 12
-24 25 -37 14 -12 23 -27 20 -31 -3 -4 2 -11 11 -14 9 -3 14 -12 11 -19 -2 -6
4 -19 14 -28 10 -8 19 -22 21 -29 2 -8 9 -21 16 -28 7 -8 10 -17 7 -22 -3 -4
2 -11 11 -14 9 -4 14 -9 11 -13 -4 -3 2 -17 13 -31 11 -13 17 -28 14 -33 -3
-5 0 -9 6 -9 7 0 9 -7 6 -15 -3 -9 1 -18 10 -22 8 -3 13 -11 11 -17 -5 -12 18
-38 26 -29 3 3 3 -4 0 -16 -3 -13 -1 -21 7 -21 7 0 10 -7 6 -15 -3 -9 1 -18 9
-21 9 -4 15 -19 15 -35 0 -16 5 -29 12 -29 6 0 8 -3 5 -7 -4 -3 -2 -11 3 -18
6 -8 5 -18 -6 -31 -8 -10 -13 -14 -10 -8 3 6 -3 19 -14 29 -11 10 -17 22 -14
26 3 5 1 9 -4 9 -5 0 -17 15 -27 34 -11 19 -22 33 -27 30 -4 -3 -5 2 -2 11 4
9 -2 23 -16 35 -12 10 -19 23 -16 29 4 5 -1 14 -10 19 -11 6 -15 16 -11 26 4
9 3 14 -2 11 -13 -7 -23 28 -15 51 4 10 4 16 0 12 -9 -7 -66 46 -66 62 0 6
-24 35 -52 64 -29 30 -60 63 -68 75 -8 12 -20 21 -27 21 -6 0 -14 9 -18 20 -3
11 -9 19 -13 17 -4 -1 -20 10 -36 26 -15 15 -33 24 -39 21 -7 -4 -9 -4 -5 1 8
8 -15 35 -30 35 -6 0 -12 5 -14 10 -2 6 -13 12 -25 13 -12 0 -19 5 -17 9 3 4
-2 8 -10 8 -9 0 -16 4 -16 8 0 12 -46 32 -71 32 -11 0 -17 5 -14 10 4 6 -5 10
-19 10 -14 0 -26 5 -26 10 0 6 -14 10 -30 10 -18 0 -33 6 -36 15 -5 11 -10 13
-19 5 -6 -5 -15 -7 -19 -3 -7 8 -24 12 -73 20 -18 3 -33 9 -33 14 0 5 -16 9
-35 9 -19 0 -35 5 -35 10 0 6 -18 10 -39 10 -22 0 -43 5 -46 10 -3 6 -28 10
-56 10 -27 0 -49 5 -49 10 0 6 -16 10 -35 10 -19 0 -35 5 -35 10 0 6 -9 10
-20 10 -11 0 -20 5 -20 11 0 6 -7 8 -15 5 -9 -3 -18 1 -21 9 -4 8 -15 15 -26
15 -10 0 -16 5 -13 10 3 6 -3 10 -14 10 -12 0 -21 5 -21 12 0 6 -3 8 -6 5 -8
-8 -64 24 -64 35 0 4 -8 8 -18 8 -10 0 -24 9 -32 20 -8 11 -19 20 -26 20 -6 0
-39 27 -72 60 -34 33 -67 60 -74 60 -6 0 -8 3 -5 7 4 3 -13 25 -38 49 -25 23
-45 46 -45 52 0 5 -13 24 -29 43 -16 18 -27 37 -25 41 3 5 -2 11 -10 14 -9 3
-16 14 -16 24 0 10 -3 20 -7 22 -14 6 -44 68 -38 78 3 6 1 10 -5 10 -6 0 -8 5
-5 10 3 6 1 10 -4 10 -6 0 -11 9 -11 20 0 11 -5 20 -11 20 -5 0 -8 4 -4 9 3 5
1 12 -4 16 -6 3 -8 12 -5 19 3 8 0 17 -5 21 -6 3 -9 10 -6 15 3 5 1 11 -5 15
-7 4 -6 13 1 27 8 15 8 19 0 14 -6 -4 -11 -2 -11 3 0 17 -2 24 -11 49 -6 14
-5 22 2 22 8 0 8 4 1 13 -7 8 -7 18 -2 27 5 8 5 21 1 29 -4 9 -6 26 -5 39 1
15 -4 22 -17 22 -11 0 -19 -7 -19 -15 0 -8 -4 -15 -10 -15 -5 0 -7 -6 -4 -14
3 -7 -2 -20 -10 -29 -9 -9 -16 -25 -16 -37 0 -14 -4 -19 -12 -14 -8 5 -9 2 -5
-9 3 -10 2 -17 -3 -17 -5 0 -6 -7 -3 -17 5 -12 3 -14 -7 -8 -10 6 -12 3 -8
-13 4 -12 3 -22 -1 -22 -4 0 -7 -8 -8 -17 -1 -24 -11 -61 -18 -73 -3 -6 -1
-10 5 -10 6 0 8 -5 5 -11 -11 -17 -12 -68 -1 -62 5 4 7 -1 3 -10 -3 -9 -2 -19
3 -22 5 -3 9 -14 9 -25 1 -11 1 -29 2 -40 0 -11 4 -20 10 -20 5 0 9 -5 9 -10
0 -6 9 -29 20 -52 11 -22 17 -45 14 -49 -3 -5 3 -9 12 -9 10 0 14 -3 11 -6 -3
-4 -1 -16 6 -28 6 -11 12 -30 13 -41 1 -19 1 -19 -15 1 -9 11 -22 19 -29 16
-6 -2 -15 3 -18 12 -3 9 -10 13 -15 10 -5 -3 -20 6 -32 20 -13 14 -27 23 -30
19 -4 -3 -19 7 -34 23 -15 16 -32 30 -37 30 -6 1 -17 2 -25 3 -8 0 -12 4 -8 7
8 8 -34 54 -50 54 -7 0 -13 5 -13 10 0 6 -3 9 -8 8 -13 -5 -282 273 -276 284
4 7 2 8 -4 4 -7 -4 -12 -2 -12 3 0 6 -14 24 -32 41 -17 17 -29 33 -26 35 3 3
-8 20 -23 36 -16 17 -29 37 -29 45 0 8 -4 14 -10 14 -5 0 -10 6 -10 13 0 8 -9
24 -20 37 -11 13 -20 29 -20 37 0 7 -5 13 -11 13 -6 0 -9 9 -6 20 3 11 0 18
-7 17 -6 -1 -11 8 -10 20 0 12 -3 20 -6 18 -4 -2 -13 8 -21 23 -13 27 -16 35
-18 60 0 7 -4 11 -8 9 -5 -3 -9 6 -10 20 0 14 -5 28 -10 32 -5 3 -10 22 -12
41 -2 19 -8 38 -15 42 -6 4 -7 8 -2 8 5 0 3 6 -3 14 -7 9 -8 17 -2 20 8 5 8
34 1 44 -2 1 -4 7 -5 12 -1 6 -4 12 -5 15 -1 3 -3 8 -4 13 -1 4 -5 13 -9 20
-5 7 -4 12 3 12 6 0 8 5 5 10 -12 19 -23 10 -27 -24 -2 -22 0 -33 7 -30 5 3 3
0 -6 -8 -9 -7 -15 -23 -14 -35 1 -13 -2 -23 -6 -23 -5 0 -4 -11 1 -25 6 -16 6
-26 -1 -31 -7 -4 -7 -10 0 -18 6 -7 6 -18 1 -26 -4 -7 -4 -24 1 -37 5 -12 5
-23 0 -23 -5 0 -5 -18 -1 -40 4 -22 4 -40 0 -40 -4 0 -7 -7 -7 -15 0 -8 4 -15
9 -15 5 0 6 -4 3 -10 -3 -5 -2 -10 4 -10 5 0 8 -11 6 -25 -1 -14 1 -28 5 -30
5 -3 6 -14 3 -25 -3 -12 0 -20 7 -20 7 0 10 -7 6 -15 -3 -8 -2 -15 2 -15 4 0
8 -8 8 -17 1 -24 8 -47 16 -53 3 -3 8 -21 12 -40 3 -19 10 -36 16 -38 5 -2 8
-8 4 -13 -3 -5 0 -9 6 -9 6 0 8 -4 5 -10 -3 -5 -1 -10 5 -10 6 0 8 -4 5 -10
-3 -5 -1 -10 5 -10 6 0 8 -4 5 -10 -3 -5 -1 -10 5 -10 6 0 9 -4 5 -9 -3 -5 2
-16 11 -25 8 -9 13 -20 10 -24 -3 -5 4 -14 14 -22 10 -8 17 -16 15 -20 -2 -3
7 -19 20 -34 14 -16 22 -33 18 -39 -3 -6 -1 -7 5 -3 7 4 12 1 12 -6 0 -7 11
-22 25 -32 13 -10 22 -23 19 -28 -3 -5 17 -32 45 -59 28 -28 48 -55 45 -61 -4
-6 -2 -8 4 -4 6 3 13 -3 17 -14 4 -11 15 -20 26 -20 11 0 17 -4 14 -10 -3 -5
1 -10 10 -10 9 0 13 -4 10 -10 -3 -5 1 -10 10 -10 9 0 13 -4 10 -10 -3 -5 -1
-10 6 -10 6 0 28 -17 48 -38 20 -21 44 -41 54 -45 11 -4 15 -12 11 -18 -4 -8
-3 -9 4 -5 7 4 12 2 12 -3 0 -6 4 -11 10 -11 10 0 36 -20 68 -50 9 -8 18 -14
21 -12 3 2 7 0 8 -5 2 -5 -9 -10 -23 -11 -18 -1 -25 2 -21 11 4 10 -4 12 -29
11 -19 -2 -34 1 -34 7 0 6 -4 8 -9 4 -5 -3 -12 -1 -16 4 -3 6 -13 7 -21 4 -9
-3 -19 -2 -23 3 -9 13 -49 34 -65 34 -8 0 -16 7 -20 15 -3 8 -9 14 -13 13 -12
-3 -83 33 -83 43 0 5 -9 9 -20 9 -11 0 -20 5 -20 10 0 6 -7 10 -15 10 -9 0
-27 11 -41 25 -14 14 -29 23 -33 21 -4 -3 -14 4 -21 15 -8 10 -19 19 -25 19
-6 0 -32 20 -57 44 -35 32 -49 41 -58 32 -7 -7 -10 -7 -8 0 3 10 -144 164
-157 164 -12 0 -34 27 -28 34 4 3 -4 6 -16 6 -12 0 -20 4 -17 9 3 5 0 14 -8
20 -11 10 -14 4 -13 -29 0 -22 5 -40 10 -40 5 0 7 -9 4 -20 -3 -11 -2 -20 1
-20 4 0 16 -21 26 -48 11 -26 26 -53 33 -60 7 -8 11 -18 8 -22 -3 -5 4 -14 15
-20 11 -6 20 -18 20 -27 0 -8 10 -24 22 -34 11 -11 18 -19 14 -19 -9 0 5 -16
95 -110 42 -44 82 -80 88 -80 7 0 9 -4 6 -10 -3 -5 1 -10 9 -10 9 0 16 -4 16
-10 0 -5 6 -10 13 -10 7 0 19 -9 27 -20 8 -11 23 -20 33 -20 10 0 15 -4 12
-10 -3 -5 1 -10 10 -10 8 0 18 -7 21 -15 4 -8 10 -12 16 -9 5 3 17 -3 26 -13
9 -11 32 -26 49 -34 18 -7 33 -18 33 -22 0 -5 5 -5 10 -2 6 3 10 2 10 -4 0 -6
11 -13 25 -17 14 -3 25 -10 25 -15 0 -5 9 -9 19 -9 11 0 23 -5 26 -10 3 -5 14
-10 24 -10 10 0 24 -7 31 -15 7 -8 16 -12 21 -9 5 3 9 0 9 -7 0 -7 3 -9 7 -6
3 4 16 1 28 -7 12 -8 32 -16 46 -18 23 -4 23 -5 -5 -13 -19 -5 -36 -4 -49 4
-11 7 -16 8 -12 2 3 -6 1 -11 -4 -11 -6 0 -11 5 -11 10 0 6 -11 10 -25 10 -14
0 -33 4 -43 9 -25 12 -85 33 -99 34 -7 0 -13 4 -13 9 0 4 -9 8 -19 8 -11 0
-23 5 -26 10 -3 6 -15 10 -26 10 -10 0 -19 5 -19 10 0 6 -9 10 -20 10 -11 0
-20 5 -20 10 0 6 -12 10 -26 10 -14 0 -23 4 -20 9 3 4 -13 14 -34 21 -22 7
-40 17 -40 22 0 4 -9 8 -20 8 -11 0 -20 5 -20 10 0 6 -9 10 -20 10 -11 0 -20
5 -20 10 0 6 -9 10 -20 10 -11 0 -20 5 -20 10 0 6 -6 10 -14 10 -15 0 -16 -16
-3 -37 5 -7 6 -17 2 -22 -3 -5 -1 -12 5 -16 6 -4 8 -11 5 -16 -4 -5 -1 -9 4
-9 6 0 11 -6 11 -14 0 -8 7 -17 16 -20 8 -3 12 -10 9 -16 -3 -5 -1 -10 6 -10
7 0 10 -3 7 -6 -8 -7 136 -154 151 -154 6 0 11 -4 11 -10 0 -5 7 -10 15 -10 7
0 18 -7 23 -16 5 -9 11 -15 13 -13 11 6 48 -14 43 -23 -5 -7 1 -9 15 -5 14 3
24 0 28 -9 3 -8 16 -14 29 -14 13 0 24 -4 24 -10 0 -5 8 -10 17 -10 23 0 83
-22 83 -31 0 -4 18 -7 40 -7 42 -1 63 -9 56 -20 -2 -4 11 -7 30 -7 19 0 34 4
34 8 0 5 6 5 13 0 6 -4 20 -6 29 -5 10 2 18 -2 18 -7 0 -7 -30 -11 -81 -11
-51 0 -78 4 -74 10 7 11 -8 12 -97 11 -31 0 -60 4 -63 9 -3 6 -17 10 -30 10
-13 0 -27 5 -30 10 -3 6 -15 10 -26 10 -13 0 -18 4 -13 12 4 6 3 8 -2 5 -6 -3
-23 0 -39 8 -70 31 -102 38 -110 25 -3 -4 8 -20 23 -36 15 -15 21 -24 13 -19
-10 5 -12 4 -7 -3 4 -7 13 -12 19 -12 7 0 21 -11 31 -25 10 -13 22 -22 27 -19
5 3 9 0 9 -5 0 -6 7 -11 15 -11 8 0 15 -4 15 -10 0 -5 9 -10 19 -10 11 0 21
-3 23 -7 5 -12 93 -54 116 -56 12 -1 22 -5 22 -9 0 -4 16 -8 35 -8 19 0 35 -4
35 -8 0 -5 6 -9 13 -9 6 -1 31 -2 55 -4 23 -1 42 -6 42 -11 0 -4 52 -8 117 -8
64 0 113 -3 109 -7 -3 -4 -14 -8 -24 -9 -9 -2 -18 -8 -20 -13 -2 -6 -23 -11
-47 -11 -24 0 -46 -4 -49 -9 -3 -4 -42 -9 -87 -10 -45 -1 -86 -4 -90 -6 -4 -3
-10 1 -12 7 -3 7 -6 9 -6 3 -1 -6 -35 -8 -91 -5 -57 3 -90 1 -90 -5 0 -5 -5
-3 -10 5 -5 8 -10 11 -10 6 0 -5 -6 -3 -13 3 -24 19 -13 -27 11 -49 12 -12 22
-24 22 -29 0 -4 16 -14 35 -21 20 -8 40 -19 46 -26 5 -7 19 -10 29 -7 11 3 20
0 20 -6 0 -6 11 -11 24 -11 14 0 28 -4 31 -10 3 -5 24 -10 45 -10 21 0 40 -5
42 -11 2 -6 32 -12 68 -14 36 -1 86 -7 113 -12 26 -5 47 -7 47 -3 0 4 13 5 29
2 23 -3 27 -7 18 -16 -6 -7 -20 -12 -31 -11 -12 1 -27 -3 -35 -9 -7 -6 -26 -9
-42 -8 -16 2 -29 -1 -29 -7 0 -7 -28 -11 -74 -11 -41 0 -78 -4 -81 -10 -3 -5
-15 -10 -26 -10 -20 0 -26 -15 -9 -25 6 -3 10 0 10 7 1 9 3 8 10 -3 5 -8 27
-21 49 -29 22 -7 38 -17 35 -21 -3 -5 13 -9 36 -9 25 0 39 -4 35 -10 -4 -6 18
-10 57 -10 35 0 69 -5 75 -11 6 -6 49 -9 112 -7 63 2 101 -1 101 -7 1 -5 7 -1
15 9 11 14 15 16 15 5 0 -9 3 -10 8 -3 8 12 132 15 132 4 0 -8 -31 -23 -39
-20 -2 1 -7 -4 -12 -11 -4 -7 -20 -14 -36 -17 -15 -2 -29 -7 -31 -13 -2 -5
-17 -9 -33 -9 -16 0 -29 -5 -29 -11 0 -6 -7 -9 -15 -6 -8 4 -17 2 -21 -4 -4
-6 -11 -6 -20 2 -11 9 -14 9 -14 -1 0 -7 -7 -10 -15 -6 -9 3 -18 0 -21 -8 -3
-8 -15 -11 -30 -8 -14 2 -24 0 -24 -7 0 -6 7 -11 15 -11 8 0 15 -3 15 -7 0
-12 50 -33 76 -33 12 0 24 -4 26 -10 2 -7 360 -16 403 -9 6 1 18 1 28 0 9 -1
17 2 17 7 0 5 7 9 15 9 8 0 15 -2 15 -4 0 -10 -33 -53 -41 -53 -5 0 -33 -16
-63 -35 -37 -23 -57 -31 -62 -24 -4 8 -10 6 -17 -6 -12 -23 21 -54 35 -32 5 8
8 7 8 -6 0 -10 4 -16 9 -12 5 3 13 1 16 -5 5 -8 11 -8 19 -1 7 6 15 8 19 5 7
-7 197 -8 204 0 3 3 12 -1 20 -9 16 -17 9 -35 -13 -35 -8 0 -14 -4 -14 -10 0
-5 -7 -10 -15 -10 -8 0 -15 -5 -15 -11 0 -5 -4 -8 -9 -5 -4 3 -17 -1 -27 -9
-10 -8 -27 -15 -37 -15 -18 0 -47 -22 -47 -35 0 -4 9 -5 20 -2 11 3 18 1 15
-3 -10 -15 11 -19 106 -20 97 -1 132 3 162 15 9 4 24 2 32 -5 12 -10 8 -18
-25 -52 -22 -21 -44 -37 -50 -33 -5 3 -10 1 -10 -5 0 -6 -11 -15 -25 -20 -14
-5 -25 -16 -25 -25 0 -15 65 -20 231 -15 43 1 58 -2 62 -14 6 -14 -4 -21 -25
-17 -5 0 -8 -4 -8 -10 0 -14 -26 -40 -33 -32 -3 3 -13 -2 -22 -11 -9 -9 -25
-16 -35 -16 -10 0 -20 -9 -23 -20 -5 -18 0 -20 45 -20 30 0 47 -4 43 -10 -4
-6 28 -10 88 -10 l95 0 -11 -25 c-7 -13 -14 -20 -15 -14 -5 12 -32 -8 -32 -23
0 -23 31 -36 93 -40 36 -1 65 -1 64 2 -1 3 2 5 8 5 5 0 10 -8 10 -18 2 -15 -7
-21 -27 -18 -5 0 -8 -6 -8 -15 0 -8 -4 -12 -10 -9 -5 3 -10 1 -10 -6 0 -7 -3
-10 -6 -6 -6 6 -34 -16 -34 -27 0 -3 11 -6 24 -6 14 0 27 -4 30 -9 8 -12 128
-11 143 1 6 5 24 8 40 6 16 -2 33 3 40 12 11 13 12 13 13 -3 0 -10 5 -15 10
-12 6 4 8 10 6 14 -3 4 1 8 9 8 8 0 12 -4 9 -9 -8 -13 31 -9 45 5 11 10 13 10
7 0 -8 -15 10 -18 18 -4 3 5 16 7 28 3 13 -3 19 -1 15 5 -5 7 0 9 13 6 11 -3
20 0 20 6 0 6 5 11 11 11 5 0 7 -6 3 -12 -6 -10 -4 -10 7 0 18 17 193 17 186
0 -3 -10 11 -12 59 -10 41 3 64 0 64 -7 0 -6 15 -11 34 -11 18 0 39 -7 46 -15
11 -13 15 -13 21 -3 7 10 9 10 9 1 0 -7 7 -10 17 -6 10 4 14 2 10 -4 -4 -6 0
-13 8 -17 8 -3 15 0 15 7 0 7 5 5 10 -4 5 -9 21 -20 35 -23 14 -4 25 -11 25
-17 0 -6 5 -7 11 -4 5 4 18 -3 28 -14 10 -12 24 -21 30 -21 7 0 9 -5 6 -10 -6
-9 8 -14 27 -11 5 0 7 -4 5 -11 -1 -7 5 -12 13 -13 8 0 15 -8 15 -18 0 -10 11
-25 25 -32 14 -8 19 -14 11 -15 -11 0 -10 -4 4 -13 10 -8 15 -19 11 -26 -5 -7
-2 -10 6 -9 7 2 14 -4 14 -12 1 -8 3 -19 4 -25 1 -5 2 -13 1 -17 0 -5 4 -8 9
-8 5 0 9 -3 8 -7 -1 -5 5 -21 12 -38 7 -16 14 -37 14 -45 1 -8 7 -14 14 -13 6
2 12 -1 12 -5 0 -5 7 -9 15 -9 8 0 12 4 9 9 -3 4 0 8 6 8 7 0 9 7 6 16 -4 9
-2 13 5 8 8 -5 10 3 7 25 -3 18 -1 34 4 37 4 3 3 14 -2 25 -6 10 -7 19 -3 19
4 0 6 43 3 96 -3 53 -2 98 2 100 3 2 2 18 -2 35 -5 18 -7 29 -4 27 2 -3 19 8
35 23 29 27 36 29 121 29 49 0 87 4 84 9 -6 9 15 18 64 30 14 3 26 14 28 24 3
13 -3 17 -27 17 -17 0 -31 5 -31 10 0 6 -9 10 -21 10 -11 0 -17 5 -14 10 3 6
15 10 27 10 21 0 62 28 65 46 1 5 -8 11 -20 11 -17 2 -19 0 -7 -7 11 -7 1 -10
-32 -10 -34 0 -50 5 -57 18 -6 9 -11 12 -11 5 0 -12 -40 -6 -40 6 0 4 -16 13
-35 21 -41 16 -44 25 -10 28 14 1 25 -2 25 -7 0 -5 11 -11 25 -13 14 -3 25 -1
25 6 0 7 3 7 8 1 10 -14 55 -13 67 2 13 15 46 20 63 10 7 -5 12 -3 12 5 0 8 3
9 8 3 4 -7 15 -3 29 11 13 12 17 21 10 22 -6 0 -38 1 -69 2 -32 1 -55 6 -52
11 3 5 14 9 24 9 10 0 25 6 32 13 7 8 19 12 26 9 6 -2 15 3 18 12 3 9 11 13
17 9 6 -3 7 -1 3 5 -4 7 -21 12 -38 12 -26 0 -29 2 -18 15 11 13 15 13 22 3 6
-11 10 -10 17 1 6 9 11 10 15 2 5 -8 11 -7 20 1 11 11 10 15 -3 25 -9 7 -24
13 -34 13 -11 0 -15 4 -11 12 5 8 2 9 -9 5 -10 -4 -17 -1 -17 6 0 8 -4 6 -10
-3 -5 -8 -10 -10 -10 -3 0 6 -9 9 -21 6 -14 -4 -25 0 -31 11 -6 11 -14 14 -26
7 -9 -5 -21 -10 -27 -11 -5 -2 -15 -5 -22 -7 -6 -3 -20 -3 -30 0 -16 4 -15 6
5 12 12 4 22 12 22 17 0 6 18 8 40 6 29 -2 40 0 40 10 0 11 17 13 74 10 61 -2
76 0 85 13 12 20 5 29 -22 29 -13 0 -17 5 -14 14 4 10 1 13 -9 9 -7 -3 -14 0
-14 6 0 6 -7 11 -15 11 -8 0 -15 5 -15 10 0 6 -7 10 -15 10 -8 0 -15 5 -15 10
0 13 67 13 72 1 2 -6 25 -11 51 -12 27 -2 50 -6 53 -11 3 -4 21 -8 40 -8 19 0
34 -5 34 -11 0 -5 4 -8 9 -5 5 4 12 0 14 -6 4 -10 6 -10 6 0 1 10 6 10 21 2
11 -6 20 -8 20 -5 0 4 8 -1 17 -11 12 -11 18 -13 21 -5 3 8 9 6 19 -6 8 -10
11 -12 7 -4 -6 11 -2 11 16 -2 22 -15 24 -15 37 1 8 9 12 12 9 5 -4 -6 -2 -14
4 -18 5 -3 10 0 10 7 0 9 3 9 8 2 4 -6 18 -17 31 -24 19 -10 25 -10 32 1 5 8
9 9 9 4 0 -12 40 -13 58 -1 7 4 12 1 12 -8 0 -12 11 -16 45 -16 25 0 45 -4 45
-10 0 -5 11 -10 25 -10 15 0 37 -11 52 -28 14 -15 29 -26 34 -25 14 4 11 -25
-3 -29 -9 -3 -9 -6 0 -12 7 -4 12 -2 12 3 0 6 4 11 9 11 5 0 8 -22 7 -49 -1
-27 2 -47 6 -45 4 3 13 -6 19 -20 7 -14 16 -23 20 -20 5 3 9 1 9 -4 0 -6 9 -8
20 -5 12 3 20 0 20 -7 0 -8 22 -34 50 -60 38 -36 47 -49 38 -58 -9 -9 -9 -12
0 -12 10 0 10 -5 2 -20 -6 -12 -7 -20 -1 -20 5 0 7 -9 4 -20 -3 -11 -9 -20
-14 -20 -5 0 -9 -4 -9 -9 0 -16 39 -8 46 9 16 39 14 90 -6 130 -11 22 -17 40
-13 40 5 0 -7 8 -25 17 -18 9 -42 26 -54 38 -12 13 -29 20 -37 17 -8 -3 -12
-1 -8 5 4 6 -3 13 -15 16 -15 4 -19 10 -12 19 16 22 1 94 -17 83 -13 -9 -11 9
4 24 10 11 10 13 0 7 -8 -5 -13 -1 -13 9 0 9 -4 14 -9 11 -5 -3 -14 1 -21 9
-7 8 -19 15 -26 15 -8 0 -14 5 -14 10 0 6 -9 10 -21 10 -11 0 -17 5 -14 10 4
6 -8 10 -29 10 -20 0 -36 4 -36 9 0 4 -28 9 -62 10 -34 1 -65 5 -68 9 -3 5
-25 9 -50 11 -25 1 -49 7 -54 12 -6 5 -24 9 -42 9 -18 0 -34 5 -36 11 -2 6
-17 11 -33 11 -17 0 -34 3 -40 7 -5 4 -23 8 -40 10 -16 1 -36 10 -42 19 -9 10
-13 11 -13 3 0 -7 -5 -9 -11 -6 -6 4 -10 19 -9 33 1 15 1 30 0 35 -4 18 -3 75
3 90 4 10 3 17 -2 17 -4 0 0 22 8 49 11 33 20 47 30 43 10 -4 12 1 7 16 -4 12
1 34 14 56 11 20 20 42 20 48 0 6 11 21 24 33 14 13 22 25 19 29 -7 6 125 136
139 136 5 0 19 11 32 25 13 13 26 22 30 18 3 -4 15 3 27 15 11 13 24 20 29 17
4 -3 10 2 14 10 3 8 15 15 26 15 11 0 20 4 20 9 0 8 21 17 59 26 8 2 17 9 21
15 4 6 17 12 28 13 12 1 22 5 22 10 0 5 8 7 19 4 11 -2 24 3 31 13 7 10 19 16
27 13 7 -3 13 0 13 7 0 7 7 10 15 7 8 -4 17 -2 20 4 4 5 11 7 16 4 5 -4 9 -1
9 5 0 7 6 10 14 7 8 -3 17 1 20 9 3 8 15 14 26 14 11 0 20 5 20 11 0 6 9 9 20
6 13 -3 20 0 20 9 0 9 11 14 30 14 17 0 30 4 30 9 0 5 11 12 25 15 14 4 25 11
25 17 0 6 4 8 9 4 5 -3 12 -1 16 5 3 5 14 10 23 10 10 0 24 9 32 20 8 11 22
20 32 20 9 0 22 9 28 20 6 11 15 18 19 16 4 -3 19 5 32 17 13 12 27 21 31 19
7 -2 12 13 9 31 0 4 5 7 12 7 7 0 28 18 47 39 18 22 37 38 41 35 4 -2 10 9 14
26 4 16 13 30 20 30 9 0 12 6 8 16 -3 9 -2 19 3 23 15 10 34 59 34 86 0 13 5
27 12 31 7 5 8 3 3 -6 -5 -9 -4 -11 4 -6 7 5 8 13 2 23 -4 9 -5 30 -1 48 4 18
4 38 0 45 -4 7 -5 21 -2 33 3 12 -1 25 -12 33 -12 8 -14 14 -6 19 8 5 6 13 -6
26 -9 10 -14 19 -10 19 4 0 -4 15 -17 33 -13 17 -27 40 -30 50 -4 10 -11 15
-17 12 -5 -3 -10 -1 -10 5 0 14 -75 90 -90 90 -5 0 -10 5 -10 12 0 6 -3 9 -6
5 -3 -3 -16 5 -29 19 -12 13 -28 24 -35 24 -7 0 -20 8 -29 18 -21 22 -57 42
-76 42 -8 0 -15 5 -15 10 0 6 -9 10 -20 10 -11 0 -20 5 -20 10 0 6 -9 10 -20
10 -11 0 -23 7 -26 15 -5 12 -9 13 -21 4 -11 -10 -13 -10 -11 1 2 8 -6 16 -17
18 -11 2 -22 7 -25 11 -10 13 -90 49 -84 38 5 -8 2 -8 -7 1 -7 6 -21 12 -32
12 -10 0 -15 5 -12 10 4 6 -5 10 -19 10 -14 0 -26 3 -26 8 0 9 -49 32 -67 32
-8 0 -31 9 -53 20 -22 11 -49 20 -60 20 -12 0 -18 5 -15 10 5 8 -22 13 -51 9
-4 0 -10 3 -13 8 -11 14 -50 33 -71 33 -11 0 -20 4 -20 8 0 4 -10 9 -22 9 -13
1 -24 7 -26 13 -2 5 -15 10 -28 10 -17 0 -23 4 -18 12 4 7 3 8 -4 4 -13 -8
-56 17 -46 27 3 3 -4 3 -15 0 -14 -4 -27 1 -37 13 -9 11 -13 13 -9 7 3 -7 2
-13 -4 -13 -5 0 -11 4 -13 8 -5 13 -99 62 -108 57 -4 -3 -10 2 -14 10 -3 8
-15 15 -26 15 -11 0 -20 5 -20 10 0 6 -8 10 -18 10 -10 0 -24 9 -32 20 -8 11
-22 20 -32 20 -10 0 -18 5 -18 10 0 6 -7 10 -15 10 -8 0 -15 5 -15 10 0 6 -7
10 -15 10 -8 0 -15 5 -15 10 0 6 -8 10 -19 10 -10 0 -29 13 -42 30 -13 16 -30
30 -36 30 -7 0 -13 5 -13 12 0 6 -3 9 -6 6 -3 -4 -41 28 -83 70 -52 52 -77 83
-75 96 2 10 1 16 -2 13 -4 -3 -14 2 -24 11 -23 23 -81 132 -75 142 3 4 -2 13
-11 20 -8 7 -13 19 -10 27 3 7 -3 22 -14 33 -11 11 -15 20 -10 20 7 0 7 6 0
20 -6 11 -7 20 -3 20 12 0 2 84 -11 92 -7 5 -7 8 3 8 11 0 11 3 1 15 -9 10 -9
15 -1 15 6 0 10 16 9 41 -2 53 -24 65 -58 31z m-76 -1207 c16 -19 33 -32 39
-28 6 3 7 1 3 -5 -9 -14 -52 11 -67 40 -5 10 -14 16 -20 13 -5 -4 -9 -1 -9 4
0 22 26 10 54 -24z m76 -80 c0 -3 -8 -5 -18 -5 -10 0 -19 7 -19 14 0 11 5 13
19 5 10 -5 18 -12 18 -14z m390 5 c0 -4 -7 -7 -15 -6 -23 3 -26 12 -5 13 11 1
20 -2 20 -7z m-331 -65 c16 -18 27 -36 24 -39 -4 -3 2 -6 11 -6 16 0 61 -39
96 -85 14 -19 14 -19 -5 -5 -11 8 -24 21 -28 28 -5 7 -12 10 -17 7 -8 -5 -150
125 -150 137 0 15 42 -8 69 -37z m-2625 -677 c-3 -4 -9 -8 -15 -8 -5 0 -9 4
-9 8 0 5 7 9 15 9 8 0 12 -4 9 -9z m2460 -384 c5 -14 4 -15 -9 -4 -17 14 -19
20 -6 20 5 0 12 -7 15 -16z m-173 -394 c8 0 8 -4 1 -12 -6 -7 -11 -17 -12 -23
-1 -5 -4 -12 -7 -15 -2 -3 -4 0 -3 5 5 23 -1 35 -17 36 -11 0 -13 3 -5 6 6 2
10 9 6 14 -3 5 -2 14 2 21 5 7 10 4 15 -10 5 -12 14 -22 20 -22z m442 -351
c11 -3 14 -9 8 -17 -6 -10 -24 3 -69 47 -33 32 -58 61 -56 64 3 3 27 -16 53
-43 26 -26 55 -49 64 -51z m32 -28 c-3 -5 -1 -12 5 -16 5 -3 10 -1 10 6 0 8 6
6 18 -4 10 -10 24 -17 30 -17 7 0 11 -6 10 -12 -2 -7 4 -12 13 -10 9 1 19 -4
22 -13 4 -8 13 -12 22 -9 8 3 15 1 15 -5 0 -14 -27 -15 -35 -1 -3 6 -15 10
-26 10 -10 0 -19 4 -19 10 0 5 -17 18 -37 27 -36 18 -56 43 -33 43 6 0 9 -4 5
-9z m180 -101 c3 -5 1 -10 -4 -10 -6 0 -11 5 -11 10 0 6 2 10 4 10 3 0 8 -4
11 -10z"/>
<path d="M3555 4270 c3 -5 8 -10 11 -10 2 0 4 5 4 10 0 6 -5 10 -11 10 -5 0
-7 -4 -4 -10z"/>
<path d="M4252 2211 c7 -11 16 -17 20 -15 5 3 2 12 -6 20 -21 20 -28 17 -14
-5z"/>
<path d="M4220 2200 c0 -5 5 -10 10 -10 6 0 10 5 10 10 0 6 -4 10 -10 10 -5 0
-10 -4 -10 -10z"/>
<path d="M4800 2140 c8 -5 20 -10 25 -10 6 0 3 5 -5 10 -8 5 -19 10 -25 10 -5
0 -3 -5 5 -10z"/>
<path d="M4629 2043 c-1 -5 -1 -11 0 -15 0 -4 -7 -4 -16 -1 -11 4 -14 3 -9 -5
4 -7 18 -12 30 -12 13 0 35 -6 48 -13 22 -11 23 -14 10 -27 -13 -12 -13 -14 4
-21 10 -3 22 -5 25 -3 3 2 23 -13 44 -33 24 -23 40 -32 43 -24 3 8 9 7 19 -6
8 -10 12 -12 8 -5 -4 7 0 12 10 12 9 0 13 5 10 10 -3 6 0 10 8 10 15 0 51 36
60 61 3 9 0 16 -8 16 -7 0 -12 -8 -10 -18 3 -16 1 -17 -16 -6 -10 6 -19 15
-19 19 0 5 -5 8 -11 8 -5 0 -7 -5 -4 -11 4 -6 -2 -5 -13 2 -12 7 -19 16 -17
20 3 3 -7 11 -20 17 -14 7 -25 16 -25 22 0 12 -149 14 -151 3z m167 -99 c-3
-8 -2 -13 2 -13 18 3 30 -2 35 -14 3 -9 -5 -12 -30 -9 -27 3 -33 8 -27 21 3 9
7 21 7 28 0 7 4 10 9 7 5 -4 7 -12 4 -20z"/>
<path d="M4649 1983 c-13 -16 -12 -17 4 -4 16 13 21 21 13 21 -2 0 -10 -8 -17
-17z"/>
<path d="M4885 1900 c-29 -33 22 -43 56 -11 20 18 20 19 -10 23 -21 3 -36 -1
-46 -12z"/>
<path d="M4960 1885 c0 -2 6 -8 13 -14 10 -8 14 -7 14 2 0 8 -6 14 -14 14 -7
0 -13 -1 -13 -2z"/>
<path d="M4718 1843 c6 -3 12 -9 12 -14 0 -6 -5 -7 -12 -3 -7 4 -8 3 -4 -4 4
-7 14 -12 21 -12 24 0 80 -64 83 -93 2 -25 0 -26 -18 -17 -11 6 -20 15 -20 20
0 6 -8 10 -17 10 -15 0 -16 2 -3 10 13 9 13 10 0 11 -8 1 -21 1 -29 0 -7 -2
-10 2 -6 8 3 7 -2 11 -14 11 -11 0 -22 4 -25 9 -8 12 -56 20 -56 9 0 -5 -5 -6
-11 -2 -6 4 -48 6 -92 6 -54 -1 -84 3 -89 11 -5 8 -8 7 -8 -5 0 -9 -5 -20 -12
-24 -7 -5 -8 -2 -3 7 6 11 5 12 -6 2 -7 -7 -22 -13 -33 -13 -25 0 -86 -22 -86
-31 0 -4 16 -7 35 -7 19 0 35 5 35 10 0 6 9 8 20 5 11 -3 22 -1 25 4 3 4 13 5
22 2 11 -4 14 -3 9 5 -5 8 2 11 23 8 17 -2 31 1 31 7 0 5 7 4 15 -3 8 -7 15
-8 15 -3 0 5 24 6 55 3 56 -6 71 -11 68 -20 -1 -3 14 -4 34 -2 20 3 34 1 31
-4 -3 -5 3 -17 14 -26 10 -10 18 -16 18 -13 0 3 11 -2 24 -11 14 -8 23 -21 20
-29 -3 -7 0 -16 5 -20 6 -3 9 -11 6 -16 -4 -5 -2 -9 4 -9 6 0 8 -7 5 -15 -9
-22 4 -18 31 10 14 13 25 33 25 44 0 11 6 26 13 33 8 7 12 18 10 23 -5 16 54
48 63 34 4 -8 9 -7 15 2 7 11 9 10 9 -4 0 -11 5 -15 11 -11 8 5 9 2 2 -11 -6
-10 -8 -26 -6 -36 4 -14 0 -17 -15 -14 -16 3 -19 0 -15 -13 13 -36 38 -40 54
-11 9 17 8 20 -3 14 -8 -4 -8 -2 2 7 8 7 16 18 16 23 1 6 5 21 9 34 5 16 4 21
-4 17 -6 -4 -11 -1 -11 8 0 20 -39 46 -58 39 -10 -4 -13 -2 -8 5 5 8 -2 12
-19 12 -17 0 -24 4 -19 12 5 7 2 9 -7 6 -8 -3 -23 -2 -34 2 -11 4 -32 4 -46 0
-14 -4 -33 -3 -42 2 -11 6 -17 5 -17 -2 0 -6 -5 -8 -10 -5 -6 4 -8 10 -6 14 3
4 -5 7 -17 8 -12 0 -16 -1 -9 -4z"/>
<path d="M2910 1690 c0 -6 -5 -8 -10 -5 -6 4 -18 1 -26 -6 -8 -6 -17 -9 -21
-6 -3 4 -12 2 -20 -4 -7 -6 -13 -7 -13 -2 0 5 -16 7 -35 5 -19 -2 -35 -8 -35
-13 0 -5 -18 -9 -39 -9 -22 0 -43 -5 -46 -10 -4 -6 -10 -8 -15 -5 -5 3 -14 0
-22 -7 -7 -7 -24 -15 -38 -16 -14 -2 -26 -8 -28 -13 -2 -5 -10 -9 -18 -9 -7 0
-23 -8 -34 -17 -11 -10 -23 -17 -25 -15 -10 5 -185 -178 -185 -193 0 -8 -6
-15 -14 -15 -10 0 -12 -7 -9 -22 3 -13 2 -20 -2 -15 -8 7 -35 -52 -37 -80 -1
-7 -7 -13 -13 -13 -6 0 -11 -10 -10 -22 1 -12 -4 -33 -11 -46 -8 -17 -10 -32
-3 -49 6 -16 5 -22 -1 -18 -6 3 -10 3 -11 -2 -1 -4 -2 -20 -3 -36 -2 -15 -6
-30 -9 -34 -4 -3 -2 -12 4 -20 8 -8 8 -13 1 -13 -6 0 -9 -8 -7 -17 2 -10 4
-18 5 -18 1 0 3 -8 5 -17 2 -10 -1 -18 -7 -18 -6 0 -7 -8 -4 -17 4 -9 1 -20
-6 -24 -10 -6 -8 -12 7 -23 18 -13 19 -15 3 -21 -16 -6 -16 -8 -1 -23 10 -11
12 -17 4 -20 -8 -3 -8 -9 -1 -23 8 -13 7 -19 0 -19 -8 0 -8 -6 0 -20 6 -12 7
-20 1 -20 -5 0 -1 -17 9 -37 10 -20 16 -43 13 -50 -3 -7 2 -24 10 -36 10 -15
12 -29 7 -38 -5 -7 -6 -16 -2 -19 17 -12 42 -61 37 -70 -3 -6 -2 -10 3 -10 5
0 15 -13 22 -30 7 -16 17 -30 22 -30 5 0 7 -4 4 -9 -8 -12 121 -144 162 -165
17 -9 32 -21 32 -25 0 -5 11 -8 24 -7 14 2 27 -3 30 -10 3 -8 17 -14 31 -14
15 0 24 -4 20 -10 -7 -11 5 -13 43 -10 12 1 22 -3 22 -9 0 -6 17 -11 38 -11
21 0 43 -5 48 -10 14 -14 464 -14 478 0 5 5 56 10 113 10 57 0 103 4 103 8 0
5 18 9 40 9 21 0 45 5 53 11 8 7 17 9 20 5 4 -3 7 -1 7 5 0 6 6 9 14 6 8 -3
17 -1 21 5 3 6 1 11 -5 11 -7 0 -8 6 0 19 5 11 6 22 2 25 -9 6 -8 93 1 102 3
4 3 14 -2 23 -9 20 -8 32 3 50 6 9 5 12 -1 8 -11 -7 -11 68 0 79 5 5 -6 37
-17 50 -1 0 6 9 14 19 9 11 10 16 3 11 -16 -9 -13 35 2 46 6 5 6 8 -2 8 -12 0
-12 54 0 66 3 4 2 15 -4 25 -7 14 -6 19 3 19 9 0 9 3 2 8 -5 4 -10 18 -10 32
0 14 5 28 10 32 8 5 8 8 0 8 -6 0 -11 7 -11 15 0 8 4 15 9 15 5 0 4 8 -1 18
-7 13 -7 22 0 29 8 8 8 13 0 17 -5 4 -8 13 -4 21 4 13 -37 15 -309 15 l-315 0
-11 -25 c-8 -17 -8 -25 -1 -25 6 0 7 -5 4 -11 -10 -15 -12 -79 -3 -79 3 0 3
-13 -2 -30 -5 -16 -5 -30 -1 -30 4 0 6 -14 3 -30 l-4 -30 151 0 c99 0 150 -4
146 -10 -3 -6 -2 -10 3 -10 5 0 9 -7 9 -15 0 -8 -3 -15 -6 -15 -3 0 -4 -36 -1
-80 3 -44 1 -80 -3 -80 -4 0 -3 -9 3 -20 6 -11 7 -20 2 -20 -4 0 -6 -16 -4
-37 4 -31 2 -35 -12 -30 -9 4 -15 3 -12 -2 9 -13 -29 -20 -121 -22 -46 -1 -81
-5 -78 -9 2 -3 -16 -6 -40 -6 -25 1 -45 -3 -45 -8 0 -5 -6 -3 -13 3 -8 6 -17
8 -20 4 -4 -3 -7 -1 -7 5 0 8 -19 12 -50 12 -27 0 -50 5 -50 10 0 6 -10 10
-21 10 -12 0 -28 8 -35 18 -8 10 -13 12 -14 4 0 -19 -125 111 -139 147 -8 17
-16 31 -20 31 -4 0 -7 8 -8 18 -5 47 -13 76 -24 82 -6 5 -9 14 -6 22 3 8 1 21
-3 29 -5 7 -5 16 0 19 4 3 2 22 -5 43 -12 35 -12 37 4 25 12 -9 11 -7 -3 9
-10 12 -16 28 -13 35 2 7 0 21 -5 32 -7 14 -7 16 2 11 9 -5 10 -1 5 14 -4 12
-2 27 3 34 5 7 9 31 8 55 -1 23 2 42 5 42 3 0 4 13 1 29 -2 17 2 34 10 42 8 7
12 23 10 36 -2 13 0 23 5 23 5 0 10 6 11 13 2 30 9 47 25 65 9 10 17 24 17 30
0 6 8 16 18 21 9 6 13 11 9 11 -5 0 6 15 25 34 18 19 36 32 41 29 4 -2 7 1 7
6 0 6 7 11 15 11 8 0 15 5 15 11 0 5 4 8 9 4 5 -3 12 -1 16 5 4 6 10 8 15 5 5
-3 13 3 19 12 6 10 11 13 11 8 0 -6 9 -11 19 -11 11 0 19 5 18 11 -1 6 38 11
106 13 59 1 107 -1 107 -6 0 -8 6 -10 49 -14 11 -1 17 -6 15 -10 -3 -4 2 -8
11 -8 10 0 13 -5 9 -12 -4 -7 -3 -8 4 -4 13 8 75 -47 65 -57 -3 -4 -1 -7 6 -7
7 0 10 -4 6 -9 -3 -5 -1 -13 5 -16 8 -5 7 -11 -1 -21 -10 -12 -9 -13 4 -9 20
8 31 -10 19 -31 -5 -9 -7 -25 -4 -36 4 -17 15 -18 181 -16 175 3 176 3 175 26
0 12 2 22 5 22 3 0 6 11 6 24 0 13 -3 22 -7 19 -5 -2 -9 1 -9 6 -3 21 -4 26
-12 39 -5 7 -4 12 2 12 6 0 1 16 -10 35 -16 26 -17 35 -7 35 7 0 2 9 -12 21
-14 11 -18 17 -10 13 22 -12 -2 19 -70 86 -57 57 -104 85 -122 74 -7 -4 -8 -2
-4 5 4 6 0 13 -11 17 -10 3 -26 10 -35 15 -10 5 -27 9 -37 9 -11 0 -23 5 -26
10 -3 6 -24 10 -46 10 -21 0 -39 4 -39 9 0 5 -34 11 -75 13 -41 2 -75 -1 -75
-5 0 -5 -7 -1 -16 8 -9 9 -28 15 -43 13 -14 -1 -32 1 -39 5 -7 5 -12 3 -12 -3z"/>
<path d="M1132 1630 c-6 -11 -12 -31 -12 -45 0 -15 -4 -24 -10 -20 -10 6 -14
-6 -11 -37 1 -10 -3 -18 -9 -18 -7 0 -10 -6 -7 -14 3 -7 1 -18 -4 -23 -9 -9
-20 -44 -21 -70 -1 -7 -5 -13 -10 -13 -4 0 -8 -9 -8 -20 0 -11 -4 -20 -8 -20
-4 0 -9 -12 -10 -26 -1 -14 -9 -32 -17 -40 -18 -18 -20 -28 -3 -18 7 4 2 -9
-10 -30 -12 -21 -20 -42 -17 -47 4 -5 1 -9 -4 -9 -6 0 -10 -3 -10 -7 4 -24 -2
-53 -10 -49 -5 3 -11 -1 -15 -9 -3 -8 -1 -17 5 -20 5 -4 7 -11 3 -16 -3 -5 -9
-7 -13 -5 -4 3 -7 -3 -8 -12 -2 -31 -8 -46 -22 -61 -9 -10 -10 -16 -3 -19 6
-2 8 -10 5 -18 -3 -7 -9 -11 -15 -8 -5 3 -9 -2 -7 -12 3 -25 -11 -55 -22 -48
-5 3 -6 -2 -3 -11 4 -8 -1 -26 -9 -38 -10 -16 -12 -28 -5 -40 7 -13 5 -17 -7
-17 -8 0 -15 -9 -15 -19 0 -11 -5 -32 -12 -48 -6 -15 -10 -34 -9 -42 1 -7 -2
-10 -8 -6 -7 4 -11 -4 -11 -19 0 -14 -5 -26 -10 -26 -6 0 -10 -6 -9 -12 3 -29
-2 -49 -11 -43 -8 5 -15 -31 -11 -57 0 -5 -4 -8 -9 -8 -6 0 -10 -9 -10 -19 0
-28 -11 -52 -21 -45 -5 3 -6 -2 -3 -10 3 -9 -1 -23 -10 -32 -13 -12 -14 -19
-5 -30 9 -11 8 -15 -5 -20 -9 -3 -16 -16 -16 -28 0 -11 -11 -40 -24 -63 -14
-24 -20 -43 -14 -45 7 -3 5 -9 -3 -19 -13 -13 -18 -25 -23 -54 -1 -5 -5 -15
-9 -22 -5 -8 12 -12 59 -15 36 -1 67 -1 69 1 3 2 49 3 103 2 78 -2 101 1 105
12 3 8 0 20 -6 26 -8 8 -8 11 0 11 11 0 29 37 25 53 -1 4 3 7 9 7 5 0 8 4 5 8
-2 4 -1 14 4 22 5 9 5 19 -2 27 -8 10 -6 13 6 13 9 0 17 5 17 10 1 6 2 13 4
18 15 55 20 69 32 80 7 8 10 18 7 24 -4 6 10 9 38 7 24 -2 49 0 55 4 6 4 15 3
18 -3 5 -8 11 -7 21 1 11 9 14 9 14 -1 0 -9 3 -10 13 -1 8 6 16 8 19 6 6 -7
348 -8 354 -2 8 7 54 -5 54 -15 0 -5 5 -6 10 -3 6 3 10 -1 10 -10 0 -9 4 -14
9 -11 4 3 6 -6 3 -19 -2 -14 0 -25 5 -25 5 0 10 -12 11 -27 1 -16 7 -30 12
-31 6 -2 8 -8 4 -13 -3 -5 0 -9 6 -9 6 0 9 -4 5 -9 -3 -5 1 -16 9 -24 11 -10
12 -17 4 -25 -8 -8 -7 -13 5 -17 9 -4 14 -15 12 -26 -2 -10 1 -19 6 -19 6 0 8
-4 4 -9 -3 -5 3 -17 12 -27 11 -11 18 -13 21 -5 2 6 8 8 14 5 12 -8 299 -6
307 2 3 3 1 8 -5 12 -5 4 -11 18 -11 31 -1 14 -9 29 -18 34 -12 6 -13 12 -5
22 8 9 7 17 -5 28 -8 9 -16 27 -17 41 -1 13 -6 22 -11 19 -5 -3 -8 3 -6 13 1
11 -3 32 -10 47 -6 16 -8 34 -4 40 3 7 3 9 -1 5 -14 -12 -33 15 -28 39 3 14
-1 23 -8 23 -8 0 -11 9 -7 26 3 15 0 28 -8 30 -7 3 -12 15 -11 27 1 12 -2 25
-7 28 -15 11 -45 109 -34 109 6 0 3 6 -6 13 -9 6 -18 22 -20 34 -2 11 -9 28
-16 37 -11 13 -11 16 -1 16 9 0 8 5 -3 18 -10 10 -17 28 -17 40 0 12 -5 22
-11 22 -6 0 -9 6 -6 14 3 7 -1 23 -8 34 -8 11 -12 29 -10 41 2 12 0 19 -4 16
-11 -6 -23 23 -15 36 3 5 0 9 -5 9 -6 0 -10 3 -10 8 1 4 0 9 -1 12 -1 3 -3 18
-5 35 -1 16 -7 31 -13 33 -6 2 -9 9 -6 17 3 7 0 16 -5 20 -6 3 -9 11 -6 16 4
5 2 9 -3 9 -5 0 -9 12 -9 26 0 15 -7 30 -14 35 -7 4 -10 11 -6 15 4 4 0 18 -9
32 -8 13 -13 26 -10 29 3 3 -4 17 -15 31 -14 18 -16 28 -8 33 8 4 4 11 -10 19
-17 9 -20 15 -11 25 8 9 8 14 0 17 -6 2 -12 10 -14 18 -2 8 -8 26 -13 40 -6
14 -9 28 -6 33 2 4 0 7 -5 7 -5 0 -9 6 -10 13 -2 30 -9 49 -23 65 -9 10 -14
23 -11 30 3 9 -45 12 -195 12 -187 0 -199 -1 -211 -20z m205 -316 c-3 -4 1
-20 9 -36 8 -16 12 -32 10 -37 -3 -5 1 -14 10 -21 8 -7 13 -19 10 -26 -3 -7 4
-28 14 -48 10 -20 14 -36 9 -36 -5 0 0 -18 11 -40 13 -26 16 -40 9 -40 -8 0
-7 -6 3 -17 25 -30 33 -47 17 -38 -8 5 -5 -1 5 -13 11 -12 16 -22 12 -22 -4 0
-2 -9 4 -20 8 -14 8 -20 0 -20 -6 0 -4 -7 4 -16 9 -8 16 -22 16 -30 0 -8 7
-29 16 -46 9 -18 11 -27 4 -23 -8 5 -8 0 1 -16 7 -13 12 -27 11 -31 -1 -5 2
-8 7 -8 5 0 7 -9 4 -20 -5 -19 -14 -20 -199 -20 -193 0 -195 0 -203 22 -7 17
-5 26 6 35 9 7 13 19 10 27 -4 9 1 19 9 24 9 5 15 12 15 15 -4 30 0 47 11 41
8 -5 9 -2 5 9 -4 10 -2 17 5 17 7 0 6 5 -2 15 -10 12 -10 15 4 15 15 0 21 17
17 48 -1 6 3 12 10 12 6 0 9 8 6 20 -3 10 1 24 8 30 18 15 26 50 12 50 -7 0
-4 7 6 14 9 7 17 20 17 29 0 9 5 28 11 44 6 15 10 29 10 30 0 2 6 18 14 37 8
18 11 36 8 40 -6 6 13 10 31 7 5 -1 4 5 -3 13 -12 14 -8 36 6 36 4 0 4 -3 0
-6z"/>
<path d="M1288 970 c-10 -11 -13 -22 -8 -25 6 -4 3 -16 -6 -31 -9 -13 -13 -24
-9 -24 4 0 2 -7 -5 -15 -6 -8 -9 -19 -5 -25 3 -5 -2 -10 -11 -10 -16 0 -16 -1
-1 -18 10 -10 14 -22 10 -25 -3 -4 -1 -7 6 -7 7 0 9 -4 6 -10 -4 -6 17 -10 55
-10 45 0 62 4 66 15 4 8 9 13 13 10 4 -2 8 2 8 9 0 8 -6 12 -14 9 -7 -3 -13
-9 -13 -14 0 -5 -5 -9 -10 -9 -7 0 -7 6 -1 19 8 14 7 22 -3 30 -7 6 -15 9 -18
6 -2 -3 -5 1 -5 9 0 11 4 12 19 3 10 -7 18 -15 18 -19 0 -16 18 -7 23 12 3 11
0 18 -7 17 -6 -1 -12 5 -12 13 -1 8 -3 18 -4 23 -4 12 -7 27 -9 38 0 5 -5 7
-11 4 -5 -3 -12 6 -16 20 -7 30 -33 33 -56 5z m49 -60 c-1 -21 -12 -26 -22
-11 -3 5 -1 12 5 16 6 4 7 11 4 17 -4 6 -2 8 4 4 6 -3 10 -15 9 -26z"/>
<path d="M3864 1642 c2 -4 1 -14 -4 -22 -5 -9 -5 -19 2 -27 7 -9 7 -13 0 -13
-7 0 -8 -10 -2 -29 6 -21 5 -31 -3 -35 -8 -3 -9 -5 -1 -5 11 -1 10 -53 -1 -72
-4 -5 -1 -9 4 -9 13 0 10 -22 -4 -32 -7 -5 -7 -8 0 -8 6 0 10 -13 11 -30 1
-16 -3 -27 -7 -24 -5 3 -5 -5 -1 -18 10 -27 9 -39 -1 -55 -5 -7 -4 -13 0 -13
5 0 9 -9 10 -20 1 -11 -2 -18 -8 -15 -5 4 -4 -6 2 -22 12 -31 12 -33 -3 -50
-6 -7 -6 -13 -1 -13 5 0 9 -9 10 -20 1 -11 -2 -18 -8 -15 -5 4 -4 -6 2 -22 12
-31 12 -33 -3 -50 -6 -7 -6 -13 -1 -13 5 0 9 -9 10 -20 1 -11 -2 -18 -8 -15
-5 4 -6 -3 -1 -17 10 -27 9 -39 -1 -55 -5 -7 -4 -13 0 -13 5 0 9 -9 10 -20 1
-11 -2 -18 -8 -15 -5 4 -6 -3 -1 -17 10 -27 9 -39 -1 -55 -5 -7 -4 -13 0 -13
5 0 9 -9 10 -20 1 -11 -2 -18 -8 -15 -5 4 -4 -6 2 -22 6 -15 11 -28 12 -29 1
0 -4 -8 -12 -17 -7 -10 -9 -17 -4 -17 5 0 9 -9 10 -20 1 -11 -2 -18 -8 -15 -8
5 1 -27 12 -46 2 -3 -2 -13 -10 -22 -7 -10 -9 -17 -4 -17 5 0 9 -9 10 -20 1
-11 -2 -18 -8 -15 -5 4 -6 -3 0 -17 11 -31 11 -41 -1 -55 -6 -7 -6 -13 -1 -13
5 0 9 -9 10 -20 1 -11 -2 -18 -8 -15 -5 4 -6 -3 -1 -17 10 -27 9 -39 -1 -55
-5 -7 -4 -13 0 -13 5 0 9 -9 10 -20 1 -11 -2 -18 -7 -15 -5 3 -5 -8 0 -25 6
-21 5 -30 -3 -30 -8 0 -8 -3 -2 -8 11 -8 12 -43 1 -60 -4 -6 2 -16 13 -22 12
-6 22 -6 26 0 3 5 11 7 18 5 23 -9 77 -12 77 -5 0 4 18 4 40 0 22 -4 42 -5 45
-2 3 3 28 5 57 3 43 -2 50 0 45 13 -4 9 -2 16 2 16 5 0 5 15 1 34 -4 19 -4 40
1 47 4 7 3 19 -3 26 -7 9 -7 13 2 13 9 0 9 4 2 13 -7 8 -7 18 -2 27 5 9 5 19
-2 27 -7 9 -7 13 0 13 6 0 7 13 2 34 -4 19 -4 40 1 47 4 7 3 19 -3 26 -7 9 -7
13 0 13 6 0 7 13 2 34 -4 19 -4 40 1 47 4 7 3 19 -3 26 -6 7 -7 13 -2 13 5 0
7 87 4 196 -3 108 -2 201 2 207 4 6 2 17 -4 24 -7 9 -7 13 0 13 6 0 7 13 2 34
-4 19 -4 40 1 47 4 7 3 19 -3 26 -7 9 -7 13 0 13 6 0 7 13 2 34 -4 19 -4 40 1
47 4 7 3 19 -3 26 -6 7 -6 13 -1 13 13 0 11 43 -2 52 -6 5 -6 8 1 8 6 0 9 12
6 29 -3 19 1 30 12 34 14 5 15 3 6 -13 -7 -14 -7 -20 0 -20 5 0 10 -12 10 -26
0 -14 4 -23 9 -20 5 3 7 -8 6 -24 -1 -17 2 -30 7 -30 6 0 8 -6 5 -14 -3 -8 1
-17 10 -20 8 -4 13 -13 9 -21 -3 -8 -1 -17 5 -20 5 -4 7 -10 4 -15 -3 -5 -1
-11 4 -14 5 -4 8 -17 7 -31 -2 -13 1 -22 5 -19 5 3 10 0 10 -5 1 -6 3 -15 4
-21 1 -5 3 -19 4 -29 0 -11 8 -26 16 -35 9 -9 11 -17 5 -21 -7 -4 -7 -13 0
-26 6 -11 15 -17 20 -14 4 3 6 -4 3 -15 -3 -11 -2 -28 2 -37 5 -10 7 -21 7
-25 -1 -5 2 -8 7 -8 5 0 8 -11 5 -25 -2 -14 -1 -25 3 -24 19 3 22 -3 13 -27
-7 -16 -7 -23 0 -19 6 3 11 1 11 -4 3 -26 4 -30 11 -36 4 -4 4 -13 1 -21 -3
-8 0 -14 7 -14 7 0 10 -6 7 -14 -3 -7 0 -19 6 -25 6 -6 7 -11 3 -11 -5 0 -3
-7 4 -15 7 -9 10 -18 6 -22 -3 -3 2 -15 11 -26 13 -15 14 -18 3 -12 -13 8 -13
7 -1 -9 8 -9 15 -29 16 -42 0 -14 7 -29 14 -33 10 -6 10 -10 2 -16 -9 -5 -8
-13 3 -31 9 -13 16 -32 16 -44 0 -11 5 -20 11 -20 5 0 8 -4 4 -9 -3 -5 -1 -13
5 -16 8 -5 7 -12 -2 -23 -11 -13 -11 -14 1 -7 11 6 13 4 8 -9 -4 -11 -3 -15 4
-10 7 4 9 -2 7 -17 -2 -13 4 -30 12 -37 13 -12 13 -13 0 -6 -10 5 -8 -1 5 -16
11 -13 14 -20 7 -16 -12 7 -12 5 -1 -15 14 -24 16 -30 18 -61 1 -16 15 -18
151 -18 145 0 150 1 150 21 0 11 5 17 10 14 8 -5 16 39 11 68 0 4 4 7 10 7 5
0 7 4 4 10 -3 5 -2 10 4 10 6 0 8 7 5 15 -4 8 -2 15 3 15 5 0 10 6 11 13 2 22
7 42 16 56 7 10 6 12 -4 6 -8 -5 -3 7 10 25 13 18 18 30 11 26 -10 -6 -10 -3
-2 13 6 12 16 30 22 42 8 17 8 20 -3 14 -10 -6 -11 -5 0 6 6 7 12 23 12 36 0
13 6 23 14 23 9 0 12 7 9 19 -3 10 2 32 10 47 8 16 12 35 10 42 -3 6 1 12 7
12 7 0 10 7 6 16 -4 9 -2 13 5 8 8 -4 9 1 4 16 -4 14 -3 20 3 16 5 -3 12 5 14
19 3 14 1 25 -6 25 -6 0 -3 5 7 11 9 5 17 18 17 29 0 10 4 29 9 42 5 13 9 26
10 31 0 4 7 20 14 35 8 15 13 35 12 44 -2 10 2 21 7 25 7 4 8 1 3 -7 -5 -8 -4
-11 2 -7 6 4 8 18 5 32 -2 15 0 25 7 25 6 0 11 10 11 23 0 13 6 32 14 43 10
13 11 23 4 31 -7 9 -6 15 6 19 9 3 16 14 16 24 0 10 5 31 11 47 6 15 10 29 10
30 0 2 6 18 15 38 8 19 11 35 8 35 -4 0 -1 7 6 15 7 8 9 15 4 15 -4 0 -3 5 3
11 6 6 9 18 6 27 -4 10 -2 13 5 8 6 -4 11 -26 10 -50 0 -24 3 -49 6 -55 4 -6
2 -11 -4 -11 -8 0 -8 -6 0 -20 8 -14 8 -20 0 -20 -8 0 -8 -6 0 -20 6 -11 7
-20 2 -20 -5 0 -6 -18 -2 -40 4 -22 3 -40 -2 -40 -5 0 -4 -9 2 -20 6 -11 7
-20 2 -20 -5 0 -6 -18 -2 -40 4 -22 3 -40 -2 -40 -5 0 -4 -9 2 -20 8 -14 8
-20 0 -20 -8 0 -8 -6 0 -20 8 -14 8 -20 0 -20 -8 0 -8 -6 0 -20 6 -11 7 -20 2
-20 -5 0 -6 -18 -2 -40 4 -22 3 -40 -2 -40 -5 0 -4 -9 2 -20 6 -11 7 -20 2
-20 -5 0 -6 -18 -2 -40 4 -22 3 -40 -2 -40 -5 0 -4 -9 2 -20 6 -11 7 -20 3
-20 -4 0 -6 -45 -3 -100 3 -55 1 -100 -3 -100 -4 0 -3 -9 3 -20 6 -11 7 -20 2
-20 -5 0 -6 -18 -2 -40 4 -22 3 -40 -2 -40 -5 0 -4 -9 2 -20 6 -11 7 -20 2
-20 -5 0 -6 -18 -2 -40 4 -22 4 -40 0 -40 -11 0 1 -42 16 -57 9 -9 52 -13 144
-13 134 0 157 6 155 40 -1 8 3 21 8 27 6 9 5 13 -2 13 -7 0 -9 4 -6 10 3 5 1
10 -6 10 -7 0 -4 7 7 16 10 8 12 12 4 8 -12 -6 -13 -5 -3 7 9 11 9 19 2 26 -8
8 -8 13 0 17 7 5 5 16 -7 34 -12 18 -13 24 -3 18 11 -7 13 -3 8 22 -3 17 -2
32 3 34 6 2 3 15 -5 31 -8 15 -10 25 -5 22 6 -4 10 1 10 10 0 9 -5 13 -11 9
-6 -3 -3 5 6 20 11 16 13 26 6 26 -10 0 -10 12 -1 55 1 6 1 12 0 15 -8 18 -5
60 4 60 7 0 7 3 1 8 -12 8 -14 132 -2 132 4 0 3 10 -4 21 -8 15 -8 24 -1 28 7
4 7 12 2 20 -4 8 -4 25 1 38 5 12 5 23 1 23 -9 0 -7 95 3 110 3 5 3 10 -2 10
-12 0 -10 164 2 172 7 5 7 8 0 8 -11 0 -13 146 -2 157 4 3 2 12 -4 20 -9 10
-8 17 1 28 10 12 10 15 0 15 -7 0 -10 6 -7 14 3 7 0 19 -6 26 -9 10 -9 11 0 6
8 -4 11 5 9 29 -2 19 0 35 5 35 4 0 4 14 -1 30 -5 17 -5 30 -1 30 5 0 6 11 3
25 l-4 25 -269 0 c-281 0 -274 1 -270 -42 1 -10 -3 -18 -9 -18 -7 0 -9 -7 -6
-16 4 -9 2 -13 -5 -8 -8 4 -9 -1 -4 -16 4 -14 3 -20 -3 -16 -13 8 -22 -17 -12
-34 9 -15 2 -42 -9 -35 -4 2 -8 -1 -8 -8 -1 -27 -12 -64 -27 -92 -9 -16 -16
-40 -16 -53 0 -12 -7 -25 -15 -28 -11 -4 -12 -10 -6 -18 6 -7 6 -18 1 -26 -5
-8 -6 -18 -4 -22 3 -4 0 -8 -6 -8 -7 0 -10 -7 -6 -15 3 -8 1 -15 -3 -15 -5 0
-7 -10 -3 -22 3 -14 2 -19 -6 -14 -8 5 -12 -3 -12 -24 0 -17 -4 -29 -9 -25 -6
3 -10 -3 -10 -12 0 -17 -8 -58 -11 -58 -1 0 -3 -8 -5 -18 -2 -10 -11 -30 -21
-45 -12 -19 -14 -27 -5 -30 9 -3 7 -10 -6 -25 -13 -14 -14 -18 -3 -13 13 7 13
6 0 -6 -14 -12 -17 -23 -23 -80 0 -10 -6 -18 -11 -18 -5 0 -6 -3 -3 -6 4 -4
-3 -15 -15 -25 -11 -11 -16 -19 -9 -19 7 0 9 -4 6 -10 -3 -5 0 -10 7 -10 8 0
6 -5 -4 -11 -10 -5 -18 -20 -18 -32 0 -12 -6 -33 -13 -48 -8 -14 -13 -32 -12
-40 2 -8 -5 -16 -15 -16 -14 -1 -18 5 -16 33 1 19 -4 36 -11 39 -7 2 -13 8
-12 12 4 25 -2 63 -10 59 -5 -4 -8 2 -7 11 2 10 -2 21 -8 25 -8 5 -7 8 2 8 10
0 10 4 0 23 -7 12 -15 24 -18 27 -3 3 -6 19 -7 35 -2 17 -4 39 -7 50 -2 11 -4
24 -5 28 0 5 -5 6 -9 3 -4 -2 -8 7 -7 22 0 15 -6 33 -13 41 -7 7 -11 20 -8 27
3 7 1 16 -4 19 -5 3 -6 13 -3 22 4 10 2 14 -4 10 -14 -9 -23 16 -13 34 6 8 3
20 -7 31 -8 9 -13 24 -10 32 3 8 1 16 -4 18 -6 2 -13 22 -16 46 -3 23 -9 42
-13 42 -5 0 -7 11 -6 25 2 15 -1 22 -7 18 -6 -4 -8 0 -4 10 3 10 2 17 -2 17
-5 0 -8 11 -6 25 1 14 -2 25 -7 25 -5 0 -7 4 -3 9 3 5 0 13 -6 16 -5 4 -8 13
-5 21 3 8 1 14 -5 14 -6 0 -8 4 -4 9 3 5 -2 16 -10 25 -9 9 -11 17 -5 21 6 4
4 17 -5 36 -9 16 -13 29 -9 29 3 0 -1 12 -11 26 -9 15 -12 23 -5 19 8 -5 7 0
-2 14 -13 21 -19 21 -291 21 -153 0 -276 -4 -273 -8z"/>
<path d="M2995 1350 c-6 -9 -4 -11 5 -5 9 5 11 4 6 -4 -6 -9 -11 -9 -21 -1
-14 11 -86 9 -78 -2 2 -5 -12 -8 -31 -8 -20 0 -36 -4 -36 -9 0 -5 -12 -8 -26
-8 -17 0 -36 -12 -53 -30 -14 -17 -34 -33 -43 -36 -10 -4 -18 -13 -18 -22 0
-8 -5 -15 -12 -15 -6 0 -8 -3 -5 -6 4 -4 -2 -19 -13 -34 -11 -16 -17 -35 -14
-44 3 -9 1 -16 -6 -16 -6 0 -10 -8 -9 -17 1 -10 0 -20 -1 -23 -15 -39 -21
-100 -10 -100 7 0 8 -6 0 -19 -7 -14 -6 -21 3 -25 9 -5 9 -7 0 -12 -7 -3 -13
-19 -13 -35 0 -34 18 -37 73 -14 19 8 37 11 41 8 3 -4 6 -1 6 6 0 7 6 11 14 8
8 -3 17 1 20 9 3 8 15 14 26 14 11 0 20 5 20 10 0 6 9 10 21 10 14 0 24 10 32
30 6 17 17 30 25 30 7 0 10 5 7 10 -3 6 3 10 14 10 12 0 21 5 21 10 0 6 57 10
150 10 129 0 150 2 150 16 0 8 5 12 10 9 6 -3 10 -1 10 4 0 6 -7 11 -16 11 -8
0 -12 5 -9 10 3 6 -3 10 -15 10 -12 0 -19 4 -16 9 3 5 -1 12 -10 15 -8 3 -13
10 -9 15 3 5 1 12 -3 15 -5 3 -8 18 -6 33 1 15 -2 33 -7 40 -6 7 -8 17 -4 23
3 5 1 10 -6 10 -7 0 -10 3 -6 6 3 3 -10 21 -28 40 -25 24 -43 34 -66 34 -18 0
-37 7 -44 17 -9 13 -14 13 -20 3z m-325 -404 c0 -11 -19 -15 -25 -6 -3 5 1 10
9 10 9 0 16 -2 16 -4z"/>
<path d="M2100 1260 c0 -4 -21 -7 -47 -9 -27 -1 -49 -6 -51 -12 -2 -5 -26 -9
-53 -9 -27 0 -49 -4 -49 -10 0 -5 -23 -10 -51 -10 -36 0 -49 -4 -46 -12 2 -7
0 -21 -5 -30 -6 -12 -5 -18 2 -18 6 0 9 -4 6 -9 -4 -5 -1 -11 5 -13 6 -2 12
-16 12 -31 0 -27 8 -32 49 -28 9 1 20 -3 24 -10 4 -8 3 -9 -4 -5 -7 4 -12 1
-12 -6 0 -11 -2 -10 -9 0 -7 11 -9 11 -14 -1 -7 -17 2 -53 20 -82 10 -16 14
-17 22 -6 5 7 14 10 20 7 6 -4 11 -2 11 5 0 8 4 8 15 -1 9 -8 15 -8 15 -2 0 6
15 13 33 17 17 3 41 10 52 15 11 4 28 11 38 14 13 4 17 16 17 51 0 34 4 45 15
45 12 0 13 5 7 18 -10 20 -10 32 1 50 5 6 5 12 1 12 -3 0 1 11 10 24 10 16 12
27 6 31 -6 4 -8 10 -5 15 3 5 -4 8 -15 7 -11 -1 -20 -4 -20 -7z m-160 -180 c0
-5 -5 -10 -11 -10 -5 0 -7 5 -4 10 3 6 8 10 11 10 2 0 4 -4 4 -10z"/>
</g>
</svg>
