<svg xmlns="http://www.w3.org/2000/svg" viewBox="0 0 500 500"><path d="M238.4 445.05H45.3V60.66h193.1v378.63zM45.3 55.2v378.68h193.1V60.66zM454.7 445.05H261.6V60.66h193.1v378.63zM261.6 55.2v378.68h193.1V60.66z" fill="#ebebeb"/><path fill="#ebebeb" d="M113.05 168.25l1.62 3.27 3.62.53-2.62 2.55.62 3.6-3.24-1.7-3.23 1.7.62-3.6-2.62-2.55 3.62-.53 1.61-3.27z"/><path fill="#f5f5f5" d="M436.7 322.48l1.62 3.28 3.62.53-2.62 2.54.62 3.61-3.24-1.7-3.23 1.7.62-3.61-2.62-2.54 3.62-.53 1.61-3.28zM372.6 417.57l1.62 3.27 3.61.53-2.62 2.55.62 3.6-3.23-1.7-3.23 1.7.61-3.6-2.61-2.55 3.61-.53 1.62-3.27z"/><path d="M225.94 110.15l.6 1.22 1.35.2-1 .95.23 1.34-1.2-.64-1.2.64.22-1.34-1-.95 1.34-.2.6-1.22z" fill="#ebebeb"/><path d="M60.78 402l.6 1.21 1.34.2-1 .94.23 1.34-1.2-.63-1.2.63.23-1.34-1-.94 1.34-.2L60 402z" fill="#f5f5f5"/><path d="M87.75 97.3l.6 1.22 1.35.19-1 1 .23 1.33-1.2-.63-1.2.63.22-1.33-1-1 1.34-.19.64-1.22zM86.13 338.32zM275.67 171.89z" fill="#ebebeb"/><path d="M206.71 98.4z" fill="#f5f5f5"/><circle cx="207.14" cy="415.38" r="7.35" transform="rotate(-13.28 207.178 415.437)" fill="#f0f0f0"/><path d="M204.6 411.09z" fill="#e6e6e6"/><g fill="#3777f6"><path d="M147.68 287.64H86.83v-27.47l60.85-72.34h29.12v73.9h15.09v25.91H176.8v22.48h-29.12zm0-25.91v-37.84l-32.16 37.84zM202.3 249.51q0-34.29 12.34-48t37.61-13.7q12.13.0 19.93 3 0 32.72-11.07 47.89t-38.13 15.18q-15.18.0-24.53-4.84-4.35-6.64-6.77-18.17zm33.14.08q0 23 4.05 31.37t11.77 8.41q3.74-3.57 5.5-11.28t1.76-24q0-23.94-4.06-32.19t-12.18-8.24q-8.28.0-12 8.41t-3.66 31.09zM371.74 287.64h-60.85v-27.47l60.85-72.34h29.12v73.9H416v25.91h-15.14v22.48h-29.12zm0-25.91v-37.84l-32.15 37.84z"/></g><g><g opacity=".3" fill="#3777f6"><path d="M201 145.62z"/><circle cx="72.97" cy="216.13" r="1.32"/><circle cx="291.05" cy="408.33" r="1.89"/><circle cx="336.5" cy="332" r="1.32"/><path d="M424.17 95.62zM172.75 69z"/><circle cx="277.7" cy="136.94" r="1.32"/></g><circle cx="141.23" cy="116.36" r="21.91" fill="#3777f6"/><circle cx="141.23" cy="116.36" r="21.91" fill="#fff" opacity=".7"/><path d="M133.68 99.83z" fill="#3777f6" opacity=".2"/><path d="M131.5 105.62zM155.06 103.62zM151.06 117.9zM140.64 127.25z" fill="#3777f6" opacity=".2"/><circle cx="382.2" cy="376.25" r="19.23" transform="rotate(-76.72 382.179 376.25)" fill="#3777f6"/><circle cx="382.2" cy="376.25" r="19.23" transform="rotate(-76.72 382.179 376.25)" fill="#fff" opacity=".3"/><path d="M394.33 361.34z" fill="#3777f6" opacity=".4"/><path d="M363.83 382c-20.53 9.66-5.22 17.11 23.71 6.71 26.79-9.63 37-21.77 13-18 1.29 5.05-32.26 18.12-36.71 11.29z" fill="#3777f6"/></g><g><path d="M394.1 187.83C367.21 206 332.4 230 322.79 287.64h-2.05c9.35-57 42.89-81.57 69.79-99.81z" opacity=".2"/><path d="M255 368.27c-17 0-33.81-7.67-42-20.19-5.05-7.74-10.92-23.95 6.56-45.58l1.55 1.26c-12.36 15.3-14.64 30.65-6.43 43.23 10 15.3 33.59 23 53.73 17.52 20.63-5.61 33.15-23.55 34.36-49.22 4.13-87.81 50.78-114.86 84.84-134.61 21.17-12.27 36.46-21.13 33.1-39.84-.47-2.59-1.5-4.38-3.17-5.48-4.35-2.87-12.85-.88-22.69 1.41-19.31 4.5-45.75 10.66-61.5-16.13l1.73-1c15 25.53 39.57 19.8 59.32 15.2 10.29-2.39 19.17-4.46 24.24-1.13 2.15 1.41 3.47 3.64 4 6.8 3.61 20.08-13 29.72-34.05 41.92-33.67 19.52-79.77 46.25-83.85 133-1.26 26.6-14.32 45.21-35.84 51.06z" fill="#3777f6"/><path d="M255 368.27c-17 0-33.81-7.67-42-20.19-5.05-7.74-10.92-23.95 6.56-45.58l1.55 1.26c-12.36 15.3-14.64 30.65-6.43 43.23 10 15.3 33.59 23 53.73 17.52 20.63-5.61 33.15-23.55 34.36-49.22 4.13-87.81 50.78-114.86 84.84-134.61 21.17-12.27 36.46-21.13 33.1-39.84-.47-2.59-1.5-4.38-3.17-5.48-4.35-2.87-12.85-.88-22.69 1.41-19.31 4.5-45.75 10.66-61.5-16.13l1.73-1c15 25.53 39.57 19.8 59.32 15.2 10.29-2.39 19.17-4.46 24.24-1.13 2.15 1.41 3.47 3.64 4 6.8 3.61 20.08-13 29.72-34.05 41.92-33.67 19.52-79.77 46.25-83.85 133-1.26 26.6-14.32 45.21-35.84 51.06z" fill="#fff" opacity=".2"/><path d="M312.76 97s11 18.77 12.3 23.07c-.46 4.24-7.61 11.19-7.61 11.19z" fill="#3777f6"/><path d="M312.76 97s11 18.77 12.3 23.07c-.46 4.24-7.61 11.19-7.61 11.19z" fill="#fff" opacity=".3"/><path d="M345.34 188.13q-1.26-2.17-2.39-4.42c-.43-.85-.84-1.7-1.24-2.56-1.2-12.67 3.14-22-1-32.17l-16.48 6.44s1.4 18.12 4.6 29c2 6.73 6.48 12.55 10.81 17.94 1.35 1.68 2.65 3.41 4 5.1s2.71 3.06 4 4.65c1.95 2.41 2.59 4.72 1.12 7.56l-.25.45c-.42.74 1.54 1.58 2.78.0 2-2.58 1.72-2.42 3.46-4.62 1.06-1.33 2.27-2.78 3.32-4z" fill="#3777f6"/><path d="M345.34 188.13q-1.26-2.17-2.39-4.42c-.43-.85-.84-1.7-1.24-2.56-1.2-12.67 3.14-22-1-32.17l-16.48 6.44s1.4 18.12 4.6 29c2 6.73 6.48 12.55 10.81 17.94 1.35 1.68 2.65 3.41 4 5.1s2.71 3.06 4 4.65c1.95 2.41 2.59 4.72 1.12 7.56l-.25.45c-.42.74 1.54 1.58 2.78.0 2-2.58 1.72-2.42 3.46-4.62 1.06-1.33 2.27-2.78 3.32-4z" fill="#fff" opacity=".7"/><path d="M341.31 182.92c.43.48.85 1 1.28 1.46zM345.34 188.13l-.12-.14.95-1.13z" fill="#3777f6" opacity=".3"/><path d="M308.84 109l-.68.22-.22.06-.47.13h.08c2.36 1.5 4.74 3.08 7.06 4.49 1.18.69 2.32 1.39 3.45 1.93.06.0.0-.07-.37-.06l-.22.05.33-.17z" fill="#3777f6"/><path d="M308.84 109l-.68.22-.22.06-.47.13h.08c2.36 1.5 4.74 3.08 7.06 4.49 1.18.69 2.32 1.39 3.45 1.93.06.0.0-.07-.37-.06l-.22.05.33-.17z" fill="#fff" opacity=".7"/><path d="M272.29 102.42l1.17 2s.89 2.62 2.68 3.1l4.86-1.57-.25-.41c-.62-.94-.55-2.77-.34-4.29s-.57-1.57-1.15-1.19l-1.48-1.48-1.2 1.07z" fill="#3777f6"/><path d="M272.29 102.42l1.17 2s.89 2.62 2.68 3.1l4.86-1.57-.25-.41c-.62-.94-.55-2.77-.34-4.29s-.57-1.57-1.15-1.19l-1.48-1.48-1.2 1.07z" fill="#fff" opacity=".7"/><path d="M317.67 95.22c1.93 9.44 6.32 22.08 11.06 30.13l22.11-9.15c.15-3.9-5.22-16.52-10.69-28.72-.98-2.19-2.87-3.82-5.2-3.26z" fill="#3777f6"/><path d="M317.67 95.22c1.93 9.44 6.32 22.08 11.06 30.13l22.11-9.15c.15-3.9-5.22-16.52-10.69-28.72-.98-2.19-2.87-3.82-5.2-3.26z" fill="#fff" opacity=".8"/><path d="M326.3 106.21l-4.39-1.47c1 2.57 4.53 5.82 7 7.73-.8-2-1.69-4.1-2.61-6.26z" fill="#3777f6" opacity=".3"/><path d="M316.22 85.32c-1.83-3.48-5.78-5.23-10.52-4.84-4 .34-7.54 4.42-7.12 6.62s3.78 3.14 4.42 3.9l-2.77 2c1.17 1.48 2.71 3 3.6 4.12 7.66-.2 13.33-3.12 15.38-5.93-.77-3.56-.61-6.7-2.39-10.16z" fill="#3777f6"/><path d="M316.22 85.32c-1.83-3.48-5.78-5.23-10.52-4.84-4 .34-7.54 4.42-7.12 6.62s3.78 3.14 4.42 3.9l-2.77 2c1.17 1.48 2.71 3 3.6 4.12 7.66-.2 13.33-3.12 15.38-5.93-.77-3.56-.61-6.7-2.39-10.16z" fill="#fff" opacity=".8"/><path d="M312.46 87.48z" fill="#263238"/><path d="M377.39 177.6c-.11-3.29-.26-3-.35-5.77-.06-1.7-.07-3.59-.08-5.22-1.32-.27-2.65-.52-4-.8-1.73-.37-3.44-.77-5.13-1.26-1.32-.38-2.62-.8-3.91-1.27s-2.74-1-4.08-1.62c-1.58-.67-3.14-1.39-4.68-2.14-1.73-.82-3.44-1.68-5.15-2.55-6.58-10.89-6.72-18.07-13.78-26.49l-15.16 6.86s11.14 19.76 18.72 28.14c4.37 4.82 11.22 7 17.33 8.58 4.41 1.13 8.88 2 13.35 2.83 1.74.32 3.63.44 5.13 1.48q.1.42.18.84c.19.84 2.24.2 2.17-1.78z" fill="#3777f6"/><path d="M377.39 177.6c-.11-3.29-.26-3-.35-5.77-.06-1.7-.07-3.59-.08-5.22-1.32-.27-2.65-.52-4-.8-1.73-.37-3.44-.77-5.13-1.26-1.32-.38-2.62-.8-3.91-1.27s-2.74-1-4.08-1.62c-1.58-.67-3.14-1.39-4.68-2.14-1.73-.82-3.44-1.68-5.15-2.55-6.58-10.89-6.72-18.07-13.78-26.49l-15.16 6.86s11.14 19.76 18.72 28.14c4.37 4.82 11.22 7 17.33 8.58 4.41 1.13 8.88 2 13.35 2.83 1.74.32 3.63.44 5.13 1.48q.1.42.18.84c.19.84 2.24.2 2.17-1.78z" fill="#fff" opacity=".8"/><path d="M369.7 162.4c-.6-.13-1.2-.26-1.81-.41.05 3.46-1.57 9.42-2.16 11.23l1.9.36zM377 166.61l-1-.19c.06-.18.06-.38.06-.57z" fill="#3777f6" opacity=".3"/><path d="M311.05 87.54c.4 1.52-1.3 3.11-2.65 1.8-1.39-.87.46-2.39 2.65-1.8z" fill="#fff"/><path d="M311.16 135.86c-.7.26.58 1.46.58 1.46s14-4.79 22.5-9.72z" fill="#3777f6"/><path d="M311.16 135.86c-.7.26.58 1.46.58 1.46s14-4.79 22.5-9.72z" fill="#fff" opacity=".5"/><path d="M321.46 94.56c2.76 1.4 5.35 2.87 8 4.5 1.29.82 2.57 1.65 3.84 2.55s2.53 1.82 3.8 2.86l.47.39.59.54c.32.35.59.69.85 1s.54.68.77 1l-.05-.06c-2-2.13-3.93-4.37-5.87-6.46s-3.91-4.21-5.54-5.14c-2.27-1.41-4.8-2.82-7.31-4.2l-7.56-4.2z" fill="#3777f6"/><path d="M321.46 94.56c2.76 1.4 5.35 2.87 8 4.5 1.29.82 2.57 1.65 3.84 2.55s2.53 1.82 3.8 2.86l.47.39.59.54c.32.35.59.69.85 1s.54.68.77 1l-.05-.06c-2-2.13-3.93-4.37-5.87-6.46s-3.91-4.21-5.54-5.14c-2.27-1.41-4.8-2.82-7.31-4.2l-7.56-4.2z" fill="#fff" opacity=".8"/><path d="M349.73 125.74l-.85-2.13s-.47-2.72-2.16-3.48l-5 .79.17.44c.46 1 .11 2.83-.34 4.29s.31 1.65.95 1.36c.36-.16.71-.81 1.09-1.5l1.23 1.69 1.36-.87z" fill="#3777f6"/><path d="M349.73 125.74l-.85-2.13s-.47-2.72-2.16-3.48l-5 .79.17.44c.46 1 .11 2.83-.34 4.29s.31 1.65.95 1.36c.36-.16.71-.81 1.09-1.5l1.23 1.69 1.36-.87z" fill="#fff" opacity=".8"/><path d="M317.24 106.06l-1.22.1-7.49 18.08s9.76-3.64 12.71-5c-1.98-4.09-5.22-13.08-5.22-13.08z" fill="#3777f6" opacity=".3"/><path d="M303.57 110.8c3.66-1.26 9.76-3.64 12.72-5-3.13.21-10 2.84-12.43 4.64z" fill="#fff"/><path d="M311 114.71z" fill="#3777f6" opacity=".3"/><path d="M312.91 111.27zM315.15 110.4z" fill="#3777f6" opacity=".6"/><path fill="#3777f6" opacity=".5" d="M318.29 118.19l-9.25 3.65-.55-1.82 9.24-3.65.56 1.82z"/></g><g><path d="M267.26 257.17q-1.77 7.71-5.5 11.28-7.71.0-11.77-8.41l-5.31 6.26q9.34 4.83 24.52 4.84c1.78.0 3.5-.05 5.17-.15l14.85-38.72z" opacity=".2"/><path d="M133.39 310l17.5 17.5 49-46.17c-16.89-6.45-49.73 11.86-66.5 28.67zm61.03 61c-5.59-5.6-17.5-17.5-17.5-17.5l46.17-49c6.41 16.85-11.9 49.72-28.67 66.5z" fill="#263238"/><path d="M261.4 260.7l19.09-36.81L243.68 243l-62.75 59.07 30.83 30.83 59.07-62.75z" fill="#3777f6"/><path d="M261.4 260.7l19.09-36.81L243.68 243l-62.75 59.07 30.83 30.83 59.07-62.75z" fill="#fff" opacity=".6"/><circle cx="222.2" cy="282.18" r="12.9" fill="#fff"/><circle cx="222.2" cy="282.18" r="8.29" fill="#3777f6"/><path fill="#3777f6" opacity=".3" d="M189.75 344.82l-30.19-30.19 24.72-23.26 28.73 28.74-23.26 24.71z"/><path d="M140.22 337.62c-22.6 1.83-30.09 16.3-32.65 35.53-1.3 9.81-1.88 19.74-10.11 25.48 30.34-.95 44.49-15.8 46.27-22 8.51-5.33 19.19-15.15 19.9-31.08-6.26-8.87-26.55-25.85-26.55-25.85z" fill="#3777f6"/><path d="M140.22 337.62c-22.6 1.83-30.09 16.3-32.65 35.53-1.3 9.81-1.88 19.74-10.11 25.48 30.34-.95 44.49-15.8 46.27-22 8.51-5.33 19.19-15.15 19.9-31.08-6.26-8.87-26.55-25.85-26.55-25.85z" fill="#fff" opacity=".2"/><path fill="#3777f6" d="M170.28 370.3l-36.2-36.2 19.28-4.17 21.09 21.09-4.17 19.28z"/></g></svg>