<?xml version="1.0" encoding="utf-8"?>
<!-- Generator: Adobe Illustrator 25.2.1, SVG Export Plug-In . SVG Version: 6.00 Build 0)  -->
<svg version="1.1" id="Capa_1" xmlns="http://www.w3.org/2000/svg" xmlns:xlink="http://www.w3.org/1999/xlink" x="0px" y="0px"
	 viewBox="0 0 469.3 469.3" style="enable-background:new 0 0 469.3 469.3;" xml:space="preserve">
<style type="text/css">
	.st0{fill:#303C42;}
	.st1{fill:url(#SVGID_1_);}
	.st2{font-family:'MyriadPro-Regular';}
	.st3{font-size:64px;}
</style>
<g>
	<path class="st0" d="M160,0H10.7C4.8,0,0,4.8,0,10.7V160c0,5.9,4.8,10.7,10.7,10.7s10.7-4.8,10.7-10.7V21.3H160
		c5.9,0,10.7-4.8,10.7-10.7S165.9,0,160,0z"/>
	<path class="st0" d="M458.7,0H309.3c-5.9,0-10.7,4.8-10.7,10.7s4.8,10.7,10.7,10.7H448V160c0,5.9,4.8,10.7,10.7,10.7
		s10.7-4.8,10.7-10.7V10.7C469.3,4.8,464.6,0,458.7,0z"/>
	<path class="st0" d="M458.7,298.7c-5.9,0-10.7,4.8-10.7,10.7V448H309.3c-5.9,0-10.7,4.8-10.7,10.7s4.8,10.7,10.7,10.7h149.3
		c5.9,0,10.7-4.8,10.7-10.7V309.3C469.3,303.4,464.6,298.7,458.7,298.7z"/>
	<path class="st0" d="M160,448H21.3V309.3c0-5.9-4.8-10.7-10.7-10.7S0,303.4,0,309.3v149.3c0,5.9,4.8,10.7,10.7,10.7H160
		c5.9,0,10.7-4.8,10.7-10.7C170.7,452.8,165.9,448,160,448z"/>
</g>
<linearGradient id="SVGID_1_" gradientUnits="userSpaceOnUse" x1="-202.5725" y1="604.2617" x2="-176.3746" y2="592.0446" gradientTransform="matrix(21.3333 0 0 -21.3333 4276.7729 12995.2227)">
	<stop  offset="0" style="stop-color:#FFFFFF;stop-opacity:0.2"/>
	<stop  offset="1" style="stop-color:#FFFFFF;stop-opacity:0"/>
</linearGradient>
<path class="st1" d="M160,0H10.7C4.8,0,0,4.8,0,10.7V160c0,5.9,4.8,10.7,10.7,10.7s10.7-4.8,10.7-10.7V21.3H160
	c5.9,0,10.7-4.8,10.7-10.7S165.9,0,160,0z M458.7,0H309.3c-5.9,0-10.7,4.8-10.7,10.7s4.8,10.7,10.7,10.7H448V160
	c0,5.9,4.8,10.7,10.7,10.7s10.7-4.8,10.7-10.7V10.7C469.3,4.8,464.6,0,458.7,0z M458.7,298.7c-5.9,0-10.7,4.8-10.7,10.7V448H309.3
	c-5.9,0-10.7,4.8-10.7,10.7s4.8,10.7,10.7,10.7h149.3c5.9,0,10.7-4.8,10.7-10.7V309.3C469.3,303.4,464.6,298.7,458.7,298.7z
	 M160,448H21.3V309.3c0-5.9-4.8-10.7-10.7-10.7S0,303.4,0,309.3v149.3c0,5.9,4.8,10.7,10.7,10.7H160c5.9,0,10.7-4.8,10.7-10.7
	C170.7,452.8,165.9,448,160,448z"/>
<text transform="matrix(1 0 0 1 191.2437 253.4507)" class="st2 st3">83”</text>
</svg>
