<svg xmlns="http://www.w3.org/2000/svg" viewBox="0 0 500 500"><ellipse cx="250" cy="344.13" rx="242.11" ry="139.78" fill="#f5f5f5"/><path d="M233.3 223.74c-4.5-10.7-12.09-29.66-12.55-33.29-.7-5.49.0-33.84.89-43.34s3.68-14 9.8-16.11c2.24 6.37.93 15.23.93 15.23l-2.76 36 7.05 26.7c2.06 2.27 3.21 4.46 5.39 6.42s1.47 2.31.0 2.9-4-.86-6-2.79c-.66-.61-1.27-1.11-1.8-1.52 2.54 3.09 3.27 5.74-.4 6.89-4.6 1.44-9.33 1.44-13.27-1.38s-6-8.44-7.36-13.07-1.66-9.91-3.61-14.35z" fill="#ffa8a7"/><path d="M238.6 190.33l.53-10.18s3-31.84 3-38c0-6.91-1.89-10-4.43-11.2s-5.05-1.71-10.79-2.66c-7.85 4.91-7.43 27.55-7.67 41.16s-.84 20.4 1.2 24.66 12.84 29.58 12.84 29.58z" fill="#37474f"/><path fill="#ffa8a7" d="M181.97 392.12h12.27l2.45-21.73h-14.72v21.73zM222.51 369.78l13.07.43-.23-22.5-14.79-.28 1.95 22.35z"/><path d="M182.1 214.46c-.24 11.91-2.76 93.77-2.76 93.77-.33 15.74 3 53.13 3 53.13.73 3.4 13.42 4.78 15.1 1.71.0.0 6.94-54.23 8.91-69.81 1.71-13.61 7-56.5 7-56.5l4.74 42.09c.51 7.21 4.13 49.75 4.13 49.75.06 2.65 13.26 4.84 15.48.93.0.0 4.18-62.09 4.3-68.71.15-7.54-.9-81.93-.9-81.93z" fill="#37474f"/><path d="M194.94 385.88l.21-1.85c.68.0 1 .76 1.25 2.39 2.09 4.29 3.3 6.07 7.41 11.24 1 1.22 3.17 3.17 3.94 4.54s1 5.16-.27 6c-4.79 3.19-12.07 3.28-17.21 1.77-.83-4.69-1.27-7.59-3.66-11.13-.87-1.3-2.29-2.35-2.88-3.8-1.07-2.61-.21-5.54.47-8.14.59-2.24 1.22-4.71 2-4.5v1.38c.92 1 4.15 2 7 2.15 1.87.1 6.02-.24 5.96-1.66zM235.55 366.66c.32.22 1.06 1.07 2.38 2.29 3.89 2.14 7.4 3.44 12 5.54-2.61-.38-5.83-.25-8.09-1.81-2.52-1.73-1.51-5.44-.8-8.62.78-3.48.95-8.78 2.53-8.66l.12 1.38c.14 1.51 3.78 2.19 6.59 2.2 2.33.0 6.73-.61 6.72-1.71z" fill="#263238"/><path d="M213.48 237.91s-2.14 6.24-10.91 11.37l.58 54.39-4.42-38.89z" opacity=".3"/><path d="M201.88 127.53c-2.23.53-9.29 2.43-15 4.46-4.17 6.09-.41 19.59 2.65 45-.23 16.44-.7 33.84-.7 33.84 7.55 5.5 42.8 9.24 58.7-2.37.0.0.53-58.65-.52-66.67-2-15.34-8-19.45-20.43-20.17z" fill="#263238"/><path d="M223.54 145.54c1.12 3.84 7.36 29.19 6.9 38.73-.35 7.46-3.15 11.09-4.65 12.68s-4.09 2.43-5.75-.19c-.52-5.1 2.29-22.74 1.51-40.9z" fill="#6c63ff"/><path d="M223.79 136.88c2.61 2.24-.25 8.66-.25 8.66s-5.21-2.22-5.22-6.08c0-3.51 3.73-2.38 6.38-2.84 2.81-.49 4.22-2.55 4.53-.67z" fill="#6c63ff"/><path d="M223.54 145.54c-.43-1.5-2.48-1.36-4.11-1.88-.84-1.45.0-3.87 1.18-4.12-2.53.18-5.53-.39-5.52 2.75.0 3.86 5.22 6.08 5.22 6.08z" opacity=".2"/><path d="M205.6 91.85zM194.17 103.54s2.89 12.17 4 14.15l-.43-8.59z" fill="#263238"/><path d="M197 86c-2.09 2.25-.73 9.07 2.1 15.72l4.92.45z" fill="#263238"/><path d="M200.56 104c-1 .61-2.42-1.25-3.66-2.49s-5.24-2.87-7.12 1.33 2 9.8 5.12 10.7c5.41 1.56 6.13-1.9 6.13-1.9l.92 21.92c3.83 4.67 12 3.4 16.45 2.49 3.57-.72 4.49-1.72 1-5.6l-.16-6.28c3.93-.71 6.35-3.88 7.43-8.18 1.65-6.58 2.06-13.91.41-25.93-2-14.77-19.36-14.5-28.51-8.43S200.56 104 200.56 104z" fill="#ffa8a7"/><path d="M200.59 105.61c-.49.0-2.44-3-3.69-4.14C195.16 1e2 197 86 197 86c2.27-2.61 5.43-5.81 16-4.81 7.53.7 15.76 2.85 22.29-.55s-2.35 1.59-8.62 2.51-16.09.24-17.43.09c-1.83-.21-2.18 1.57-3.05 6.42-.76 4.25-1.3 11.45-2.97 11.52z" fill="#263238"/><path d="M197.05 87 191 84z" fill="#263238"/><path d="M219.2 124.13s-8.86-1.57-12-3.13c2.33 2.83 13.86 4.85 13.86 4.85z" fill="#f28f8f"/><path d="M218.46 102.52zm-1.25-5.25-3.88 1.89z" fill="#263238"/><path d="M217.25 113.69l5.51 1.51z" fill="#f28f8f"/><path d="M233.05 97.88l-4.11-1.41zM232.63 101.8z" fill="#263238"/><path fill="#f28f8f" d="M224.16 100.94l.64 10.62 5.54-1.92-6.18-8.7z"/><path d="M218.4 136c-4.9-1-15.63-4-16.75-9.7l-.15-3.11c-1.9.0-2.77 2.13-3.71 5.17-.39 8 8.06 15.32 16.55 17.29.0.0-.22-4.16 1.22-6.33z" fill="#37474f"/><path d="M219.22 125c6.36 6.58 2.73 15.2 2.73 15.2s-.28-3.77-2.13-5c1.56-1.66 1.8-3 1-5.6z" fill="#37474f"/><g><path d="M335.94 148c-3.78 11-8.5 30.25-8.5 30.25l-35.33 14.23 1 4.64-8.39-3.45-4.15 4.33s4.59 10.73 10.71 9.36c1.93-.68 3.43-1.53 4.93-2.12 2.22-.86 4.48-1.56 7.43-2.44 11.55-3.44 23.82-6.66 27.43-7.76 5.54-1.7 5.61-2.86 7.91-9.21C346.58 175.59 353 154 353 154v-20.33c-7.3.08-13 2.45-17.06 14.33z" fill="#b16668"/><path d="M400.27 369.9c.49 3.81.79 6.63 1.9 13.15 1 5.94 1.78 10.48-2.42 14.94-3.69 3.93-10.2 5.44-12.34 1-2.45-5.1-2.13-13.39-1.8-18.55s.26-6.67.3-10.78c0-3.62.21-5.1.41-8.22 3.97-.26 8.15-1.33 12.11-1.64z" fill="#37474f"/><path d="M356.39 389.12l-1.36-.2c-.09-4.28.16-8.18-.9-10.2l1.94-5.24z" fill="#263238"/><path d="M359.74 369.66c-.31 2.93-2 5.93-2.09 11.7l-1.41.38-.32-15.64z" fill="#263238"/><path d="M327.5 393.05s.06 1.71.8 2.27 2.29 2.25 9.81 1.81 10.16-2.3 12.73-4.65 3.24-8.5 3.63-11.41c.74-5.63 3.08-8.58 5.27-11.41s-6.22-.35-8.91 6.54-4.8 14.88-10.88 16.79z" fill="#263238"/><path d="M400.27 369.9c0-4.86.0-11.31.45-19.86.51-10 .58-17.73.54-28.28.0-8-.45-15.06-3.28-30.37 3-30.75 4.09-62.53.46-74.21-3.11-10-6.29-13.37-9.09-18.28-1.46-2.54-4.13-6.31-4.13-9.71-14.26.13-19.24-3.74-19.24-3.74s-6.43 74.5-5.09 98.81c.8 14.39 1.95 35.69 2.38 46.16.33 8.07 1.26 18.57 1.18 23-2.3 2-3.45 3-3.25 4.8s1.57 2.58 3.12 3c3.7 1.11 7.88.65 11.58.0s7.83-2.4 9.41-5.93c.68-3.64 1.3-7.35 2.83-10.74 1-1.4 2.16-2.93 2.34-4.68.14-1.46-1-3.53-2.45-5.74-1.28-1.92-.93-3.25-.48-9.29 1-13.08 3.63-22.49 5.87-38.38 1.11-7.89.86-14.21-.47-23 1.52-10.41 4.15-21.33 5.7-28.52 2.51 15 4.12 20.53 5.49 31.91 1.89 15.77 10.76 48.78 12.17 57.27s2.3 14.18 3 21.08c.57 6 1 18 1.77 23.49 1.2 8.77 10.23 6.09 11.69-1.64.9-5.19-1.28-16.09-1.36-22.8z" fill="#b16668"/><path d="M343.27 195.74c-.82 10.32-4.57 52-5.3 65.08-.59 10.51-.29 22.92.0 31.49 6.92 4.49 35.24 12.57 49.87-8.68 3 7.23 6.57 11.16 10.81 8.72.0.0 3.11-30.39 3.24-50s-2.22-28.95-7-36-8.16-12-8.16-12zM359.3 362.45c-1.07-1.89-2.05-2.42-3.08-4.05-.46 1.5-1.66 8.89-3.48 14.76-1.36 4.41-3.65 6.75-6.8 7.95-3.91-.53-3-3.35-3-3.35-.9 1.25-4.63 4.29-6.84 6.53-1.25 1.27-.66 3.19.29 4.43 1.09.94 3.64 2.82 13 1.46 8.3-1.2 10.24-5 11-6.76.19-.32.37-.62.55-.88.58-.7 1-1 1.2-1.7z" fill="#37474f"/><path d="M341.7 170.68c.22 4.13 2.07 19.09 2.07 19.09 16.87 11.42 41.45-.58 41.45-.58l4.6-31.13s-10.09-10.34-1.83-23.33l-13.38-.86-14.32-.07-7.32-.13c-5.15 3.78-14.05 13.45-15.7 17.69s-3.07 10.49 4.43 19.32z" fill="#6c63ff"/><path d="M341.7 170.68c.22 4.13 2.07 19.09 2.07 19.09 16.87 11.42 41.45-.58 41.45-.58l4.6-31.13s-10.09-10.34-1.83-23.33l-13.38-.86-14.32-.07-7.32-.13c-5.15 3.78-14.05 13.45-15.7 17.69s-3.07 10.49 4.43 19.32z" fill="#fff" opacity=".6"/><path d="M358.25 170c1.46 1.89 8.24 4.22 13.81 1.75s1.59 8.59-7 12.09-14.12-1.76-14.56-3.64z" fill="#263238" opacity=".1"/><path d="M350.43 121.07s25.24 9.84 25.24 5.44c4.73-8.77 14.29-11.6 14.29-26.93.0-16-13.3-23.84-26.6-23.84-7.59 2-5.65 12.48 1.95 14.36z" fill="#263238"/><path d="M376.33 130c-3.58-3.18-3.61-9-.05-13s9.34-4.65 12.92-1.46 3.61 9 .06 13-9.34 4.61-12.93 1.46z" fill="#263238"/><path d="M375.67 134v-19.44s2.5 2.49 6.17-.2c3.29-2.41 4.67-7.58 2.36-10.25-1.63-1.89-6.69-2.93-8.66 1.14.0.0-5.86-.28-13.51-5.71s-9.46-10.22-14.15-10.76c-2.2 1.68-4.34 6.63-4.11 19.68.17 9.66 4.49 14.27 6.7 15.93 1.8 1.35 4.1 1.54 8 .9v9.16s-11.51 12.81-2.24 12.24c13.95-.86 19.44-12.69 19.44-12.69z" fill="#b16668"/><path d="M375.54 104.35v5.36-5.17zM359.69 104.41zM345 99.78l3.86-2.17z" fill="#263238"/><path d="M361.05 114.65l-4.92 1.75z" fill="#9a4a4d"/><path d="M346.21 104z" fill="#263238"/><path fill="#9a4a4d" d="M354.71 103.14l-.26 9.47-5.08-1.54 5.34-7.93zM358.47 125.29c4.1-.52 12.55-2.9 13.86-6.18-2.52 2.12-10.9 4.51-10.9 4.51z"/><path d="M369.62 76.33c-8.48-1.94-11.86.52-20.44-.39-3.52-.37-6.74-.54-9.09.65-2.68 1.35-4.25 4.31-3.89 8.12.61 6.44 7.55 8.09 7.55 8.09s5.89-13.25 13.71-13.15 12.16-3.32 12.16-3.32zM343.42 187.45l-.15 8.29s5.46 4.18 15.48 4.85 24.09-3.28 28-6.22c-14.04-.68-17.44-4.47-17.44-4.47z" fill="#263238"/><path d="M410.66 219.87c1.14-10.38 2.77-29.86 2.25-33.1-.8-4.91-9.27-33-12.19-41.56-2.79-8.1-7-10.57-14.17-10.57.0.0-5 2.24-5 10.2.0 6.06 3 12.27 3 12.27l12.58 35.71.74 24.81c-1.2 2.49-1.64 4.67-3 6.91s-.68 2.37.72 2.51 3.19-1.75 4.48-4c.41-.69.8-1.28 1.16-1.77-1.4 3.31-1.35 5.78 2.11 5.83 4.33.07 9.5-1.67 12.17-5.11s3-8.8 3-13.14-1.03-8.89-.49-13.21z" fill="#b16668"/></g><path d="M265.52 207.49c-1.37-.22-3.87-.54-5.52-.68-4.73-.4-10.89-.77-10.89-.77l1.47-14.95 8.95 1.28c3.61-.63 6.74-3.15 10.41-3.15 1.89.0 3 1.21 4.12 2.69 2.7 4.49 6.74 10.35 8.28 11.22 1.81 1 2.85.49 2.85.49 2.05 3.48-5.3 4.48-8.47 5.3-2.56-.81-9.89-3.63-11.26-3.85z" fill="#ffa8a7"/><path d="M186.85 132c-4 4-4.2 10.73-2.19 17.49s19.43 36.95 22 41.57c3.35 6 5.32 6 11 6.64 7.11.85 49.78 3.64 49.78 3.64 2.49-.49 3.83-12.94 1.34-15.21l-44.95-7-15.13-32.94S195 133.15 186.85 132z" fill="#37474f"/><path d="M296.84 190.61c-2.85.8-5.06-.1-8.22-1.15-3.32-1.09-4.13-1.24-6.67-.44-2.36.75-5.08 1.29-6.05 2.69-.29.43-1.25 3.37-2 5.55.06 1.08 2.64 1.46 3.77-.11 1-1.34 1.18-2.13 1.61-2.62l11.83 5.28zM264.94 207.4c1.33.16 2.67.26 4 .42.68.09 1.35.18 2 .31.44.08 1 .39 1 .93 1 .91.31 2.31-.33 3.2-2.23-.58-10.17-3.1-8.05-5.28z" fill="#b16668"/></svg>