<svg xmlns="http://www.w3.org/2000/svg" viewBox="0 0 500 500"><path d="M248.61 146.46c-47.51-6-83-21.35-123.46 13.66-27.34 23.64-46.29 63.78-35.64 99.27C108.77 323.6 213 409.9 280.7 356.28c33.07-26.19 44.32-62 84.29-83.46s73.16-41.51 67.8-94.39c-3.43-33.87-29.84-70.55-66.85-70.18-44.75.44-63.94 44.92-117.33 38.21z" fill="#407bff"/><path d="M248.61 146.46c-47.51-6-83-21.35-123.46 13.66-27.34 23.64-46.29 63.78-35.64 99.27C108.77 323.6 213 409.9 280.7 356.28c33.07-26.19 44.32-62 84.29-83.46s73.16-41.51 67.8-94.39c-3.43-33.87-29.84-70.55-66.85-70.18-44.75.44-63.94 44.92-117.33 38.21z" fill="#fff" opacity=".9"/><path d="M337.78 140.16a14.78 14.78 0 00-10.34-3.7c-2.43-4.9-7.44-7.76-12.74-6.79-7.6 1.39-9.92 10.52-4.64 13.85a22.3 22.3 0 005.62 2.55v.24a17.15 17.15 0 00-11.28 14.8c-.78 11.32 11.38 17.94 18 11.64A35 35 0 00325 170c1.28 1.8 2.66 3.64 4.15 5.56 16.54-7.62 19.33-26.17 8.63-35.4z" fill="#263238"/><path d="M304.53 184.17c-.1 1.4-.22 2.62-.4 3.9s-.35 2.52-.56 3.77c-.42 2.51-1 5-1.59 7.45a78.67 78.67 0 01-5.08 14.49l-.21.44c-.08.17-.1.23-.25.53a8.5 8.5 0 01-.89 1.4 9 9 0 01-2.29 2 13.39 13.39 0 01-4.68 1.71 29.62 29.62 0 01-8.23.11 66.9 66.9 0 01-14.83-3.57l1.1-4c2.31.35 4.72.67 7.08.88a61.48 61.48 0 007 .36 25.86 25.86 0 006.38-.68 6.25 6.25 0 002.11-.95 1.42 1.42 0 00.39-.43.64.64 0 00.06-.16l.28-.72c.42-1.07.83-2.15 1.18-3.26s.72-2.21 1.07-3.32c.63-2.25 1.25-4.5 1.76-6.8s.93-4.6 1.32-6.92.7-4.72.93-6.88z" fill="#ffb573"/><path d="M298.84 174.16c-3.38.85-5.74 14.74-5.74 14.74l9.3 6.32s8.92-14 6.32-17.71c-2.72-3.87-4.96-4.61-9.88-3.35z" fill="#263238"/><path opacity=".2" d="M299.14 177.26l-2.59 13.99 5.22 3.55-2.63-17.54z"/><path d="M263.14 212.58l-6.31 2.42 7.13 4.3s4.55-2.63 4.43-6l-.7-.4a5.31 5.31 0 00-4.55-.32z" fill="#ffb573"/><path d="M262.67 212.89l-3.12 1.11a17.06 17.06 0 00-1.79.72s2.06.86 3.09.28a17.37 17.37 0 004.67-.28z" opacity=".1"/><path fill="#ffb573" d="M252.9 219.69l5.37 4.47 5.68-4.82-7.12-4.3-3.93 4.65zM317.09 407.88h-8.18l-.55-18.96h8.19l.54 18.96z"/><path d="M308.63 406.93h9.19a.65.65 0 01.66.56l1 7.28a1.31 1.31 0 01-1.31 1.45c-3.2-.05-4.75-.24-8.8-.24-2.48 0-9.63.26-13.07.26s-3.62-3.4-2.19-3.71c6.42-1.38 11-3.28 13.11-5.1a2.18 2.18 0 011.41-.5z" fill="#263238"/><path d="M308.36 388.92l.28 9.78h8.19l-.28-9.78h-8.19z" opacity=".2"/><path d="M298.84 174.16s-3.9 1.37 3.91 49.41H336c-.56-13.53-.57-21.88 5.9-49.65a97.47 97.47 0 00-14.12-1.86 105.58 105.58 0 00-15.1 0c-6.49.59-13.84 2.1-13.84 2.1z" fill="#263238"/><path d="M321.74 187.33a14.8 14.8 0 01-7.71-2.44.24.24 0 01-.06-.34.25.25 0 01.35-.07 14.22 14.22 0 008.27 2.32c1.09-.69 8.63-5.72 9.2-14.43a.25.25 0 01.27-.23.25.25 0 01.23.27c-.58 8.91-8 13.93-9.49 14.84a.21.21 0 01-.11 0c-.32.07-.64.08-.95.08zM307.59 185.79a.2.2 0 01-.13 0 3.16 3.16 0 01-1.22-2.38c-.47-3.05.66-8.38 3-11.14a.25.25 0 01.36 0 .25.25 0 010 .35c-2.22 2.59-3.37 7.8-2.92 10.74a3 3 0 00.93 2 15.55 15.55 0 004-1.27.26.26 0 01.33.13.25.25 0 01-.13.33 15.53 15.53 0 01-4.22 1.24z" fill="#fff"/><path d="M326.28 155.06c-.95 4.85-1.9 13.76 1.5 17 0 0-1.33 4.93-10.36 4.93-9.93 0-4.74-4.93-4.74-4.93 5.41-1.3 5.27-5.32 4.33-9.09z" fill="#ffb573"/><path d="M327.77 172.06a105.58 105.58 0 00-15.1 0l-1 .1c-1.21 2.28-1.51 5.79 1.38 11 0 0 13.24-5.34 16.69-10.92-.64-.1-1.3-.15-1.97-.18z" fill="#ffb573"/><path d="M322.5 158.29L317 163a14.92 14.92 0 01.47 2.68c2.07-.3 4.91-2.57 5.13-4.74a7.17 7.17 0 00-.1-2.65z" opacity=".2"/><path d="M331.52 146.64c-1.85 7.91-2.47 11.3-7.21 14.71-7.12 5.14-16.43 1.14-17-7.17-.5-7.47 2.62-19.16 11-21a11.09 11.09 0 0113.21 13.46z" fill="#ffb573"/><path d="M302.75 223.57s-6.46 63.07-5.92 88c.56 26 10.07 85.19 10.07 85.19H318s-1.75-57.71-.77-83.21c1.07-27.81 9.9-90 9.9-90z" fill="#407bff"/><path d="M302.75 223.57s-6.46 63.07-5.92 88c.56 26 10.07 85.19 10.07 85.19H318s-1.75-57.71-.77-83.21c1.07-27.81 9.9-90 9.9-90z" fill="#fff" opacity=".3"/><path fill="#263238" d="M318.93 397.2h-12.99l-.95-4.14 14.55-.51-.61 4.65z"/><path d="M317.09 239.26c-8.16 16.43-1.64 46.4 1.25 57.55 1.48-16.74 4-37.22 5.93-52.25-1.27-8.5-3.41-12.87-7.18-5.3z" opacity=".2"/><path fill="#ffb573" d="M355.36 407.88h-8.19l-3-18.96h8.18l3.01 18.96z"/><path d="M346.77 406.93H356a.76.76 0 01.72.56l2 7.28a1.14 1.14 0 01-1.13 1.45c-3.21-.05-4.78-.24-8.83-.24-2.49 0-9.6.26-13 .26s-4.06-3.4-2.67-3.71c6.24-1.38 10.52-3.28 12.45-5.1a1.9 1.9 0 011.23-.5z" fill="#263238"/><path d="M344.17 388.92l1.55 9.78h8.19l-1.55-9.78h-8.19z" opacity=".2"/><path d="M312 223.57s6.87 63.07 10.65 88c3.93 26 21.13 85.19 21.13 85.19h11.02s-9.24-57.71-11.57-83.21c-2.54-27.81-6.93-90-6.93-90z" fill="#407bff"/><path d="M312 223.57s6.87 63.07 10.65 88c3.93 26 21.13 85.19 21.13 85.19h11.02s-9.24-57.71-11.57-83.21c-2.54-27.81-6.93-90-6.93-90z" fill="#fff" opacity=".3"/><path fill="#263238" d="M355.81 397.2h-12.99l-1.49-4.14 14.48-.51v4.65z"/><path d="M343.88 408.36a3.36 3.36 0 01-2.05-.5 1.21 1.21 0 01-.47-.95.52.52 0 01.26-.51c.93-.55 4.41 1.11 4.8 1.31a.21.21 0 01.13.2.16.16 0 01-.13.16 13.26 13.26 0 01-2.54.29zm-1.68-1.69a.68.68 0 00-.35.07.2.2 0 00-.1.21.81.81 0 00.3.62c.56.45 1.91.52 3.69.22a11.68 11.68 0 00-3.54-1.12z" fill="#407bff"/><path d="M346.38 408.07h-.08c-1-.45-3.19-2.21-3.16-3.14 0-.22.13-.49.66-.55a1.56 1.56 0 011.11.34 6.3 6.3 0 011.64 3.15.19.19 0 01-.06.18.2.2 0 01-.11.02zm-2.38-3.32h-.11c-.35 0-.36.18-.36.22 0 .56 1.47 1.95 2.54 2.55a5.1 5.1 0 00-1.37-2.52 1.13 1.13 0 00-.7-.25z" fill="#407bff"/><path d="M318.41 146.59c-.11.65-.55 1.12-1 1s-.69-.66-.57-1.31.54-1.12 1-1.05.68.71.57 1.36zM311.05 145.34c-.11.65-.55 1.12-1 1s-.68-.65-.57-1.31.54-1.12 1-1 .68.66.57 1.31z" fill="#263238"/><path d="M310.66 144.1l-1.49-.72s.6 1.36 1.49.72z" fill="#263238"/><path d="M313.12 146.9a17.67 17.67 0 01-3 3.76 2.88 2.88 0 002.25.83z" fill="#ed893e"/><path d="M315.45 154.64a5.56 5.56 0 01-1-.09.19.19 0 01-.16-.22.2.2 0 01.23-.16 5.23 5.23 0 004.54-1.3.19.19 0 01.28 0 .19.19 0 010 .27 5.46 5.46 0 01-3.89 1.5zM335.38 134.32a8.28 8.28 0 00-3.13-1.34c-.91-7.8-7.16-12.76-14.13-11.19-7.9 1.78-10.65 11.58-5.34 14.92a23.35 23.35 0 0010.3 3.35c.14 6.47 4.17 12 7 12.3 8.08-3.22 10.17-14.61 5.3-18.04z" fill="#263238"/><path d="M332.44 154.34a6 6 0 01-3.61 2.75c-2 .51-3-1.3-2.38-3.18.53-1.69 2.23-4 4.24-3.69a2.68 2.68 0 011.75 4.12z" fill="#ffb573"/><path d="M321.62 145.59a.39.39 0 01-.37-.27c-.53-1.71-2.72-2.45-2.74-2.45a.39.39 0 01-.25-.49.38.38 0 01.49-.25c.1 0 2.6.87 3.24 3a.39.39 0 01-.25.49zM309.42 141.56a.4.4 0 01-.34-.19.39.39 0 01.15-.53 3.86 3.86 0 013.53-.24.39.39 0 01-.35.69 3.12 3.12 0 00-2.8.22.34.34 0 01-.19.05z" fill="#263238"/><path d="M345.72 183.45c1 4.71 1.66 9.34 2.22 14.07a132.55 132.55 0 011 14.31v1.18c0 .44-.07.8-.12 1.17-.12.73-.25 1.41-.42 2-.32 1.28-.7 2.47-1.1 3.64-.8 2.33-1.75 4.54-2.71 6.72a141 141 0 01-6.51 12.65l-3.76-1.75 2.23-6.58c.75-2.18 1.47-4.38 2.14-6.57s1.32-4.36 1.88-6.5c.27-1.07.5-2.13.66-3.13.08-.5.14-1 .18-1.4v-.57l-.05-.57c-.18-2.24-.44-4.49-.71-6.75l-.94-6.8c-.69-4.52-1.46-9.1-2.23-13.57z" fill="#ffb573"/><path d="M341.9 173.92c3.33 1 7.33 12.48 7.33 12.48l-12.93 9.24s-4.71-9.57-3.31-13.88c1.46-4.48 5.1-9 8.91-7.84z" fill="#263238"/><path d="M305.55 408.36a3.05 3.05 0 01-2-.5 1.06 1.06 0 01-.35-.95.61.61 0 01.32-.51c1-.55 4.27 1.11 4.64 1.31a.19.19 0 01.1.2.19.19 0 01-.15.16 13.91 13.91 0 01-2.56.29zm-1.46-1.69a.74.74 0 00-.36.07.24.24 0 00-.13.21.72.72 0 00.22.62c.5.45 1.85.52 3.66.22a10.43 10.43 0 00-3.39-1.12z" fill="#407bff"/><path d="M308.09 408.07H308c-1-.45-2.91-2.21-2.75-3.14 0-.22.19-.49.72-.55a1.44 1.44 0 011.08.34c1 .86 1.22 3.06 1.22 3.15a.18.18 0 01-.08.18.2.2 0 01-.1.02zm-1.95-3.32H306c-.35 0-.37.18-.38.22-.09.56 1.22 1.95 2.21 2.55a4.47 4.47 0 00-1-2.52 1 1 0 00-.69-.25z" fill="#407bff"/><path d="M318 145.35l-1.49-.72s.62 1.37 1.49.72z" fill="#263238"/><path d="M336.5 221.62l.85 3c.12.24-.16.47-.54.47h-34.23c-.3 0-.54-.15-.56-.33l-.3-3c0-.21.24-.38.56-.38H336a.61.61 0 01.5.24z" fill="#407bff"/><path d="M332 225.38h.9c.18 0 .31-.09.3-.2l-.42-3.87c0-.11-.17-.21-.35-.21h-.9c-.18 0-.32.1-.31.21l.43 3.87c-.01.11.15.2.35.2z" fill="#407bff"/><path d="M332 225.38h.9c.18 0 .31-.09.3-.2l-.42-3.87c0-.11-.17-.21-.35-.21h-.9c-.18 0-.32.1-.31.21l.43 3.87c-.01.11.15.2.35.2z" fill="#fff" opacity=".3"/><path d="M305.12 225.38h.9c.18 0 .32-.09.31-.2l-.43-3.87c0-.11-.17-.21-.35-.21h-.9c-.18 0-.32.1-.3.21l.42 3.87c.01.11.17.2.35.2z" fill="#407bff"/><path d="M305.12 225.38h.9c.18 0 .32-.09.31-.2l-.43-3.87c0-.11-.17-.21-.35-.21h-.9c-.18 0-.32.1-.3.21l.42 3.87c.01.11.17.2.35.2z" fill="#fff" opacity=".3"/><path d="M318.55 225.38h.9c.18 0 .32-.09.3-.2l-.42-3.87c0-.11-.17-.21-.35-.21h-.9c-.18 0-.32.1-.3.21l.42 3.87c.01.11.17.2.35.2z" fill="#407bff"/><path d="M318.55 225.38h.9c.18 0 .32-.09.3-.2l-.42-3.87c0-.11-.17-.21-.35-.21h-.9c-.18 0-.32.1-.3.21l.42 3.87c.01.11.17.2.35.2z" fill="#fff" opacity=".3"/><path d="M334.47 236.7l-6.35 6.16 8.28.83s3-4.33 1.43-7.35z" fill="#ffb573"/><path fill="#ffb573" d="M327.18 249.68l6.98.32 2.24-6.31-8.28-.83-.94 6.82z"/><g><path d="M165.3 409.11a3.3 3.3 0 002.24-.55.68.68 0 00.1-.76.73.73 0 00-.49-.41c-1.18-.33-4 1.13-4.08 1.2a.19.19 0 00-.11.18.15.15 0 00.12.14 12.68 12.68 0 002.22.2zm1.38-1.42a1.15 1.15 0 01.33 0 .42.42 0 01.3.24c.09.22 0 .33 0 .39-.41.47-2.27.48-3.61.29a8.94 8.94 0 012.98-.92z" fill="#407bff"/><path d="M163.11 408.91h.08c.94-.4 2.93-2 2.92-2.82 0-.2-.11-.44-.58-.49a1.48 1.48 0 00-1 .3 5.88 5.88 0 00-1.55 2.83.14.14 0 00.05.16.14.14 0 00.08.02zm2.23-3h.11c.3 0 .31.15.31.19 0 .5-1.37 1.75-2.36 2.29a4.91 4.91 0 011.3-2.26 1.09 1.09 0 01.64-.2z" fill="#407bff"/><path fill="#b55b52" d="M155.06 408.74h7.35l3.23-17.02h-7.35l-3.23 17.02z"/><path d="M162.48 407.89h-8a.78.78 0 00-.7.5l-2.41 6.53a.91.91 0 00.86 1.3c2.91 0 7.11-.21 10.75-.21 4.25 0 3.86.23 8.85.23 3 0 4.3-3.05 3.08-3.33-5.56-1.25-6.21-1.39-10.72-4.45a3 3 0 00-1.71-.57z" fill="#263238"/><path opacity=".2" d="M165.64 391.73l-1.67 8.77h-7.35l1.67-8.77h7.35z"/><path d="M166.19 225.45l4.81 5.05-7.76 2.71s-2.82-4.12-.65-6.94z" fill="#b55b52"/><path fill="#b55b52" d="M172.44 237.56l-7.68 1.12-1.52-5.47 7.76-2.71 1.44 7.06z"/><path d="M137.36 267.36l37.48 1.64a3.82 3.82 0 003.79-3l4.48-22.9a2.66 2.66 0 00-2.55-3.28l-37.48-1.65a3.82 3.82 0 00-3.78 3l-4.49 22.9a2.66 2.66 0 002.55 3.29z" fill="#263238"/><path d="M139.93 274.4l46.3 2a4.1 4.1 0 004.24-3.73l2.45-28.42a3.71 3.71 0 00-3.57-4.07l-46.29-2a4.13 4.13 0 00-4.25 3.73l-2.45 28.42a3.72 3.72 0 003.57 4.07z" fill="#407bff"/><path d="M139.93 274.4l46.3 2a4.1 4.1 0 004.24-3.73l2.45-28.42a3.71 3.71 0 00-3.57-4.07l-46.29-2a4.13 4.13 0 00-4.25 3.73l-2.45 28.42a3.72 3.72 0 003.57 4.07z" opacity=".2"/><path d="M173.9 247.71h-.12l-13.44-.59a2.57 2.57 0 01-2.47-2.81l.53-6.13a5 5 0 015.11-4.48l9 .39a4.8 4.8 0 014.59 5.23l-.51 5.94a2.72 2.72 0 01-2.69 2.45zm-13-3.58l12.71.56.49-5.64a1.8 1.8 0 00-1.73-2l-9-.4a2 2 0 00-2 1.75z" fill="#407bff"/><path d="M191.18 276.65l-46.29-2a4.25 4.25 0 01-4-4.1l-.62-28.55a3.61 3.61 0 013.82-3.75l46.3 2a4.24 4.24 0 014 4.1l.61 28.55a3.62 3.62 0 01-3.82 3.75zM177.47 169.52c-.49 1-1.07 2.14-1.59 3.23s-1 2.25-1.55 3.38c-1 2.27-2 4.55-2.86 6.84s-1.66 4.6-2.37 6.89c-.33 1.15-.67 2.29-.92 3.42-.15.57-.28 1.14-.38 1.69l-.16.84c-.06.29-.12.58-.14.78 0 .44-.12.84-.14 1.43s-.07 1.07-.07 1.68v3.63c.05 2.49.2 5 .35 7.58.29 5.11.72 10.3 1.12 15.42l-9.16 1.48c-1.24-5.21-2.22-10.37-3.1-15.66-.42-2.64-.78-5.3-1.08-8-.14-1.38-.28-2.75-.35-4.2-.06-.69-.07-1.47-.08-2.23s0-1.62.09-2.48a11.48 11.48 0 01.12-1.17l.14-1.1c.08-.74.19-1.46.32-2.16.24-1.44.54-2.83.84-4.22.65-2.75 1.39-5.46 2.27-8.08s1.81-5.22 2.85-7.76c.52-1.27 1-2.53 1.62-3.79s1.11-2.46 1.8-3.84z" fill="#407bff"/><path d="M197.51 221.87s-7.07 54.93-11.16 77.33c-4.26 23.3-19.35 99.6-19.35 99.6h-12.49s6.34-74.94 9.15-97.82c3.07-25 8-79.11 8-79.11z" fill="#263238"/><path d="M170.08 393.84c.06 0-1.46 5.17-1.46 5.17h-15.14l.27-4.61z" fill="#407bff"/><path d="M203.53 130.65c0 .62.33 1.13.74 1.13s.73-.51.73-1.13-.33-1.12-.73-1.12-.74.47-.74 1.12z" fill="#263238"/><path d="M203.8 131.78a22.28 22.28 0 003 5.32 3.6 3.6 0 01-3 .56z" fill="#a02724"/><path d="M201.33 127.2a.39.39 0 00.21-.06 2.88 2.88 0 012.6-.48.37.37 0 00.47-.21.36.36 0 00-.21-.47 3.61 3.61 0 00-3.29.56.37.37 0 00-.08.51.36.36 0 00.3.15z" fill="#263238"/><path d="M183.84 137.52c1 5.38 2.1 15.23-1.66 18.81 0 0 1.47 5.45 11.46 5.45 11 0 5.24-5.45 5.24-5.45-6-1.43-5.83-5.87-4.79-10.05z" fill="#b55b52"/><path d="M180.74 158.2c-.78-1.72-1.65-3.7.14-4.32 2-.68 12.77-1.37 16.49-.09a3.85 3.85 0 012.67 4.78z" fill="#263238"/><path d="M167.71 158.44c-6.43 2.92-10.43 25.06-10.43 25.06l12.61 4a133.92 133.92 0 006.16-18c2.29-9.24-1.76-14.04-8.34-11.06z" fill="#407bff"/><path d="M246 213.26h7.76l-1.36 9.28s-6.08-.22-8.84-4.8z" fill="#b55b52"/><path fill="#b55b52" d="M261.06 216.49l-3.9 7.17-4.8-1.1 1.36-9.28 7.34 3.21zM182.78 129.33c.47 7.64.36 12.14 4.22 16.06 5.8 5.9 15.23 2.4 17.05-5.23 1.65-6.86.6-18.2-6.88-21.24a10.44 10.44 0 00-14.39 10.41z"/><path d="M181.9 139.72s-6.92-10.38-5.42-17.15c1.37-6.19 15.34-8.4 21.14-7.78 6.16.67 8.56 3.32 5.18 8.66a28.62 28.62 0 01-6.25 2.12s3.43 4.21 3.46 7c-1 .52-4.09 1.76-4.09 1.76s-4.38 10.81-4.51 10.79c-1.69-.2-5.6-.26-7 .27a37.46 37.46 0 01-2.51-5.67z" fill="#263238"/><path d="M192.89 133.21a8.68 8.68 0 003.1 4.59c2 1.5 3.49.08 3.34-2.17-.13-2-1.33-5.23-3.53-5.86s-3.49 1.23-2.91 3.44z" fill="#b55b52"/><path d="M192.21 242.4c-9.83 2.28-8 37.84-6.11 58.11.09-.46.16-.89.24-1.31 2.44-13.34 5.93-38.2 8.36-56.14a4.92 4.92 0 00-2.49-.66z" opacity=".3"/><path d="M201.72 409.11c.94 0 1.85-.13 2.16-.55a.65.65 0 000-.76.87.87 0 00-.55-.41c-1.22-.33-3.79 1.13-3.9 1.2a.17.17 0 00-.08.18.18.18 0 00.14.14 13.29 13.29 0 002.23.2zm1.17-1.42a1.15 1.15 0 01.33 0 .51.51 0 01.34.24c.13.22.08.33 0 .39-.34.47-2.2.48-3.57.29a7.87 7.87 0 012.9-.92z" fill="#407bff"/><path d="M199.5 408.91h.07c.89-.4 2.65-2 2.51-2.82 0-.2-.17-.44-.65-.49a1.3 1.3 0 00-1 .3c-.94.77-1.13 2.75-1.14 2.83a.17.17 0 00.07.16.19.19 0 00.14.02zm1.79-3h.11c.31 0 .33.15.34.19.08.5-1.12 1.75-2 2.29a4.08 4.08 0 011-2.26.92.92 0 01.55-.2z" fill="#407bff"/><path fill="#b55b52" d="M191.42 408.74h7.35l.73-17.02h-7.34l-.74 17.02z"/><path d="M198.72 407.89h-8a.65.65 0 00-.63.5l-1.45 6.53a1.07 1.07 0 001.06 1.3c2.89 0 7.07-.21 10.71-.21 4.26 0 7.93.23 12.92.23 3 0 3.85-3.05 2.59-3.33-5.75-1.25-10.44-1.39-15.41-4.45a3.41 3.41 0 00-1.79-.57z" fill="#263238"/><path opacity=".2" d="M199.5 391.73l-.38 8.77h-7.35l.38-8.77h7.35z"/><path d="M210.62 221.87s1 54.93.21 77.33c-.83 23.3-9 99.6-9 99.6h-12.41s-.46-74.94-1-97.82c-.61-25-3.62-79.11-3.62-79.11z" fill="#263238"/><path d="M204.26 393.84c.05 0-.71 5.17-.71 5.17h-15.13l-.42-4.61zM210.18 158.37s8.82 13.44 1.43 68.11h-41.5c-.27-6 4.74-40.07-1.08-68.49a102.56 102.56 0 0113.15-1.66 145.27 145.27 0 0116.7 0 73.5 73.5 0 0111.3 2.04z" fill="#407bff"/><path d="M214.56 186.34l-8.7-14.42s3.27 20.44 8.28 29.66c.34-5.77.46-10.83.42-15.24z" opacity=".2"/><path d="M218.27 168.89c1.43 4.57 3 9.25 4.61 13.83s3.29 9.13 5.13 13.5l.7 1.62a3.57 3.57 0 01.16.37 2.38 2.38 0 00.14.27 10.69 10.69 0 001.54 1.82 39.53 39.53 0 005.07 4c1.88 1.3 3.87 2.56 5.92 3.75s4.17 2.41 6.19 3.46l-3.89 9.08a103 103 0 01-14.29-6.52 51.92 51.92 0 01-7-4.69 22.7 22.7 0 01-3.55-3.58c-.3-.43-.59-.81-.88-1.29s-.61-1.08-.7-1.28l-.88-1.75c-2.29-4.66-4.34-9.32-6.23-14s-3.65-9.39-5.34-14.26z" fill="#407bff"/><path d="M200.38 161.69c-2.57 6.54 13.06 32.87 13.06 32.87l10.17-9.73s-2.22-8.27-5.18-18.23c-2.92-9.79-15.6-11.16-18.05-4.91z" fill="#407bff"/></g></svg>