<svg xmlns="http://www.w3.org/2000/svg" viewBox="0 0 500 500"><path d="M351.88 261.66c-11.29-19.45-11.17-44.31-18.43-65.3s-18.31-41.9-33-58.43c-36-40.45-77.93-25.6-121.81-16.47-34.89 7.27-93.88-6.47-110.08 33.77-16.44 40.77 9.73 98.29 27.21 135.58 16.15 34.47 45.28 93.53 87.68 96.29 48.39 3.14 59.32-74.79 106.28-42.92 37.52 25.46 90.16 46.43 119.79 3.17 31.42-45.87-39-53.59-57.64-85.69z" fill="#6b62ff"/><path d="M351.88 261.66c-11.29-19.45-11.17-44.31-18.43-65.3s-18.31-41.9-33-58.43c-36-40.45-77.93-25.6-121.81-16.47-34.89 7.27-93.88-6.47-110.08 33.77-16.44 40.77 9.73 98.29 27.21 135.58 16.15 34.47 45.28 93.53 87.68 96.29 48.39 3.14 59.32-74.79 106.28-42.92 37.52 25.46 90.16 46.43 119.79 3.17 31.42-45.87-39-53.59-57.64-85.69z" fill="#fff" opacity=".9"/><ellipse cx="250" cy="416.24" rx="193.89" ry="11.32" fill="#f5f5f5"/><g fill="#6b62ff"><path d="M112.3 140h-1v-6.56h1zm0-13h-1v-22.33h1zM385.2 361.27H114.8V90.87h270.4zm-264.84-5.57h259.28V96.43H120.36z"/></g><path d="M338.08 156.39c2.81-5.06 9.47-11.89 16.19-6.39 9.68 7.92-4.44 14.66-11.77 14.19-4.89-4.91-4.42-7.8-4.42-7.8z" fill="#263238"/><path d="M342.5 165.08a.25.25 0 01-.24-.18.25.25 0 01.17-.31l2.35-.61c5.24-1.32 13.16-3.33 13.93-6.8.32-1.45-.64-3.11-2.86-4.92a.25.25 0 01.32-.39c2.38 1.95 3.4 3.77 3 5.42-.84 3.77-8.62 5.74-14.29 7.18l-2.35.6z" fill="#263238"/><path d="M337.52 157c-.23-2.61 1.59-5.19 3-4.92 5.62 1.12 9.43 7.8 9.45 11.23 0 1.62-3.92 3.36-5.76 2.27s-6.44-5.77-6.69-8.58z" fill="#6b62ff"/><path d="M336.3 154.92c-8.83-3.92-23.25-1.42-20.41 10.33 13.5 12.5 15.87 17.76 15.87 17.76s10.55-4.31 13.47-11.32-1.93-18.02-8.93-16.77z" fill="#263238"/><path d="M303.2 243.51c-6.52 3.46-5.82 12.44-2.86 15.93 0 0-6.32 13.79 10.17 9.23s-.05-29.01-7.31-25.16z" fill="#6b62ff"/><path d="M303.2 243.51c-6.52 3.46-5.82 12.44-2.86 15.93 0 0-6.32 13.79 10.17 9.23s-.05-29.01-7.31-25.16z" fill="#fff" opacity=".6"/><path d="M323.72 386.67a145.77 145.77 0 012.17 15.41s6.16 2.34 8.25 0a124.81 124.81 0 001.41-15.41zM369.38 386.23c3.34 4.13 8.55 13 8.55 13s6.57-.52 7.46-3.52a123.45 123.45 0 00-5.31-14.55z" fill="#7f3e3b"/><path d="M314.73 412.6c8.45 0 11-8.06 10.28-11.81 2.5-.79 10.18-.73 10.18-.73-1.43 8.75-.08 9 .51 11.23s.45 4.76-1.42 4.81c-2.23 0-3.27-.38-6-.27-3.25.13-6.76.26-12.53.27-2.36 0-4.16-3.5-1.02-3.5z" fill="#6b62ff"/><path d="M304.44 247.8s1.26 41 7.23 71.89c1.24 22.83 9.24 62.3 11.25 71.91a3.13 3.13 0 002.77 2.48 43.49 43.49 0 007.82 0 3.12 3.12 0 002.81-2.72 282.35 282.35 0 00-1.5-72.14c4.57-44 3-71.45 3-71.45z" fill="#263238"/><path d="M338 268.2c-.21 12.31-1 29.73-3.19 51 .46 3.16.83 6.32 1.11 9.45-15.27-25.27-18.92-65.26 2.08-60.45z" opacity=".2"/><path d="M388.19 398.94c-1.47-1.79-1.49-2.2-3.52-7.45 0 0-9.89 5.64-8.86 7 3.12 4 3.39 8.5-1.2 15-1.95 2.77.85 2.95 3.24 2.27 4-1.14 5.22-3.25 7-6.27 1.49-2.6 1.73-3.16 3.89-4.23 2.32-1.15.92-4.52-.55-6.32z" fill="#6b62ff"/><path d="M316.6 247.8s13.56 57 22.11 81.32c7.85 22.35 26.75 52.22 32 60.49a3.11 3.11 0 003.93 1.18 34.9 34.9 0 006.39-3.91 3.12 3.12 0 001.12-3.27c-2-7.61-10-36.78-19.74-60.7-4.3-57.92-18.87-75.11-18.87-75.11z" fill="#263238"/><path d="M286.29 183.49l1.23-3.16a7.09 7.09 0 00.4-3.62l-.35-2.31a3.2 3.2 0 00-3.06-2.71l-2.33-.08a3.2 3.2 0 00-3.29 3.14v2s-.77 5.46 1.38 9.3l1.24-.05a6 6 0 004.78-2.51z" fill="#7f3e3b"/><path d="M315.86 209.37l-1 .66-.86.55c-.57.36-1.15.68-1.73 1-1.15.64-2.34 1.2-3.55 1.73a40.28 40.28 0 01-7.68 2.46 31.61 31.61 0 01-8.49.66 25.17 25.17 0 01-4.43-.64c-.74-.18-1.47-.38-2.2-.63-.36-.12-.72-.25-1.08-.4l-.53-.21-.27-.11-.13-.05-.4-.18a8.47 8.47 0 01-2.5-1.79 8.89 8.89 0 01-1.35-1.75 12.13 12.13 0 01-1.25-2.81 24.3 24.3 0 01-.86-4.39 50.45 50.45 0 01-.12-7.54 79.51 79.51 0 012.06-14 3.52 3.52 0 016.92.41v.12c.51 4.39.92 8.87 1.55 13.09a51.91 51.91 0 001.15 6 10.9 10.9 0 00.79 2.19c.12.23.25.36.21.24s-.26-.64-1.42-1.24l-.21-.09h.2l.27.06a4.71 4.71 0 00.54.12 10 10 0 001.1.16 15.88 15.88 0 002.3.08 22.66 22.66 0 005-.81 37.48 37.48 0 005.16-1.89c.86-.38 1.71-.81 2.55-1.24l1.23-.67 1-.59.6-.34a7 7 0 017.41 11.86z" fill="#7f3e3b"/><path d="M302.84 207.88c.15 3.34-5.12 11.05 1.38 15.52-1.21 2.71-2.24 21.11.22 24.4 3.59 2.64 23 2.13 39.1 0 .68-6.65-3-20.43 1.5-41.93a8.57 8.57 0 00-7.53-10.28c-1.35-.13-2.78-.25-4.25-.32a109.81 109.81 0 00-15.4 0c-1.66.16-3.38.37-5 .6a11.64 11.64 0 00-10.02 12.01z" fill="#6b62ff"/><path d="M316.67 201.71c-1.23.27-2.5.72-2.69 1.35-1.73-4.17-.63-6.85 1.9-7.79a27.92 27.92 0 013.18-.42s-4.06 2.59-2.39 6.86zM317 201.78c2.31-.09 5.08.66 5.54 2.09 4.31-2.45 11.64-6.73 13.25-8.6a6.24 6.24 0 00-3.23-1c-3.87.6-11.79 4.42-15.56 7.51zM302.72 250.6h-.06a.42.42 0 01-.37-.49c3.3-23 24.84-48.34 35-54.87a.43.43 0 11.47.73c-10 6.46-31.34 31.47-34.6 54.27a.44.44 0 01-.44.36z" fill="#fff"/><path d="M333.73 177.94c-1.23 4.95-2.42 13-.47 17.33 0 0-7.31.33-16.66 7.79-4.4-6.46.69-7.73.69-7.73 3.89-.91 4.5-5.64 4.5-9.32z" fill="#7f3e3b"/><path d="M321.78 186l6.8-4.59a6 6 0 01-.61 3 12.89 12.89 0 01-6.57 5.89 21.12 21.12 0 00.38-4.3z" opacity=".2"/><path d="M337.85 170.62c-2.84 7.78-3.88 11.14-9 14-7.73 4.36-16.48-.78-16-9.24.45-7.62 5-19.07 13.56-20s14.27 7.45 11.44 15.24z" fill="#7f3e3b"/><path d="M320.86 156.19c-5.55 5.91 1 9.16 6.28 9.37-2.6-2-2-3.45-2-3.45s8.93 6.47 5.13 11.7c8.63.33 15.05-6.21 9.16-15-3.08-4.62-14.49-6.96-18.57-2.62z" fill="#263238"/><path d="M334.38 170.33c-1.69 2.66-3.56 5-4.34 5.53 5.22.83 7.87-1.55 8.53-3.22s-2.9-4.33-4.19-2.31z" fill="#263238"/><path d="M318.11 170.13a17.79 17.79 0 01-3.53 3.44 2.88 2.88 0 002.17 1.11z" fill="#630f0f"/><path d="M321.05 179.14a6.1 6.1 0 01-1.11-.23.2.2 0 01-.13-.24.2.2 0 01.25-.14 5.33 5.33 0 004.76-.75.2.2 0 01.26.3 5.56 5.56 0 01-4.03 1.06z" fill="#263238"/><path d="M336.75 178.39a5.33 5.33 0 01-4 1.85c-1.9 0-2.19-2.24-1.11-4.05 1-1.62 3.15-3.56 4.8-2.65s1.64 3.36.31 4.85z" fill="#7f3e3b"/><path d="M326.84 169.46a.4.4 0 01-.21-.23 3.12 3.12 0 00-2-2 .4.4 0 01-.29-.48.39.39 0 01.47-.29 3.9 3.9 0 012.59 2.51.4.4 0 01-.23.51.44.44 0 01-.33-.02zM322 170a.27.27 0 01.19.11 2.25 2.25 0 001.8.92.29.29 0 01.3.25.28.28 0 01-.26.3 2.74 2.74 0 01-2.28-1.13.3.3 0 01.05-.4.29.29 0 01.2-.05zM314.19 168a.27.27 0 01.21.06 2.22 2.22 0 001.94.56.28.28 0 01.34.19.29.29 0 01-.19.35 2.8 2.8 0 01-2.46-.68.27.27 0 010-.39.25.25 0 01.16-.09zM314.89 164.84a.41.41 0 01-.23-.18.39.39 0 01.14-.54 3.94 3.94 0 013.6-.3.41.41 0 01.18.53.39.39 0 01-.53.18 3.15 3.15 0 00-2.85.27.38.38 0 01-.31.04z" fill="#263238"/><path d="M344.26 210a105.07 105.07 0 00-1.42 13.82c-3.71-5.14-7.92-14.46-7.68-18.81z" opacity=".2"/><path d="M321.35 224.08l-3.35-4.49-6.15 6.82s4.09 3.68 8.38 4.05l.61-1a6 6 0 00.51-5.38zM311.85 219.27L310 221.9a2.67 2.67 0 00.66 3.69l1.17.82 6.15-6.82-2.92-1.26a2.65 2.65 0 00-3.21.94z" fill="#7f3e3b"/><path d="M345.38 201.27c.32.79.55 1.38.81 2s.47 1.32.69 2c.45 1.32.84 2.64 1.21 4a69 69 0 011.78 8.25c.21 1.42.38 2.86.49 4.33s.14 3 .09 4.55a26.1 26.1 0 01-2.15 10l-.1.24a6 6 0 01-1.2 1.76 9.36 9.36 0 01-4.06 2.29 11.32 11.32 0 01-3.23.36 17.54 17.54 0 01-4.48-.81 35 35 0 01-6.58-2.89 59.2 59.2 0 01-5.59-3.57 57.68 57.68 0 01-5.12-4.09 3.53 3.53 0 013.57-5.94l.12.05 5.64 2c1.87.66 3.73 1.29 5.55 1.82a31.08 31.08 0 005.1 1.15 4.78 4.78 0 001.64 0c.11-.05.09-.11-.18-.06a2.8 2.8 0 00-1.4.77l-1.32 2a16.83 16.83 0 00.42-5.1 47.18 47.18 0 00-.88-6.47c-.48-2.24-1-4.52-1.71-6.79-.32-1.14-.68-2.27-1-3.4l-.55-1.69-.53-1.57-.1-.27a7 7 0 0113.13-4.92z" fill="#7f3e3b"/><g><path d="M128.48 185.42c-2.95-.43-10.79-5.5-12-13.43s5.91-14.43 8.57-13.44c5-4 10.46 2.15 11.56 8 1.24 6.84-1.91 13.27-8.13 18.87z" fill="#6b62ff"/><path d="M128.48 185.42c-2.95-.43-10.79-5.5-12-13.43s5.91-14.43 8.57-13.44c5-4 10.46 2.15 11.56 8 1.24 6.84-1.91 13.27-8.13 18.87z" fill="#fff" opacity=".6"/><path d="M140.63 193.45c-1.48-1.59-3.62-8-.72-13.12s9.92-5.5 11-3.73c4.63 0 4.95 6 2.91 9.82-2.39 4.46-7.11 6.68-13.19 7.03z" fill="#6b62ff"/><path d="M140.63 193.45c-1.48-1.59-3.62-8-.72-13.12s9.92-5.5 11-3.73c4.63 0 4.95 6 2.91 9.82-2.39 4.46-7.11 6.68-13.19 7.03z" fill="#fff" opacity=".8"/><path d="M125.94 193.5c-1.34 1.09-6.57 2.48-10.47-.08-4.74-3.12-5.48-7.34-2.42-8.92.25-3.69 5-3.65 8-1.83 3.38 2.11 4.95 5.97 4.89 10.83z" fill="#6b62ff"/><path d="M125.94 193.5c-1.34 1.09-6.57 2.48-10.47-.08-4.74-3.12-5.48-7.34-2.42-8.92.25-3.69 5-3.65 8-1.83 3.38 2.11 4.95 5.97 4.89 10.83z" fill="#fff" opacity=".4"/><path d="M166.19 246.37a.36.36 0 01-.26-.11c-8-7.38-38.33-41.7-40.17-74.8a.39.39 0 01.37-.41.38.38 0 01.4.37c1.83 32.83 31.95 66.94 39.92 74.27a.38.38 0 010 .55.39.39 0 01-.26.13z" fill="#6b62ff"/><path d="M132 196.19h-.05a18.71 18.71 0 01-10.59-5.86.39.39 0 01.59-.5 18.21 18.21 0 0010.05 5.59.39.39 0 01.33.44.4.4 0 01-.33.33zM134.55 213.79c-1.31 1.8-8.29 6-14 4.1-6.94-2.36-8.34-8.21-5-11.18-1.22-6.51 6.16-7.47 10.61-5.14 4.58 2.43 6.84 6.14 8.39 12.22z" fill="#6b62ff"/><path d="M134.55 213.79c-1.31 1.8-8.29 6-14 4.1-6.94-2.36-8.34-8.21-5-11.18-1.22-6.51 6.16-7.47 10.61-5.14 4.58 2.43 6.84 6.14 8.39 12.22z" fill="#fff" opacity=".7"/><path d="M139.28 214.73a25.91 25.91 0 01-12.4-3.31.39.39 0 01-.13-.53.37.37 0 01.53-.13 25.37 25.37 0 0013.92 3.11.4.4 0 01.42.35.39.39 0 01-.35.43c-.67.06-1.34.08-1.99.08zM153.83 239.63c-1.3 2.24-8.87 8-15.69 6.43-8.31-1.9-10.63-8.5-7.16-12.34-2.19-7.38 6.23-9.37 11.66-7.21 5.61 2.24 8.68 6.27 11.19 13.12z" fill="#6b62ff"/><path d="M153.83 239.63c-1.3 2.24-8.87 8-15.69 6.43-8.31-1.9-10.63-8.5-7.16-12.34-2.19-7.38 6.23-9.37 11.66-7.21 5.61 2.24 8.68 6.27 11.19 13.12z" fill="#fff" opacity=".6"/><path d="M158 240.05a47.41 47.41 0 01-20.64-4.78.39.39 0 01.37-.68 46.79 46.79 0 0022.27 4.63.38.38 0 01.4.37.39.39 0 01-.37.41c-.69 0-1.39.05-2.03.05zM155.18 223.88c3.06-.23 13.07-5.32 14.93-13.37 2.28-9.83-3.54-15.7-9.42-14-6.72-6.15-13.18 1.78-13.68 8.68-.52 7.14 2.18 12.49 8.17 18.69z" fill="#6b62ff"/><path d="M155.18 223.88c3.06-.23 13.07-5.32 14.93-13.37 2.28-9.83-3.54-15.7-9.42-14-6.72-6.15-13.18 1.78-13.68 8.68-.52 7.14 2.18 12.49 8.17 18.69z" fill="#fff" opacity=".4"/><path d="M151.69 229.84a.37.37 0 01-.24-.08.37.37 0 01-.06-.54c6.45-8.29 6.82-18.76 6.82-18.86a.38.38 0 01.4-.38.4.4 0 01.38.4c0 .11-.38 10.82-7 19.32a.41.41 0 01-.3.14zM138.16 209.2a.4.4 0 01-.38-.32c-.9-5.37 1.22-15.6 7-24.77a.38.38 0 01.53-.12.37.37 0 01.12.53c-6.37 10.07-7.62 20-6.91 24.23a.39.39 0 01-.32.44zM239.72 206.71c-13.71-17.94 21.71-44.09 65.89-28.31-12.71 28.6-52.44 72.71-65.89 28.31z" fill="#6b62ff"/><path d="M239.72 206.71c-13.71-17.94 21.71-44.09 65.89-28.31-12.71 28.6-52.44 72.71-65.89 28.31z" opacity=".2"/><path d="M168 259.28c3.88 14.76-66.18 28.89-77.15 49.57C111 264.37 159.27 226.1 168 259.28z" fill="#6b62ff"/><path d="M168 259.28c3.88 14.76-66.18 28.89-77.15 49.57C111 264.37 159.27 226.1 168 259.28z" opacity=".3"/><path d="M107 274.13c-.86 7.35-2.7 13 4.18 11.75s10.77-13.74 8.71-16.1c7.95-1.09 14-11.92 11.16-17.53s-7.07.91-7.07.91-.44-8.11-6.41-10.08-6.1 6.08-6.23 10c-7 4.06-16.34 18.29-10.78 22.77s6.44-1.72 6.44-1.72z" fill="#6b62ff"/><path d="M107 274.13c-.86 7.35-2.7 13 4.18 11.75s10.77-13.74 8.71-16.1c7.95-1.09 14-11.92 11.16-17.53s-7.07.91-7.07.91-.44-8.11-6.41-10.08-6.1 6.08-6.23 10c-7 4.06-16.34 18.29-10.78 22.77s6.44-1.72 6.44-1.72z" fill="#fff" opacity=".7"/><path d="M103.3 276.76c-6.82 8.43-2.34 11.5 5.46 7.69s6.9-7.8 6.9-7.8 7 5.68 11.38-7.26-3.89-9-3.89-9 10.37-9 1.75-15-11.66 9.3-11.66 9.3-2.24 12.54-9.94 22.07z" fill="#6b62ff"/><path d="M103.3 276.76c-6.82 8.43-2.34 11.5 5.46 7.69s6.9-7.8 6.9-7.8 7 5.68 11.38-7.26-3.89-9-3.89-9 10.37-9 1.75-15-11.66 9.3-11.66 9.3-2.24 12.54-9.94 22.07z" fill="#fff" opacity=".8"/><path d="M107.44 278.15c-6.15 2.77-20.14 0-14.59-8.11-1.56-6.39 6.41-28.49 11.06-21.48 2.48-5.55 9-5.4 11.31-2.15 4-1.37 6.66 7.21 3.38 18.33-2.25 7.59-9.14 12.5-11.16 13.41z" fill="#6b62ff"/><path d="M107.44 278.15c-6.15 2.77-20.14 0-14.59-8.11-1.56-6.39 6.41-28.49 11.06-21.48 2.48-5.55 9-5.4 11.31-2.15 4-1.37 6.66 7.21 3.38 18.33-2.25 7.59-9.14 12.5-11.16 13.41z" fill="#fff" opacity=".6"/><path d="M109.68 257.63c-7.08.8-12.45 1.33-11.53-2.41s4.58-9.41 8.6-9.4 7.25 4.8 6.76 6.61-3.83 5.2-3.83 5.2z" fill="#6b62ff"/><path d="M109.68 257.63c-7.08.8-12.45 1.33-11.53-2.41s4.58-9.41 8.6-9.4 7.25 4.8 6.76 6.61-3.83 5.2-3.83 5.2z" fill="#fff" opacity=".5"/><path d="M107 261c-5.2-4.62-9.19-8.07-10.79-4.55s-2.19 10.15 1 12.41 8.84.22 9.58-1.51.21-6.35.21-6.35z" fill="#6b62ff"/><path d="M107 261c-5.2-4.62-9.19-8.07-10.79-4.55s-2.19 10.15 1 12.41 8.84.22 9.58-1.51.21-6.35.21-6.35z" fill="#fff" opacity=".7"/><path d="M104.51 268.89c-5.85-1-7.84-6.76-6-11.16s9.58-11.85 12.76-5.54.04 17.81-6.76 16.7z" fill="#6b62ff"/><path d="M104.51 268.89c-5.85-1-7.84-6.76-6-11.16s9.58-11.85 12.76-5.54.04 17.81-6.76 16.7z" fill="#fff" opacity=".3"/><path d="M104.16 255.31c-2.74.14-5.29 3.55-5.41 6.23-.13 3.19 2.4 3.9 4.22 3.1-2 .19-4.26-1.17-2.86-4.3a13.68 13.68 0 014.05-5.03z" fill="#6b62ff" opacity=".5"/><path d="M104.82 261.64c1.05-2.53-1.27-3.94-2.6-3.27 1.81-1.18 5.32-1.42 5.65.3.75 3.95-3.05 2.97-3.05 2.97z" fill="#6b62ff" opacity=".3"/><path d="M108.12 276.54c-8.91.22-15.68.29-14.14-4.34s6.71-11.4 11.73-10.94 8.54 6.89 7.75 9.13-5.34 6.15-5.34 6.15z" fill="#6b62ff"/><path d="M108.12 276.54c-8.91.22-15.68.29-14.14-4.34s6.71-11.4 11.73-10.94 8.54 6.89 7.75 9.13-5.34 6.15-5.34 6.15z" fill="#fff" opacity=".8"/><path d="M108.35 257.2c.13-4.29-5.21-3.26-6.8-1.6 2-2.67 7.2-4.88 8.54-2.42 1.53 2.82-1.74 4.02-1.74 4.02z" fill="#6b62ff"/><path d="M118.05 248.47c-4.78-5.38-8.44-9.42-9.88-6.24s-1.94 9.59 1 12.34 8.06 1.67 8.73.1.15-6.2.15-6.2z" fill="#6b62ff"/><path d="M118.05 248.47c-4.78-5.38-8.44-9.42-9.88-6.24s-1.94 9.59 1 12.34 8.06 1.67 8.73.1.15-6.2.15-6.2z" fill="#fff" opacity=".8"/><path d="M116.4 265.48c-2.9 3.38-8.34 3.28-9.51-.47s1-14.57 3.78-14c5 1.07 7.81 5.17 7.61 8.41a14.9 14.9 0 01-1.88 6.06z" fill="#6b62ff"/><path d="M116.4 265.48c-2.9 3.38-8.34 3.28-9.51-.47s1-14.57 3.78-14c5 1.07 7.81 5.17 7.61 8.41a14.9 14.9 0 01-1.88 6.06z" fill="#fff" opacity=".5"/><path d="M116.6 251.7a3.74 3.74 0 00-2.45-.69c2.71 1.28 1.33 12 1.33 12s-2.22-5.66-6-6.13c4.79 2.65 3 10.67 2.89 13.67-1.78 1.49-5.88 1.66-8.6-.34 0 0 .44 2.95 4.34 4.64-2.69.77-4 3.57-10.92 5.72 2.25-.05 9.07.91 14.3-4.14 11.6-11.2 10.85-21.7 9.66-25-1.48-4.09-3.61-4.46-6.59-9.51-.98 3.31.63 7.78 2.04 9.78z" fill="#6b62ff"/><path d="M116.6 251.7a3.74 3.74 0 00-2.45-.69c2.71 1.28 1.33 12 1.33 12s-2.22-5.66-6-6.13c4.79 2.65 3 10.67 2.89 13.67-1.78 1.49-5.88 1.66-8.6-.34 0 0 .44 2.95 4.34 4.64-2.69.77-4 3.57-10.92 5.72 2.25-.05 9.07.91 14.3-4.14 11.6-11.2 10.85-21.7 9.66-25-1.48-4.09-3.61-4.46-6.59-9.51-.98 3.31.63 7.78 2.04 9.78z" fill="#fff" opacity=".4"/><path d="M268.84 351.3c-11.4 17.18-107.48.42-90.79 25.49-37.65-51.94 116.43-64.13 90.79-25.49z" fill="#6b62ff"/><path d="M268.84 351.3c-11.4 17.18-107.48.42-90.79 25.49-37.65-51.94 116.43-64.13 90.79-25.49z" opacity=".3"/><path d="M251.38 201.8c12.13 4.56 30.17-53.38 48.6-60.84-39.33 13.12-75.86 50.58-48.6 60.84z" fill="#6b62ff"/><path d="M251.38 201.8c12.13 4.56 30.17-53.38 48.6-60.84-39.33 13.12-75.86 50.58-48.6 60.84z" opacity=".4"/><path d="M258.47 173.48c-10 4.86-14.52-33.62-27.43-36.39C259 141 281 162.55 258.47 173.48z" fill="#6b62ff"/><path d="M258.47 173.48c-10 4.86-14.52-33.62-27.43-36.39C259 141 281 162.55 258.47 173.48z" opacity=".2"/><path d="M181.73 258.85c-19.78-.09-30.21 10.86-54.34 5.7-19.32-4.12-25.12-17.45-41.56-15.37 18.8-14.5 34.1-19.47 52.46-15s27.97 21.1 43.44 24.67z" fill="#6b62ff"/><path d="M181.73 258.85c-19.78-.09-30.21 10.86-54.34 5.7-19.32-4.12-25.12-17.45-41.56-15.37 18.8-14.5 34.1-19.47 52.46-15s27.97 21.1 43.44 24.67z" opacity=".2"/><path d="M145.22 290.9c-12.34 13.28-1.32 28.52 16.83 27.42 16.13-1 26.41-14.72 22.18-22.07S165.44 274 165.44 274s-8.36 4.14-20.22 16.9z" fill="#6b62ff"/><path d="M145.22 290.9c-12.34 13.28-1.32 28.52 16.83 27.42 16.13-1 26.41-14.72 22.18-22.07S165.44 274 165.44 274s-8.36 4.14-20.22 16.9z" fill="#fff" opacity=".7"/><path d="M159.79 272.4c7.59-13.49 21.15-27.94 32.42-22s15.29 47.6-4.74 54.5-27.68-32.5-27.68-32.5z" fill="#6b62ff"/><path d="M159.79 272.4c7.59-13.49 21.15-27.94 32.42-22s15.29 47.6-4.74 54.5-27.68-32.5-27.68-32.5z" fill="#fff" opacity=".6"/><path d="M165.44 274c-1.31-8.58-11.06-21.47-21.24-19.76-15.62 2.63-16.88 34.69-6.54 43 8.64 6.92 29.72-10.65 27.78-23.24z" fill="#6b62ff"/><path d="M165.44 274c-1.31-8.58-11.06-21.47-21.24-19.76-15.62 2.63-16.88 34.69-6.54 43 8.64 6.92 29.72-10.65 27.78-23.24z" fill="#fff" opacity=".6"/><path d="M165.44 274c-16.88-5.92-20.3-18.72-14.49-25.08 8.47-9.27 30.94-12.6 29.67-.72-1.68 15.72-15.18 25.8-15.18 25.8z" fill="#6b62ff"/><path d="M165.44 274c-16.88-5.92-20.3-18.72-14.49-25.08 8.47-9.27 30.94-12.6 29.67-.72-1.68 15.72-15.18 25.8-15.18 25.8z" fill="#fff" opacity=".7"/><path d="M176.07 265.17c10.07-7.59 19.82 1.13 17.77 13.6C192 289.86 181.77 296 177 292.55S162.9 278 162.9 278s3.49-5.54 13.17-12.83z" fill="#6b62ff"/><path d="M176.07 265.17c10.07-7.59 19.82 1.13 17.77 13.6C192 289.86 181.77 296 177 292.55S162.9 278 162.9 278s3.49-5.54 13.17-12.83z" fill="#fff" opacity=".5"/><path d="M162.22 273.93c-9.87 4.29-20.84 12.64-17.56 20.86s31.89 14 38.07.61-20.51-21.47-20.51-21.47z" fill="#6b62ff"/><path d="M162.22 273.93c-9.87 4.29-20.84 12.64-17.56 20.86s31.89 14 38.07.61-20.51-21.47-20.51-21.47z" fill="#fff" opacity=".4"/><path d="M162.9 278c-5.84-1.52-14.07-9.19-12.16-16.11 2.94-10.62 25.21-9.2 30.23-1.45 4.19 6.42-9.47 19.75-18.07 17.56z" fill="#6b62ff"/><path d="M162.9 278c-5.84-1.52-14.07-9.19-12.16-16.11 2.94-10.62 25.21-9.2 30.23-1.45 4.19 6.42-9.47 19.75-18.07 17.56z" fill="#fff" opacity=".4"/><path d="M162.9 278c-2.89-12.1-11.5-15.38-16.32-11.82-7 5.2-10.93 20.51-2.62 20.48C155 286.58 162.9 278 162.9 278z" fill="#6b62ff"/><path d="M162.9 278c-2.89-12.1-11.5-15.38-16.32-11.82-7 5.2-10.93 20.51-2.62 20.48C155 286.58 162.9 278 162.9 278z" fill="#fff" opacity=".5"/><path d="M172.94 275.88c-1.05-5.13-8.54-11.71-15.33-3.61-8 9.57 2.61 19.37 11.1 12.31 1.6-2.3 4.23-8.7 4.23-8.7z" fill="#6b62ff"/><path d="M168.11 284.16c-3.87 3.3-9.91 5-13.13 5.21a.5.5 0 00-.22.93c5.07 3 11.21 1 14.12-5.52a.51.51 0 00-.77-.62z" fill="#6b62ff"/><path d="M168.11 284.16c-3.87 3.3-9.91 5-13.13 5.21a.5.5 0 00-.22.93c5.07 3 11.21 1 14.12-5.52a.51.51 0 00-.77-.62z" fill="#fff" opacity=".2"/><path d="M165.52 264c11.38 8.64-2 19.69 3 27 .43-8.19 6.84-10.81 6.73-17-.07-5-5.53-9.86-9.73-10z" fill="#6b62ff"/><path d="M165.52 264c11.38 8.64-2 19.69 3 27 .43-8.19 6.84-10.81 6.73-17-.07-5-5.53-9.86-9.73-10z" fill="#fff" opacity=".3"/><path d="M194.74 322.26c-1.09-3.59-8.87-12.38-19-12.45S159 319.88 160.67 323c-4 6.94 4.65 12.6 12.15 12.86 8.72.31 16.18-4.81 21.92-13.6z" fill="#6b62ff"/><path d="M194.74 322.26c-1.09-3.59-8.87-12.38-19-12.45S159 319.88 160.67 323c-4 6.94 4.65 12.6 12.15 12.86 8.72.31 16.18-4.81 21.92-13.6z" fill="#fff" opacity=".6"/><path d="M207 335.86c-2.26-1.54-10.68-3-16.45 1.57s-5 13.38-2.57 14.37c.9 5.76 8.38 5 12.76 1.77 5.11-3.8 6.98-10.08 6.26-17.71z" fill="#6b62ff"/><path d="M207 335.86c-2.26-1.54-10.68-3-16.45 1.57s-5 13.38-2.57 14.37c.9 5.76 8.38 5 12.76 1.77 5.11-3.8 6.98-10.08 6.26-17.71z" fill="#fff" opacity=".8"/><path d="M204.3 317.58c1.12-1.86 1.85-8.63-2.06-13-4.77-5.32-10.16-5.45-11.55-1.34-4.54 1-3.59 6.92-.78 10.24 3.27 3.87 8.36 5.05 14.39 4.1z" fill="#6b62ff"/><path d="M204.3 317.58c1.12-1.86 1.85-8.63-2.06-13-4.77-5.32-10.16-5.45-11.55-1.34-4.54 1-3.59 6.92-.78 10.24 3.27 3.87 8.36 5.05 14.39 4.1z" fill="#fff" opacity=".4"/><path d="M277.14 358.14a.43.43 0 01-.24-.08c-10.63-8.54-58.75-39.6-99.95-35.68a.39.39 0 11-.07-.77c41.48-3.93 89.82 27.27 100.5 35.84a.39.39 0 01-.24.69z" fill="#6b62ff"/><path d="M208.31 325a.39.39 0 01-.37-.27A23 23 0 00199 313.2a.39.39 0 01-.12-.54.38.38 0 01.53-.12 23.35 23.35 0 019.23 12 .38.38 0 01-.26.48.22.22 0 01-.07-.02zM231.16 324.47c2-2 6-11.45 2.47-18.16-4.24-8.2-11.78-8.84-14.86-4.15-8.32-.3-8.12 9-4.38 14.15 3.86 5.27 8.92 7.4 16.77 8.16z" fill="#6b62ff"/><path d="M231.16 324.47c2-2 6-11.45 2.47-18.16-4.24-8.2-11.78-8.84-14.86-4.15-8.32-.3-8.12 9-4.38 14.15 3.86 5.27 8.92 7.4 16.77 8.16z" fill="#fff" opacity=".7"/><path d="M233 333.09a.4.4 0 01-.39-.37 31.89 31.89 0 00-6.51-16.78.39.39 0 01.05-.55.39.39 0 01.54.05 32.79 32.79 0 016.7 17.24.4.4 0 01-.37.41zM266.92 343.58c2.54-2 8.25-12.53 5-20.71-3.93-10-12.57-11.63-16.69-6.59-9.59-1.34-10.48 9.51-6.77 15.85 3.88 6.56 9.48 9.62 18.46 11.45z" fill="#6b62ff"/><path d="M266.92 343.58c2.54-2 8.25-12.53 5-20.71-3.93-10-12.57-11.63-16.69-6.59-9.59-1.34-10.48 9.51-6.77 15.85 3.88 6.56 9.48 9.62 18.46 11.45z" fill="#fff" opacity=".6"/><path d="M268.06 351.68a.4.4 0 01-.39-.35 58.8 58.8 0 00-10-26.93.38.38 0 01.07-.54.38.38 0 01.54.08 59.46 59.46 0 0110.14 27.31.39.39 0 01-.35.42zM247.59 348.22c.29 3.85-4.15 17.25-13.82 21.09-11.79 4.68-20.18-1.45-19.16-9.08-8.91-7.2-.27-16.73 8.21-18.65 8.77-1.99 15.93.36 24.77 6.64z" fill="#6b62ff"/><path d="M247.59 348.22c.29 3.85-4.15 17.25-13.82 21.09-11.79 4.68-20.18-1.45-19.16-9.08-8.91-7.2-.27-16.73 8.21-18.65 8.77-1.99 15.93.36 24.77 6.64z" fill="#fff" opacity=".4"/><path d="M231.43 355.41a.39.39 0 01-.38-.32.39.39 0 01.31-.45c.13 0 13.11-2.46 22.23-12.07a.38.38 0 01.54 0 .37.37 0 010 .54c-9.3 9.8-22.52 12.28-22.65 12.3zM196.5 343.57a.36.36 0 01-.29-.13.38.38 0 010-.55c10.29-8.93 22.59-13.5 29.4-13.37a.39.39 0 01.39.39.38.38 0 01-.4.38c-5.42-.09-17.55 3.35-28.89 13.19a.38.38 0 01-.21.09zM254.61 309.84h-.15c-16.68-7-31.77-21.83-47.76-37.51-24.9-24.42-53.13-52.11-93.94-55.64a.39.39 0 01-.36-.42.4.4 0 01.42-.35c41.1 3.56 69.43 31.34 94.43 55.86 15.93 15.63 31 30.38 47.51 37.34a.39.39 0 01-.15.75zM100.78 224.79c-8.49 7.05-19.54 3.14-26 .6s-.65-5.87-4.52-5.82-15.36-.9-14-9.91c.86-5.53 6.51-3.17 7.35-8.66s9.28.95 10.41-2.89 9.25-2.89 13.32-2c5.06 1.13 20.88 5.72 18.23 18.59-2.1 10.42-4.79 10.09-4.79 10.09z" fill="#6b62ff"/><path d="M100.78 224.79c-8.49 7.05-19.54 3.14-26 .6s-.65-5.87-4.52-5.82-15.36-.9-14-9.91c.86-5.53 6.51-3.17 7.35-8.66s9.28.95 10.41-2.89 9.25-2.89 13.32-2c5.06 1.13 20.88 5.72 18.23 18.59-2.1 10.42-4.79 10.09-4.79 10.09z" fill="#fff" opacity=".6"/><path d="M116 215.31c.37 6.83-5.46 5.53-7.62 4.58-1.45 6.32-7.14 7.94-11.66 8.38a1 1 0 01-.72-1.87c3.17-2.05 5.24-4.79 4.95-6.57-4.89 0-8.29-4-6.38-8 2.25-4.68 7.4-3.19 7.4-3.19a12.27 12.27 0 00-5.87-8 1 1 0 01.61-1.91c12.75 1.13 13.53 13.55 13.53 13.55s5.5-1.51 5.76 3.03z" fill="#6b62ff"/><path d="M64.64 214.08c10.26 3.06 26.11-1.6 26.11-1.6s-12.39 7.92-26.11 1.6zM75.57 210.17c10.09-.73 13.72-6.78 20-5.42-8.52-2.98-20 5.42-20 5.42z" fill="#fff"/><path d="M144.26 166.14c.07-2.26 1.41-7.16 4.67-3.68.33-.62 3.2-3.71 7.44.38S154 179.26 154 179.26s-10-5.68-9.74-13.12z" fill="#6b62ff"/><path d="M144.26 166.14c.07-2.26 1.41-7.16 4.67-3.68.33-.62 3.2-3.71 7.44.38S154 179.26 154 179.26s-10-5.68-9.74-13.12z" fill="#fff" opacity=".6"/><path d="M144.69 181.19c-3.11-5.88-2-11.13-.43-15.05 3.48 1.8 7.8 7.33 7.8 7.33s7.25-6 4.31-10.63c7.88 2.32 11.27 6.77 9.45 14.68-1.49 6.48-16.64 12.14-21.13 3.67z" fill="#6b62ff"/><path d="M144.69 181.19c-3.11-5.88-2-11.13-.43-15.05 3.48 1.8 7.8 7.33 7.8 7.33s7.25-6 4.31-10.63c7.88 2.32 11.27 6.77 9.45 14.68-1.49 6.48-16.64 12.14-21.13 3.67z" fill="#fff" opacity=".3"/><path d="M158.46 193.86c-5.38 1.79-5.81-3.52-5.59-5.6-5.43.1-8.16-4.47-9.65-8.28a.85.85 0 011.39-.92 14.18 14.18 0 001.22 1 3.24 3.24 0 005.07-1.92c.55-2.44 2.44-4.07 5-3.52a5.15 5.15 0 013 1.81 3.28 3.28 0 005.52-.41 10.29 10.29 0 00.83-2.46.85.85 0 011.68.13c2.31 11.25-7.46 14.57-7.46 14.57s2.53 4.42-1.01 5.6z" fill="#6b62ff"/><path d="M188.39 254.68a.38.38 0 01-.28-.12c-12.85-13.48-31.23-42.4-31.87-64.5a.39.39 0 01.38-.4.37.37 0 01.39.38c.64 21.89 18.9 50.59 31.66 64a.39.39 0 010 .55.43.43 0 01-.28.09zM245.14 317.53a.39.39 0 01-.31-.15c-18.69-24.38-29.68-73.08-12.09-126.76a.39.39 0 11.74.24c-17.51 53.42-6.6 101.8 12 126.05a.38.38 0 01-.08.54.4.4 0 01-.26.08z" fill="#6b62ff"/><path d="M215.41 190.62c-13.43 3.78-24.67 4.68-17.48 15.73s31.68 8.9 34.32 3.63c7.6 13.06 30.79 15.76 38.56 6.85s-6.67-11.67-6.67-11.67 13.82-6.59 13-18.39-15-6.27-21.82-3.71c-12.14-9.35-43.6-15.36-47.43-2.45s7.52 10.01 7.52 10.01z" fill="#6b62ff"/><path d="M215.41 190.62c-13.43 3.78-24.67 4.68-17.48 15.73s31.68 8.9 34.32 3.63c7.6 13.06 30.79 15.76 38.56 6.85s-6.67-11.67-6.67-11.67 13.82-6.59 13-18.39-15-6.27-21.82-3.71c-12.14-9.35-43.6-15.36-47.43-2.45s7.52 10.01 7.52 10.01z" fill="#fff" opacity=".7"/><path d="M208.16 186.05c-19.58-5.83-21.72 4.18-9.48 15s18.55 6.43 18.55 6.43-4.85 16.32 20.81 14.61 12.9-13.24 12.9-13.24 23.08 11.64 27.35-7.7-24.59-13.63-24.59-13.63-23.4 5.12-45.54-1.47z" fill="#6b62ff"/><path d="M208.16 186.05c-19.58-5.83-21.72 4.18-9.48 15s18.55 6.43 18.55 6.43-4.85 16.32 20.81 14.61 12.9-13.24 12.9-13.24 23.08 11.64 27.35-7.7-24.59-13.63-24.59-13.63-23.4 5.12-45.54-1.47z" fill="#fff" opacity=".8"/><path d="M208.71 194.27c-9.25-8.73-14.48-35.09 3.66-31.25 10-7.29 54.25-9.28 45.38 3.86 11.43.33 15.86 11.78 11.87 18.16 5.22 5.91-7.8 16.78-29.53 19-14.84 1.58-28.35-6.91-31.38-9.77z" fill="#6b62ff"/><path d="M208.71 194.27c-9.25-8.73-14.48-35.09 3.66-31.25 10-7.29 54.25-9.28 45.38 3.86 11.43.33 15.86 11.78 11.87 18.16 5.22 5.91-7.8 16.78-29.53 19-14.84 1.58-28.35-6.91-31.38-9.77z" fill="#fff" opacity=".6"/><path d="M246.07 183.44c-6.46-11.76-11.24-20.74-4.08-21.82s19.69 1.22 22.57 8.24-3.17 16.08-6.68 16.53-11.81-2.95-11.81-2.95z" fill="#6b62ff"/><path d="M246.07 183.44c-6.46-11.76-11.24-20.74-4.08-21.82s19.69 1.22 22.57 8.24-3.17 16.08-6.68 16.53-11.81-2.95-11.81-2.95z" fill="#fff" opacity=".5"/><path d="M238.26 181.16c4.33-12.38 7.48-21.81.2-22.07s-19.28 3.46-20.89 10.74 6 15.55 9.52 15.6 11.17-4.27 11.17-4.27z" fill="#6b62ff"/><path d="M238.26 181.16c4.33-12.38 7.48-21.81.2-22.07s-19.28 3.46-20.89 10.74 6 15.55 9.52 15.6 11.17-4.27 11.17-4.27z" fill="#fff" opacity=".7"/><path d="M222.75 182.52c-2.52-10.9 6.15-18.53 15.1-18.54s27.54 8.19 18.82 18.26-31 12.94-33.92.28z" fill="#6b62ff"/><path d="M222.75 182.52c-2.52-10.9 6.15-18.53 15.1-18.54s27.54 8.19 18.82 18.26-31 12.94-33.92.28z" fill="#fff" opacity=".3"/><path d="M246.15 172.16c-2.2-4.68-10-6.68-14.73-5-5.65 2.06-5.08 7-2.38 9.58-1.75-3.31-1-8.27 5.45-8.08a25.92 25.92 0 0111.66 3.5z" fill="#6b62ff" opacity=".5"/><path d="M235.61 177.84c5.16 0 5.94-5 3.83-6.86 3.35 2.31 6.29 8.24 3.53 10.05-6.35 4.16-7.36-3.19-7.36-3.19z" fill="#6b62ff" opacity=".3"/><path d="M212 194.3c-6.77-15.38-11.75-27.11-2.59-27.76s24.69 3.5 27.5 12.59S231 199 226.56 199.18 212 194.3 212 194.3z" fill="#6b62ff"/><path d="M212 194.3c-6.77-15.38-11.75-27.11-2.59-27.76s24.69 3.5 27.5 12.59S231 199 226.56 199.18 212 194.3 212 194.3z" fill="#fff" opacity=".8"/><path d="M245.86 180.81c7.58-2.85 2-11.42-2.08-13 6.09 1.6 13.67 9.05 10.35 13.14-3.82 4.7-8.27-.14-8.27-.14z" fill="#6b62ff"/><path d="M268 191.45c6-12.19 10.37-21.48 3.79-21.69s-18.11 3.5-20.77 10.66 2.89 15.25 6.11 15.28 10.87-4.25 10.87-4.25z" fill="#6b62ff"/><path d="M268 191.45c6-12.19 10.37-21.48 3.79-21.69s-18.11 3.5-20.77 10.66 2.89 15.25 6.11 15.28 10.87-4.25 10.87-4.25z" fill="#fff" opacity=".8"/><path d="M237.23 200.79c-8-2.63-11.72-12.18-6-16.92s26.09-8.76 27-3.44c1.73 9.53-3.4 17.34-9.19 19.31a28.07 28.07 0 01-11.81 1.05z" fill="#6b62ff"/><path d="M237.23 200.79c-8-2.63-11.72-12.18-6-16.92s26.09-8.76 27-3.44c1.73 9.53-3.4 17.34-9.19 19.31a28.07 28.07 0 01-11.81 1.05z" fill="#fff" opacity=".5"/><path d="M261.37 191.25a7.05 7.05 0 00-.55-4.78c-.28 5.66-20 10.95-20 10.95s8.28-7.93 6.39-14.83c-1.19 10.26-16.44 12.88-21.75 14.87-3.88-2.05-7.11-9.07-5.58-15.24 0 0-4.83 2.89-5 10.89-3.26-4.13-9.09-4.43-17.81-14.92 1.71 3.89 4.93 16.46 17.49 21.95 27.85 12.17 45.61 3.32 50.51-1.12 6.06-5.51 5.17-9.49 11.83-18.31-6.41.61-13.04 6.64-15.53 10.54z" fill="#6b62ff"/><path d="M261.37 191.25a7.05 7.05 0 00-.55-4.78c-.28 5.66-20 10.95-20 10.95s8.28-7.93 6.39-14.83c-1.19 10.26-16.44 12.88-21.75 14.87-3.88-2.05-7.11-9.07-5.58-15.24 0 0-4.83 2.89-5 10.89-3.26-4.13-9.09-4.43-17.81-14.92 1.71 3.89 4.93 16.46 17.49 21.95 27.85 12.17 45.61 3.32 50.51-1.12 6.06-5.51 5.17-9.49 11.83-18.31-6.41.61-13.04 6.64-15.53 10.54z" fill="#fff" opacity=".4"/><path d="M268.08 351.46a.39.39 0 01-.34-.2c-9.72-18.07-16.9-37.21-22.15-51.19-3.59-9.66-6.49-17.32-8.59-20.07-6.83-1.66-20.65-19.7-26.21-43.55s-21.28-45.6-21.44-45.82a.4.4 0 01.09-.54.38.38 0 01.54.09c.16.21 16 22.09 21.57 46.09 5.71 24.49 19.92 41.76 25.76 43a.37.37 0 01.22.14c2.14 2.76 4.92 10.16 8.76 20.39 5.23 14 12.4 33.08 22.1 51.1a.37.37 0 01-.15.52.32.32 0 01-.16.04z" fill="#6b62ff"/><path d="M237.26 280h-.07a.4.4 0 01-.32-.45c.5-3.06 3.81-7.48 7.65-12.59 7.91-10.51 17.74-23.6 12.08-35.05a.39.39 0 01.18-.52.38.38 0 01.51.18c5.88 11.87-4.54 25.73-12.15 35.86-3.78 5-7 9.37-7.5 12.25a.39.39 0 01-.38.32zM214.11 246.72a.4.4 0 01-.15 0c-.88-.35-1.75-.68-2.6-1-6.93-2.64-12.91-4.91-22.93-16.82-10.93-13-16.93-13.75-17-13.76a.39.39 0 01-.35-.42.4.4 0 01.42-.35c.26 0 6.32.74 17.51 14 9.89 11.75 15.79 14 22.62 16.59l2.61 1a.39.39 0 01.22.51.39.39 0 01-.35.25zM205.2 218.72a.39.39 0 01-.38-.31c-.69-3.28.56-6.94 2-11.19 2.84-8.35 6.73-19.79-1.71-36.41-9.11-17.88-1.11-29.4-1.11-29.52a.39.39 0 01.54-.09.38.38 0 01.09.54c-.08.11-7.7 11.28 1.15 28.72 8.59 16.91 4.63 28.53 1.75 37-1.41 4.14-2.62 7.71-2 10.78a.39.39 0 01-.3.46zM263 341.37a.37.37 0 01-.35-.22c-4.36-9.49-25.52-38.5-55.15-48.11a.37.37 0 01-.25-.48.38.38 0 01.49-.25c29.3 9.5 50.46 37.29 55.61 48.51a.4.4 0 01-.19.52.45.45 0 01-.16.03z" fill="#6b62ff"/><path d="M202.05 145.09c1.32 1.38 7.45 3 13.24-.45s11.62-15.45 9.11-19.71-8.47 1.62-13.11 4c-8.71 4.43-14.02 11.18-9.24 16.16z" fill="#6b62ff"/><path d="M202.05 145.09c1.32 1.38 7.45 3 13.24-.45s11.62-15.45 9.11-19.71-8.47 1.62-13.11 4c-8.71 4.43-14.02 11.18-9.24 16.16z" fill="#fff" opacity=".3"/><path d="M202.05 145.09c6.36-8.21 2.68-17.52-3.26-24.38-4.85-5.6-11.85-3.61-9.11 1.18s1.26 21.88 12.37 23.2z" fill="#6b62ff"/><path d="M202.05 145.09c6.36-8.21 2.68-17.52-3.26-24.38-4.85-5.6-11.85-3.61-9.11 1.18s1.26 21.88 12.37 23.2z" fill="#fff" opacity=".5"/><path d="M202.05 145.09c-3.53-1.66-3.37-20.7 5.43-28.9s8.64 1.39 6.25 8.66-6.39 22.74-11.68 20.24z" fill="#6b62ff"/><path d="M202.05 145.09c-3.53-1.66-3.37-20.7 5.43-28.9s8.64 1.39 6.25 8.66-6.39 22.74-11.68 20.24z" fill="#fff" opacity=".8"/><path d="M201.35 146.89c-5-1-8.3-5.28-7.89-9.75 3.32 5.13 5.11 4.23 5.11 4.23a8.57 8.57 0 011.49-7.52c1.07 6.54 2.1 7.62 4 7.11s5.37-3.1 6.31-5.79c1.06 3.16-.51 8-1.91 9.3 5.44-.88 9.53-1.87 11.82-4.8-2.28 6.85-11.77 8.74-18.93 7.22zM176.3 215.81c0 1.09-1.82 4.27-5.76 5.25S159 219.68 158.25 217s2.53-7.15 5.64-7.18c5.86-.11 12.27 2.05 12.41 5.99z" fill="#6b62ff"/><path d="M176.3 215.81c0 1.09-1.82 4.27-5.76 5.25S159 219.68 158.25 217s2.53-7.15 5.64-7.18c5.86-.11 12.27 2.05 12.41 5.99z" fill="#fff" opacity=".5"/><path d="M176.3 215.81c-6.2-.65-9.41-4.38-10.69-9.41-1-4.09 2.55-5.5 5.23-3.82s9.56 8.16 5.46 13.23z" fill="#6b62ff"/><path d="M176.3 215.81c-6.2-.65-9.41-4.38-10.69-9.41-1-4.09 2.55-5.5 5.23-3.82s9.56 8.16 5.46 13.23z" fill="#fff" opacity=".5"/><path d="M176.3 215.81c.77-2.1-6.23-10.91-13.45-10.55s-4.29 5.39-.16 7.3 12.46 6.44 13.61 3.25z" fill="#6b62ff"/><path d="M176.3 215.81c.77-2.1-6.23-10.91-13.45-10.55s-4.29 5.39-.16 7.3 12.46 6.44 13.61 3.25z" fill="#fff" opacity=".3"/><path d="M177.37 216.24a5.3 5.3 0 000-6.24.36.36 0 00-.65.26 6.09 6.09 0 01.06 1.36.74.74 0 01-1.28.42 5.22 5.22 0 00-.73-.61.76.76 0 00-1.09 1c1 1.55.78 2.13 0 2.56a7 7 0 01-3 .64.76.76 0 00-.42 1.39 10.12 10.12 0 001.28.7.75.75 0 01-.07 1.39c-2.45.84-5.17.8-5.28 2-.19 1.51 7.16 1.06 11.18-4.87zM181.37 192.3c-11.7-3.09-19.24-10.28-17.37-14.74 2.8-6.7 14.2-5.49 12.55-10.84 11.56 10.54 10.33 19.93 4.82 25.58z" fill="#6b62ff"/><path d="M181.37 192.3c-11.7-3.09-19.24-10.28-17.37-14.74 2.8-6.7 14.2-5.49 12.55-10.84 11.56 10.54 10.33 19.93 4.82 25.58z" fill="#fff" opacity=".5"/><path d="M179.57 193.52c-9.75-.55.17-16.83-3.52-24.33s9.56-7.66 13.26 2.05 4.99 23.11-9.74 22.28z" fill="#6b62ff"/><path d="M179.57 193.52c-9.75-.55.17-16.83-3.52-24.33s9.56-7.66 13.26 2.05 4.99 23.11-9.74 22.28z" fill="#fff" opacity=".3"/><path d="M192 192.21c1.39-4.71-14.25-2.11-22.58-5.53a2.22 2.22 0 00-3 2.56c3.58 11.85 22.88 12.12 25.58 2.97z" fill="#6b62ff"/><path d="M192 192.21c4.57-.64 6.4-12.52 5.26-17.27s-4.71-9.87-7.21-8.18c-3.71 2.53 1.42 19.2-9.11 24.8 3.06 2.18 11.06.65 11.06.65z" fill="#6b62ff"/><path d="M181 190.43c-6-9-2-15.52 6.74-10 9.04 5.74-2.15 16.91-6.74 10zM254.58 222.55c3.7-6.3 6.95-10 11.38-8.36a7.39 7.39 0 013.36 11.52c-3.3 4.45-7.77 10.31-11.74 9.14s-5.83-7.5-3-12.3z" fill="#6b62ff"/><path d="M254.58 222.55c3.7-6.3 6.95-10 11.38-8.36a7.39 7.39 0 013.36 11.52c-3.3 4.45-7.77 10.31-11.74 9.14s-5.83-7.5-3-12.3z" fill="#fff" opacity=".2"/><path d="M245.26 222.41c.08-9.22 1.29-15.33 7.16-16.31a9.33 9.33 0 0110.94 10.47c-.8 6.93-2 16.16-7.06 17.38s-11.09-4.51-11.04-11.54z" fill="#6b62ff"/><path d="M245.26 222.41c.08-9.22 1.29-15.33 7.16-16.31a9.33 9.33 0 0110.94 10.47c-.8 6.93-2 16.16-7.06 17.38s-11.09-4.51-11.04-11.54z" fill="#fff" opacity=".3"/><path d="M254.1 236.35c4 1.62 9.2.39 9.58-4.95s-7.77-11.26-7.44-16.69c-5.93 5.65-8.15 19.2-2.14 21.64z" fill="#6b62ff"/><path d="M258.1 223.15c-1.19 0-3.84-2-4-3.38 0-.36 0-1 1.11-1.21a.21.21 0 01.26.18.22.22 0 01-.17.26c-.84.16-.78.56-.76.71.16 1.12 2.72 3.07 3.63 3 .11 0 .19 0 .18-.24a.22.22 0 01.22-.23.24.24 0 01.23.21.62.62 0 01-.59.7zM260 227.93c-1.59 0-5.65-4.58-6.27-6.72a.21.21 0 01.15-.27.22.22 0 01.28.15c.59 2 4.58 6.39 5.84 6.39.07 0 .19 0 .24-.3a.23.23 0 01.26-.18.22.22 0 01.18.25.71.71 0 01-.66.68z" fill="#fff" opacity=".2"/><path d="M257.1 235.85c3.11-1.83 3-9-4.21-12.3-4.77-2.14-7.86-4.51-9.19-7.57-2.24 15.31 7.3 23.47 13.4 19.87z" fill="#6b62ff"/><path d="M257.1 235.85c3.11-1.83 3-9-4.21-12.3-4.77-2.14-7.86-4.51-9.19-7.57-2.24 15.31 7.3 23.47 13.4 19.87z" fill="#fff" opacity=".5"/><path d="M203.06 286c-3.09 7.22-11.82 3.59-13.86 8.58s18.11 9.74 22.11-.92-5.17-14.87-8.25-7.66z" fill="#6b62ff"/><path d="M203.06 286c-3.09 7.22-11.82 3.59-13.86 8.58s18.11 9.74 22.11-.92-5.17-14.87-8.25-7.66z" fill="#fff" opacity=".3"/><path d="M203.41 272c-13.47-9.87-23.74 11.28-21.43 19.32 1.44 5 4.44 3 5.41 2.15 2.15-2 4 .37 8.25-1.52 4.91-2.19 5.67 12.59 12.84 2.92s-.9-19.78-5.07-22.87z" fill="#6b62ff"/><path d="M208.35 291.45c-8.23-5.06-11.84-14.93-14.25-13.74s1.61 4.31-.85 6.07.26 6.29 2.86 2.92c1.61-3.43 8.37 5.2 11.36 7.71 2.32-1.17.88-2.96.88-2.96z" fill="#fff" opacity=".8"/><path d="M210.88 295.39a2.35 2.35 0 01-3.23.85c-5.45-3.33-3.81-14.61-6.85-20.68-3.39-6.76-6.25-14.81-3.83-16.25 1.34-.8 3.82 6.41 9.16 11.4 2.24 2.1 12.87 10.89 4.75 24.68z" fill="#6b62ff"/><path d="M210.88 295.39a2.35 2.35 0 01-3.23.85c-5.45-3.33-3.81-14.61-6.85-20.68-3.39-6.76-6.25-14.81-3.83-16.25 1.34-.8 3.82 6.41 9.16 11.4 2.24 2.1 12.87 10.89 4.75 24.68z" fill="#fff" opacity=".5"/><path d="M249.07 308.19c-3.09-9.5 12-19.16 9.4-29.64 11.83 25.04-4.67 44.2-9.4 29.64zM242.87 291.78c-1-4.74-10.55-10.15-19.19-1.67 9.25-3.04 21.16 10.75 19.19 1.67zM216.9 253.44c-1-2.19-1.11-8.35 10.85-13.72-2.75 6.48-6.37 23.28-10.85 13.72zM210.38 186c-.16-3.86-5-10.6 14.11-19.16-4.4 10.31-13.44 36.02-14.11 19.16zM207.69 224.64c-1.66-3.78-5.32-14.64-19.77-11.11 6.58 6.71 27.08 27.64 19.77 11.11zM245.85 266.24a.34.34 0 01-.22-.07.4.4 0 01-.09-.55c3.53-4.82 0-13.63-2.44-15.91a.39.39 0 11.54-.56c2.61 2.48 6.36 11.69 2.53 16.93a.39.39 0 01-.32.16z" fill="#6b62ff"/><path d="M246.21 255.19c-2.37-4.35-7.47-10.34-9.91-11.79 6.17 1.64 11.1 3.3 13.07 6.51 2.2 3.59-1.37 8.5-3.16 5.28zM228.93 310.32c-4.39 0-9-1.93-10.71-3.54a.39.39 0 01.53-.57c2.41 2.26 11.41 5.33 16 1.54a.39.39 0 01.49.6 9.82 9.82 0 01-6.31 1.97z" fill="#6b62ff"/><path d="M224.4 309c-4.48-2.11-10.75-6.87-12.33-9.23 2 6.07 3.92 10.9 7.24 12.69 3.69 1.99 8.4-1.88 5.09-3.46zM263.37 264.36c11.66-1.81 15.85 9.69 8.64 19.08-6.41 8.33-17.57 8.86-20 3.9s-5.16-18.26-5.16-18.26 5.31-2.99 16.52-4.72z" fill="#6b62ff"/><path d="M263.37 264.36c11.66-1.81 15.85 9.69 8.64 19.08-6.41 8.33-17.57 8.86-20 3.9s-5.16-18.26-5.16-18.26 5.31-2.99 16.52-4.72z" fill="#fff" opacity=".7"/><path d="M248.08 265.46c-10-.83-22.78 1.21-23.71 9.44s20.11 25.63 31.13 17.34-7.42-26.78-7.42-26.78z" fill="#6b62ff"/><path d="M248.08 265.46c-10-.83-22.78 1.21-23.71 9.44s20.11 25.63 31.13 17.34-7.42-26.78-7.42-26.78z" fill="#fff" opacity=".6"/><path d="M246.86 269.08c-4.15-3.84-7.54-13.8-2.9-18.67 7.11-7.46 24.85 3.56 25.57 12.17.59 7.19-16.53 12.15-22.67 6.5z" fill="#6b62ff"/><path d="M246.86 269.08c-4.15-3.84-7.54-13.8-2.9-18.67 7.11-7.46 24.85 3.56 25.57 12.17.59 7.19-16.53 12.15-22.67 6.5z" fill="#fff" opacity=".6"/><path d="M246.86 269.08c3-11.26-2.69-17.78-8.24-17-8.09 1.19-18.08 12.09-11.21 15.74 9.11 4.87 19.45 1.26 19.45 1.26z" fill="#6b62ff"/><path d="M246.86 269.08c3-11.26-2.69-17.78-8.24-17-8.09 1.19-18.08 12.09-11.21 15.74 9.11 4.87 19.45 1.26 19.45 1.26z" fill="#fff" opacity=".7"/><path d="M238.24 271.6c-7.77 2.66-6.63 11.1.85 14.54 6.65 3.06 13.69-.22 13.58-4.06s-2.73-12.91-2.73-12.91-4.24-.17-11.7 2.43z" fill="#6b62ff"/><path d="M238.24 271.6c-7.77 2.66-6.63 11.1.85 14.54 6.65 3.06 13.69-.22 13.58-4.06s-2.73-12.91-2.73-12.91-4.24-.17-11.7 2.43z" fill="#fff" opacity=".5"/><path d="M248 267.33c5.91-3.76 14.41-6.63 17.65-1.86s-4.1 22.3-13.56 20.75-4.09-18.89-4.09-18.89z" fill="#6b62ff"/><path d="M248 267.33c5.91-3.76 14.41-6.63 17.65-1.86s-4.1 22.3-13.56 20.75-4.09-18.89-4.09-18.89z" fill="#fff" opacity=".4"/><path d="M249.94 269.17c1.31-3.71.17-10.94-4.26-12.44-6.79-2.29-14.15 10.23-11.81 15.77 1.96 4.62 14.13 2.12 16.07-3.33z" fill="#6b62ff"/><path d="M249.94 269.17c1.31-3.71.17-10.94-4.26-12.44-6.79-2.29-14.15 10.23-11.81 15.77 1.96 4.62 14.13 2.12 16.07-3.33z" fill="#fff" opacity=".4"/><path d="M249.94 269.17c-5.47-6-4.1-11.82-.42-13.12 5.36-1.88 15 1.59 12 6.06-4.05 5.89-11.58 7.06-11.58 7.06z" fill="#6b62ff"/><path d="M249.94 269.17c-5.47-6-4.1-11.82-.42-13.12 5.36-1.88 15 1.59 12 6.06-4.05 5.89-11.58 7.06-11.58 7.06z" fill="#fff" opacity=".5"/><path d="M245.15 273.82c-2.38-2.44-3.2-8.88 3.66-9.58 8.08-.84 9.49 8.47 2.58 10.47a44.14 44.14 0 01-6.24-.89z" fill="#6b62ff"/><path d="M251.38 274.23a16.7 16.7 0 007.6-5.17.33.33 0 01.58.22c-.21 3.84-3.55 6.41-8.13 5.6a.34.34 0 01-.05-.65z" fill="#6b62ff"/><path d="M251.38 274.23a16.7 16.7 0 007.6-5.17.33.33 0 01.58.22c-.21 3.84-3.55 6.41-8.13 5.6a.34.34 0 01-.05-.65z" fill="#fff" opacity=".2"/><path d="M241.43 265.47c.51 9.28 11.33 6.12 13.48 11.49-4.57-2.76-8.32-.26-11.62-2.58-2.66-1.86-3.29-6.58-1.86-8.91z" fill="#6b62ff"/><path d="M241.43 265.47c.51 9.28 11.33 6.12 13.48 11.49-4.57-2.76-8.32-.26-11.62-2.58-2.66-1.86-3.29-6.58-1.86-8.91z" fill="#fff" opacity=".3"/></g><g><path d="M365.22 77.87a6.28 6.28 0 00-1.29-6.18c-2-2-5.29-1.33-5.56-.38-2.15.58-1.57 3.39-.14 4.92 1.65 1.77 4.12 2.23 6.99 1.64z" fill="#6b62ff"/><path d="M365.22 77.87a6.28 6.28 0 00-1.29-6.18c-2-2-5.29-1.33-5.56-.38-2.15.58-1.57 3.39-.14 4.92 1.65 1.77 4.12 2.23 6.99 1.64z" fill="#fff" opacity=".6"/><path d="M365 83a4.59 4.59 0 00-3.59-3c-2-.24-3.61 1.66-3.33 2.32-1 1.31.66 2.64 2.16 2.86 1.76.29 3.36-.58 4.76-2.18z" fill="#6b62ff"/><path d="M365 83a4.59 4.59 0 00-3.59-3c-2-.24-3.61 1.66-3.33 2.32-1 1.31.66 2.64 2.16 2.86 1.76.29 3.36-.58 4.76-2.18z" fill="#fff" opacity=".8"/><path d="M368 78.83a3.65 3.65 0 002.15-3c.11-2-.93-3.07-2-2.54-1.09-.69-2.07.65-2.17 1.86a4.15 4.15 0 002.02 3.68z" fill="#6b62ff"/><path d="M368 78.83a3.65 3.65 0 002.15-3c.11-2-.93-3.07-2-2.54-1.09-.69-2.07.65-2.17 1.86a4.15 4.15 0 002.02 3.68z" fill="#fff" opacity=".4"/><path d="M374.45 101.2a.12.12 0 01-.13-.12c-.42-3.77-3.77-19.33-12.64-26.67a.13.13 0 010-.19.15.15 0 01.19 0c8.94 7.39 12.32 23.06 12.74 26.85a.15.15 0 01-.12.15z" fill="#6b62ff"/><path d="M367.42 81.14h-.07a.13.13 0 01-.05-.18 6.38 6.38 0 00.52-4 .14.14 0 01.1-.17.13.13 0 01.16.1 6.49 6.49 0 01-.54 4.2.13.13 0 01-.12.05zM372 85.47c.78 0 3.42-1.09 4.06-3.09.78-2.45-.58-4.06-2.11-3.74-1.58-1.7-3.38.18-3.65 1.92s.26 3.21 1.7 4.91z" fill="#6b62ff"/><path d="M372 85.47c.78 0 3.42-1.09 4.06-3.09.78-2.45-.58-4.06-2.11-3.74-1.58-1.7-3.38.18-3.65 1.92s.26 3.21 1.7 4.91z" fill="#fff" opacity=".7"/><path d="M370.69 87.59a.18.18 0 01-.09 0 .14.14 0 010-.19 8.79 8.79 0 002-4.57.14.14 0 01.15-.12.12.12 0 01.12.14 9 9 0 01-2.07 4.73.16.16 0 01-.11.01zM375.23 96.26c.9.1 4.09-.84 5.06-3.08 1.2-2.74-.18-4.76-2-4.58-1.63-2.15-3.94-.19-4.45 1.79s-.02 3.75 1.39 5.87z" fill="#6b62ff"/><path d="M375.23 96.26c.9.1 4.09-.84 5.06-3.08 1.2-2.74-.18-4.76-2-4.58-1.63-2.15-3.94-.19-4.45 1.79s-.02 3.75 1.39 5.87z" fill="#fff" opacity=".6"/><path d="M373.94 98.14a.16.16 0 01-.09 0 .13.13 0 010-.19 16.43 16.43 0 003.33-7.25.12.12 0 01.15-.11.14.14 0 01.12.15 16.72 16.72 0 01-3.45 7.35.14.14 0 01-.06.05zM370.51 93.37c-.7.82-4.21 2.58-6.87 1.44-3.24-1.4-3.68-4.26-2-5.56-.34-3.17 3.24-3.35 5.28-2.06s3.08 3.21 3.59 6.18z" fill="#6b62ff"/><path d="M370.51 93.37c-.7.82-4.21 2.58-6.87 1.44-3.24-1.4-3.68-4.26-2-5.56-.34-3.17 3.24-3.35 5.28-2.06s3.08 3.21 3.59 6.18z" fill="#fff" opacity=".4"/><path d="M372.55 93.69a13 13 0 01-6.63-2 .13.13 0 010-.19.13.13 0 01.19 0 12.5 12.5 0 006.73 2 .14.14 0 01.14.14.15.15 0 01-.13.14zM369.8 85.59a.18.18 0 01-.1 0c-1-1.08-4.1-2.79-8.26-3.08a.14.14 0 110-.27c3.79.26 7.11 1.79 8.43 3.16a.13.13 0 010 .19.12.12 0 01-.07 0z" fill="#6b62ff"/><path d="M374 139.29a.13.13 0 01-.1-.16c1.47-6.11.43-13.41-.66-21.14-1.72-12.13-3.67-25.88 3.86-38.2a.14.14 0 01.19 0 .13.13 0 010 .18c-7.47 12.24-5.53 25.94-3.82 38 1.1 7.76 2.13 15.09.65 21.24a.15.15 0 01-.12.08zM382.06 78.24c3.75-.93 4.94-4.86 5.57-7.2s-1.52-1.4-.71-2.48 2.94-4.52.11-6c-1.74-.91-2.24 1.17-4 .27s-1.66 2.81-3 2.33-2.74 2-3.33 3.34c-.73 1.66-2.72 7.07 1.46 9 3.43 1.56 3.9.74 3.9.74z" fill="#6b62ff"/><path d="M382.06 78.24c3.75-.93 4.94-4.86 5.57-7.2s-1.52-1.4-.71-2.48 2.94-4.52.11-6c-1.74-.91-2.24 1.17-4 .27s-1.66 2.81-3 2.33-2.74 2-3.33 3.34c-.73 1.66-2.72 7.07 1.46 9 3.43 1.56 3.9.74 3.9.74z" fill="#fff" opacity=".6"/><path d="M376.23 80.55c1.85 1.53 2.69-.38 2.87-1.19 2.08.9 3.72-.37 4.78-1.55a.36.36 0 00-.38-.58c-1.24.47-2.44.49-2.88 0 1-1.39.58-3.18-.93-3.46a2.21 2.21 0 00-2.43 1.42 4.26 4.26 0 01-1-3.31.36.36 0 00-.67-.22 5.13 5.13 0 001 6.62s-1.59 1.26-.36 2.27z" fill="#6b62ff"/><path d="M386.54 65.83c-1.26 3.53-5.87 7-5.87 7a10.15 10.15 0 005.87-7zM383.17 68.1c-2.3 2.69-4.76 2.46-5.68 4.52.93-3.03 5.68-4.52 5.68-4.52z" fill="#fff"/><path d="M356.51 78.31c-.65-.45-2.31-1.09-2 .55-.24 0-1.7.13-1.43 2.18s5.11 2.74 5.11 2.74.47-3.99-1.68-5.47z" fill="#6b62ff"/><path d="M356.51 78.31c-.65-.45-2.31-1.09-2 .55-.24 0-1.7.13-1.43 2.18s5.11 2.74 5.11 2.74.47-3.99-1.68-5.47z" fill="#fff" opacity=".6"/><path d="M360.66 81.56a5.92 5.92 0 00-4.15-3.25A11.78 11.78 0 00357 82s-3.2.8-3.89-1c-1 2.7-.44 4.58 2.17 5.71 2.1.97 6.84-2.13 5.38-5.15z" fill="#6b62ff"/><path d="M360.66 81.56a5.92 5.92 0 00-4.15-3.25A11.78 11.78 0 00357 82s-3.2.8-3.89-1c-1 2.7-.44 4.58 2.17 5.71 2.1.97 6.84-2.13 5.38-5.15z" fill="#fff" opacity=".3"/><path d="M361.37 88.07c1.62-1.15.21-2.37-.41-2.74 1.15-1.51.43-3.23-.33-4.44a.3.3 0 00-.55.2 5.4 5.4 0 010 .56 1.13 1.13 0 01-1.59 1 1.44 1.44 0 00-2 .67 1.8 1.8 0 00-.11 1.21 1.15 1.15 0 01-1.25 1.47 3.7 3.7 0 01-.86-.27c-.31-.15-.55.24-.32.5a4.27 4.27 0 005.66.92s.69 1.68 1.76.92z" fill="#6b62ff"/><path d="M372.18 109.18a.14.14 0 01-.13-.11c-1.12-6.38-5.42-17.48-11.46-22.2a.15.15 0 010-.19.14.14 0 01.19 0c6.1 4.77 10.43 15.95 11.56 22.37a.15.15 0 01-.11.16zM382.91 151.72a.13.13 0 01-.12-.08 145.19 145.19 0 00-9.79-16.83c-2.09-3.21-3.59-5.52-3.93-6.7a.09.09 0 010-.09c.86-1.91-1.06-9.5-6.77-16.19s-8.48-15.55-8.51-15.64a.14.14 0 01.09-.17.13.13 0 01.17.09c0 .09 2.89 9 8.45 15.55s7.79 14.15 6.83 16.42a41.92 41.92 0 003.89 6.58 145.12 145.12 0 019.78 16.87.14.14 0 01-.06.18z" fill="#6b62ff"/><path d="M369.18 128.21h-.06c-.91-.47-2.81-.45-5-.43-4.43 0-10.5.1-12.63-4a.15.15 0 01.06-.18.15.15 0 01.19.06c2 4 7.77 3.92 12.38 3.87 2.23 0 4.17 0 5.13.46a.14.14 0 01-.06.26zM364.6 114.77a.14.14 0 01-.1-.17c.09-.32.18-.63.26-.94.69-2.47 1.28-4.59 0-9.82-1.42-5.91-.36-7.77-.32-7.84a.13.13 0 01.19 0 .14.14 0 010 .19s-1 1.86.35 7.64c1.28 5.29.68 7.45 0 10-.08.31-.17.62-.25.94a.15.15 0 01-.13 0zM358.56 106.45a.14.14 0 01-.1 0 7.68 7.68 0 00-3.45-1.68c-3-1-7.08-2.25-10.06-8.18-3.08-6.12-7.81-6.28-7.85-6.29a.13.13 0 01-.14-.13c0-.08.08-.15.14-.14s4.94.17 8.09 6.44c2.93 5.83 7 7.1 9.91 8a7.87 7.87 0 013.56 1.75.14.14 0 010 .2.12.12 0 01-.1.03zM381.13 148.18a.15.15 0 01-.12-.07c-2.09-3.78-5.53-15.51-2.12-25.74a.13.13 0 01.17-.08.14.14 0 01.09.17c-3.45 10.34.33 22.32 2.1 25.52a.13.13 0 01-.05.18z" fill="#6b62ff"/><path d="M338.58 90.22c.12.66-.68 2.74-2.87 3.64s-6.77.07-7.44-1.52 2.21-2 3.84-2.87c3.06-1.53 6.06-1.63 6.47.75z" fill="#6b62ff"/><path d="M338.58 90.22c.12.66-.68 2.74-2.87 3.64s-6.77.07-7.44-1.52 2.21-2 3.84-2.87c3.06-1.53 6.06-1.63 6.47.75z" fill="#fff" opacity=".3"/><path d="M338.58 90.22c-3.63.09-5.49-2.88-6.19-6-.57-2.52 1.44-4.08 2.23-2.32s5.9 4.92 3.96 8.32z" fill="#6b62ff"/><path d="M338.58 90.22c-3.63.09-5.49-2.88-6.19-6-.57-2.52 1.44-4.08 2.23-2.32s5.9 4.92 3.96 8.32z" fill="#fff" opacity=".5"/><path d="M338.58 90.22c.27-1.33-5.13-5.24-9.27-4.46s-1.4 2.72 1.14 3.55 7.74 2.92 8.13.91z" fill="#6b62ff"/><path d="M338.58 90.22c.27-1.33-5.13-5.24-9.27-4.46s-1.4 2.72 1.14 3.55 7.74 2.92 8.13.91z" fill="#fff" opacity=".8"/><path d="M339.24 90.4a3.33 3.33 0 00-1.11-4.25c.75 2 .13 2.32.13 2.32a3 3 0 00-2.43-1.14c1.62 1.66 1.71 2.18 1.17 2.6a3.92 3.92 0 01-2.94.57 4 4 0 003 1.4c-1.37 1.35-2.5 2.29-3.8 2.33 2.42.77 4.92-1.5 5.98-3.83zM363.85 97.65a2.59 2.59 0 002.68-.53c1.09-.91 2-3.53 1.39-4.32a2.37 2.37 0 00-3.19.1c-1.24 1.64-1.96 3.89-.88 4.75z" fill="#6b62ff"/><path d="M363.85 97.65a2.59 2.59 0 002.68-.53c1.09-.91 2-3.53 1.39-4.32a2.37 2.37 0 00-3.19.1c-1.24 1.64-1.96 3.89-.88 4.75z" fill="#fff" opacity=".5"/><path d="M363.85 97.65a4 4 0 00-.43-5c-.94-1.14-2.08-.42-2.16.68s.31 4.42 2.59 4.32z" fill="#6b62ff"/><path d="M363.85 97.65a4 4 0 00-.43-5c-.94-1.14-2.08-.42-2.16.68s.31 4.42 2.59 4.32z" fill="#fff" opacity=".5"/><path d="M363.85 97.65c-.75-.22-1.78-4-.18-6s2.41-.09 2.09 1.47-.76 4.88-1.91 4.53z" fill="#6b62ff"/><path d="M363.85 97.65c-.75-.22-1.78-4-.18-6s2.41-.09 2.09 1.47-.76 4.88-1.91 4.53z" fill="#fff" opacity=".3"/><path d="M363.75 98a1.85 1.85 0 01-1.75-1.3.13.13 0 01.21-.13 1.73 1.73 0 00.37.3.26.26 0 00.38-.27 3.28 3.28 0 010-.34.27.27 0 01.51-.1c.24.59.44.67.71.54a2.42 2.42 0 00.82-.7.27.27 0 01.48.17 4.18 4.18 0 01-.07.51.25.25 0 00.4.26c.75-.51 1.3-1.29 1.66-1.07s-1.21 2.27-3.72 2.13zM356.18 94.2c1.55-3.94 1.09-7.56-.55-8-2.47-.6-4.49 2.87-5.66 1.29.57 5.51 3.47 7.09 6.21 6.71z" fill="#6b62ff"/><path d="M356.18 94.2c1.55-3.94 1.09-7.56-.55-8-2.47-.6-4.49 2.87-5.66 1.29.57 5.51 3.47 7.09 6.21 6.71z" fill="#fff" opacity=".5"/><path d="M356.89 93.94c1.87-2.86-4.77-3.44-6.12-6s-4.14 1.11-2.18 4.16 5.48 6.17 8.3 1.84z" fill="#6b62ff"/><path d="M356.89 93.94c1.87-2.86-4.77-3.44-6.12-6s-4.14 1.11-2.18 4.16 5.48 6.17 8.3 1.84z" fill="#fff" opacity=".3"/><path d="M354 97.17c-1.62-.59 2.36-4.45 3.12-7.51a.78.78 0 011.35-.31c2.53 3.46-1.39 8.96-4.47 7.82z" fill="#6b62ff"/><path d="M354 97.17c-1.13 1.15-4.86-.79-6-2.1s-1.8-3.38-.81-3.73c1.48-.52 5.11 4.38 8.88 2.58-.07 1.32-2.07 3.25-2.07 3.25z" fill="#6b62ff"/><path d="M355.74 93.69c-1.28-3.56-4-3.78-4.22-.18-.27 3.76 5.2 2.92 4.22.18zM349.5 121.1c-2.54-.26-4.26-.12-4.72 1.47a2.59 2.59 0 002.55 3.34c1.94 0 4.52 0 5-1.41s-.89-3.2-2.83-3.4z" fill="#6b62ff"/><path d="M349.5 121.1c-2.54-.26-4.26-.12-4.72 1.47a2.59 2.59 0 002.55 3.34c1.94 0 4.52 0 5-1.41s-.89-3.2-2.83-3.4z" fill="#fff" opacity=".2"/><path d="M351.4 118.45c-2.62-1.89-4.59-2.82-6.08-1.37a3.26 3.26 0 00.67 5.25c2.12 1.22 5 2.8 6.37 1.62s1.03-4.06-.96-5.5z" fill="#6b62ff"/><path d="M351.4 118.45c-2.62-1.89-4.59-2.82-6.08-1.37a3.26 3.26 0 00.67 5.25c2.12 1.22 5 2.8 6.37 1.62s1.03-4.06-.96-5.5z" fill="#fff" opacity=".3"/><path d="M353.49 123.83c-.37 1.46-1.8 2.67-3.38 1.67s-1.56-4.52-3.16-5.56c2.82-.49 7.1 1.69 6.54 3.89z" fill="#6b62ff"/><path d="M348.76 122.32a.24.24 0 01-.15-.06v-.11a.08.08 0 01.11 0h.11a2 2 0 00-.09-1.65s-.14-.13-.36.07a.07.07 0 01-.11 0 .08.08 0 010-.11c.29-.26.48-.15.58-.06a2 2 0 01.09 1.86.18.18 0 01-.18.06zM349.7 123.85a.34.34 0 01-.15 0 .08.08 0 01.07-.14h.14c.27-.32-.13-2.38-.58-3a.08.08 0 010-.11.08.08 0 01.11 0c.48.62.93 2.76.58 3.17a.22.22 0 01-.17.08z" fill="#fff" opacity=".2"/><path d="M352.73 124.57c-1.16.5-3.19-1-2.6-3.74a5.83 5.83 0 00-.22-4.16c4.78 2.55 5.09 6.93 2.82 7.9z" fill="#6b62ff"/><path d="M352.73 124.57c-1.16.5-3.19-1-2.6-3.74a5.83 5.83 0 00-.22-4.16c4.78 2.55 5.09 6.93 2.82 7.9z" fill="#fff" opacity=".5"/><path d="M378.07 119.76c2.68.63 3.47-2.59 5.3-2.13s-1 7.13-4.85 6-3.12-4.5-.45-3.87z" fill="#6b62ff"/><path d="M378.07 119.76c2.68.63 3.47-2.59 5.3-2.13s-1 7.13-4.85 6-3.12-4.5-.45-3.87z" fill="#fff" opacity=".3"/><path d="M374.07 117c0-5.84 8.1-4.34 9.89-2 1.1 1.44-.07 1.88-.52 2-1 .2-.73 1.21-2.14 2-1.64.93 2.37 4.21-1.84 4.22s-5.4-4.45-5.39-6.22z" fill="#6b62ff"/><path d="M378.51 122.38c.28-3.37-1.75-6.43-.91-6.87s.88 1.35 1.88 1 1.72 1.38.23 1.42c-1.3-.26-.27 3.43-.18 4.8a.65.65 0 01-1.02-.35z" fill="#fff" opacity=".8"/><path d="M379.09 123.91a.83.83 0 00.92-.73c.19-2.23-3.33-4.11-4.41-6.22-1.2-2.36-2.87-4.84-3.78-4.46-.51.21 1 2.41 1.31 5 .13 1.02.4 5.83 5.96 6.41z" fill="#6b62ff"/><path d="M379.09 123.91a.83.83 0 00.92-.73c.19-2.23-3.33-4.11-4.41-6.22-1.2-2.36-2.87-4.84-3.78-4.46-.51.21 1 2.41 1.31 5 .13 1.02.4 5.83 5.96 6.41z" fill="#fff" opacity=".5"/><path d="M374.77 137.33c-2-2.84-7.89-.59-10.3-3.51 4.6 8.54 13.42 7.86 10.3 3.51zM371.44 132.18c-1.13-1.28-.67-5.09 3.51-5.76-2.78 1.98-1.36 8.19-3.51 5.76zM366 116.9c-.41-.74-2.13-2.05-6.12.21 2.43.57 7.92 3.04 6.12-.21zM348.37 101.06c-1.05-.85-1.95-3.61-8.33 0 3.83.94 12.96 3.69 8.33 0zM359.82 108.33c-.72-1.26-3-4.54 1-7.88.5 3.25 2.18 13.35-1 7.88zM363.51 127.77c-2.27 0-4.09-3-4.24-4.23a.13.13 0 01.11-.15.14.14 0 01.16.12c.14 1.14 1.88 4 4 4a.13.13 0 01.14.13.14.14 0 01-.17.13z" fill="#6b62ff"/><path d="M360.43 125.52a14.39 14.39 0 01-1.26-5.24c-.82 2.08-1.37 3.81-.88 5 .56 1.4 2.71 1.4 2.14.24zM377.65 133.48a.13.13 0 01-.13-.11.13.13 0 01.1-.16c2-.51 3-3.69 2.89-4.83a.13.13 0 01.12-.15.13.13 0 01.15.11c.15 1.26-.9 4.57-3.1 5.13z" fill="#6b62ff"/><path d="M380.13 130.55a14.27 14.27 0 00-.05-5.39c1.3 1.82 2.26 3.36 2.07 4.67s-2.27 1.98-2.02.72z" fill="#6b62ff"/></g></svg>