<svg xmlns="http://www.w3.org/2000/svg" viewBox="0 0 500 500"><path d="M253.13 157.66c-30 44.81-129.45-8.29-157.75 57.53-46.82 108.89 144.17 135.09 229.13 82.61 90-55.58 115.92-177.78 45.42-216.31-58.64-32.05-84.79 28.43-116.8 76.17z" fill="#6c63ff"/><path d="M253.13 157.66c-30 44.81-129.45-8.29-157.75 57.53-46.82 108.89 144.17 135.09 229.13 82.61 90-55.58 115.92-177.78 45.42-216.31-58.64-32.05-84.79 28.43-116.8 76.17z" fill="#fff" opacity=".9"/><path d="M175.89 163.15h-12.48a3.27 3.27 0 00-2.82 1.62l-6.24 10.81a3.27 3.27 0 000 3.26l6.24 10.8a3.25 3.25 0 002.82 1.63h12.48a3.25 3.25 0 002.82-1.63l6.24-10.8a3.27 3.27 0 000-3.26l-6.24-10.81a3.27 3.27 0 00-2.82-1.62z" fill="#6c63ff"/><path d="M175.89 163.15h-12.48a3.27 3.27 0 00-2.82 1.62l-6.24 10.81a3.27 3.27 0 000 3.26l6.24 10.8a3.25 3.25 0 002.82 1.63h12.48a3.25 3.25 0 002.82-1.63l6.24-10.8a3.27 3.27 0 000-3.26l-6.24-10.81a3.27 3.27 0 00-2.82-1.62z" fill="#fff" opacity=".5"/><path d="M96 127.33l-.71-.71 6-6 .71.71zM106.33 117l-.71-.71 12.54-12.54.71.7z" fill="#6c63ff"/><path d="M96 127.33l-.71-.71 6-6 .71.71zM106.33 117l-.71-.71 12.54-12.54.71.7z" fill="#fff" opacity=".5"/><path d="M254.5 199.84v-45.26l-14-4.39c-.5-1.34-1.05-2.66-1.63-4l6.81-13-32-32-13 6.82c-1.31-.59-2.62-1.14-4-1.65l-4.39-14H147l-4.38 14c-1.35.51-2.66 1.06-4 1.65l-13-6.82-32 32 6.82 13c-.59 1.31-1.14 2.62-1.64 4l-14 4.39v45.26l14 4.38c.51 1.34 1.06 2.66 1.64 4l-6.82 13 32 32 13-6.82c1.3.59 2.61 1.14 4 1.65l4.38 14h45.26l4.39-14c1.34-.51 2.65-1.06 4-1.65l13 6.82 32-32-6.82-13c.58-1.3 1.14-2.62 1.64-4zm-51.17-22.64a33.68 33.68 0 11-33.68-33.68 33.69 33.69 0 0133.68 33.68z" fill="#6c63ff"/><path d="M254.5 199.84v-45.26l-14-4.39c-.5-1.34-1.05-2.66-1.63-4l6.81-13-32-32-13 6.82c-1.31-.59-2.62-1.14-4-1.65l-4.39-14H147l-4.38 14c-1.35.51-2.66 1.06-4 1.65l-13-6.82-32 32 6.82 13c-.59 1.31-1.14 2.62-1.64 4l-14 4.39v45.26l14 4.38c.51 1.34 1.06 2.66 1.64 4l-6.82 13 32 32 13-6.82c1.3.59 2.61 1.14 4 1.65l4.38 14h45.26l4.39-14c1.34-.51 2.65-1.06 4-1.65l13 6.82 32-32-6.82-13c.58-1.3 1.14-2.62 1.64-4zm-51.17-22.64a33.68 33.68 0 11-33.68-33.68 33.69 33.69 0 0133.68 33.68z" fill="#fff" opacity=".5"/><path d="M190.08 259.31h-40.85a.25.25 0 01-.24-.18l-4-12.62a.25.25 0 01.48-.15l3.89 12.45h40.48l4.16-13.14a.26.26 0 01.15-.16l1.37-.51c1.16-.44 2.39-.95 3.78-1.57l1.33-.6a.25.25 0 01.2.46l-1.33.59a64.63 64.63 0 01-3.8 1.58l-1.26.48-4.12 13.19a.26.26 0 01-.24.18zm23-9.53a.29.29 0 01-.18-.07.25.25 0 010-.36l28.76-28.75-6.39-12.2a.24.24 0 010-.22l.6-1.33c.6-1.35 1.11-2.59 1.56-3.77l.51-1.37a.26.26 0 01.16-.15l13.15-4.11V157l-13-4.06a.25.25 0 11.15-.47l13.14 4.1a.26.26 0 01.17.24v40.85a.25.25 0 01-.17.24l-13.17 4.1-.47 1.26c-.45 1.19-1 2.43-1.58 3.8l-.54 1.22 6.41 12.25a.24.24 0 010 .29l-28.88 28.89a.31.31 0 01-.22.07zm-86.87 0a.29.29 0 01-.18-.07l-28.88-28.89a.26.26 0 010-.29l6.47-12.36a.26.26 0 01.34-.11.25.25 0 01.1.34l-6.38 12.2 28.75 28.75a.25.25 0 010 .36.28.28 0 01-.21.07zm17-4.49h-.09c-1-.39-2.09-.85-3.3-1.39a.25.25 0 11.2-.45c1.2.53 2.27 1 3.28 1.37a.25.25 0 01.14.33.24.24 0 01-.25.14zm26.46-31.14a37 37 0 01-36.93-37 .25.25 0 01.5 0 36.43 36.43 0 1036.43-36.43.25.25 0 010-.5 36.94 36.94 0 010 73.88zm-68-10.73a.27.27 0 01-.24-.17l-.47-1.25-13.21-4.13a.25.25 0 01-.17-.24v-40.85a.26.26 0 01.17-.24l12.63-3.94a.26.26 0 01.32.16.27.27 0 01-.17.32L88.05 157v40.48l13.15 4.11a.23.23 0 01.15.15l.52 1.37a.25.25 0 01-.14.32zm0-52h-.09a.26.26 0 01-.14-.33c.48-1.28 1-2.5 1.55-3.74a.25.25 0 01.33-.12.25.25 0 01.13.33c-.56 1.22-1.06 2.44-1.54 3.71a.26.26 0 01-.26.18zm134.19-5.71h-.12a.25.25 0 01-.1-.34l6-11.55-4.8-4.82a.25.25 0 11.35-.35l5 5a.24.24 0 010 .29l-6.13 11.71a.25.25 0 01-.22.09zM97.33 134a.26.26 0 01-.18-.07.26.26 0 010-.35L126 104.71a.23.23 0 01.29 0l12.25 6.41 1.22-.54c1.18-.53 2.26-1 3.3-1.39a.25.25 0 01.33.14.25.25 0 01-.15.32c-1 .41-2.1.86-3.27 1.38l-1.33.6a.28.28 0 01-.22 0l-12.2-6.39L97.51 134a.24.24 0 01-.18 0zm135.52-9.12a.26.26 0 01-.18-.07L213 105.19l-12.2 6.39a.22.22 0 01-.21 0l-1.33-.6c-1.37-.61-2.61-1.12-3.78-1.57l-1.37-.51a.26.26 0 01-.15-.16l-4.11-13.14h-40.44l-3.54 11.31a.24.24 0 01-.31.16.25.25 0 01-.16-.31l3.6-11.48a.25.25 0 01.24-.17h40.85a.26.26 0 01.24.17l4.12 13.2 1.26.48c1.18.44 2.42 1 3.8 1.58l1.22.54 12.27-6.41a.24.24 0 01.29 0l19.71 19.8a.25.25 0 010 .36.26.26 0 01-.15.07z" fill="#fafafa"/><g><path d="M313.34 185.39c3.13 4 6.06 8 8.92 12.13s5.58 8.35 8.15 12.75c.65 1.09 1.27 2.23 1.9 3.35a13.49 13.49 0 011.57 5.49 28.65 28.65 0 01-.84 8.67 61.61 61.61 0 01-5.62 14.61l-5.15-2a115.55 115.55 0 002.21-14 23.47 23.47 0 00-.2-6.1 3.71 3.71 0 00-.61-1.56c-.66-1-1.3-2-2-3-2.71-4-5.58-7.91-8.47-11.84l-8.69-11.78z" fill="#ff8b7b"/><path d="M321.91 239.81l-2.66 4.76 9.28 1.37s1-4-1.33-6.76z" fill="#ff8b7b"/><path fill="#ff8b7b" d="M317.85 250.9l7.73.78 2.95-5.74-9.28-1.37-1.4 6.33z"/><path d="M343 279.3l2.76-14.69a6.55 6.55 0 017.63-5.23l23.17 4.34a30.62 30.62 0 00-46.73-16.44l-105.12-62.22a30.62 30.62 0 00-54.71-21.3l23.17 4.34a6.57 6.57 0 015.22 7.64l-2.76 14.7a6.56 6.56 0 01-7.63 5.23l-23.17-4.35a30.62 30.62 0 0047 16.27l104.91 62.1a30.62 30.62 0 0054.66 21.6l-23.17-4.35a6.57 6.57 0 01-5.23-7.64z" fill="#6c63ff"/><rect x="218.02" y="220.75" width="105.56" height="13.34" rx="3.26" transform="rotate(30.62 270.804 227.431)" fill="#6c63ff"/><rect x="218.02" y="220.75" width="105.56" height="13.34" rx="3.26" transform="rotate(30.62 270.804 227.431)" fill="#fff" opacity=".2"/><path d="M277.74 154.31c-.1.59-.48 1-.86 1s-.62-.59-.53-1.17.48-1 .86-.95.62.54.53 1.12z" fill="#263238"/><path d="M277.31 155.33a21.22 21.22 0 01-3.58 4.57 3.44 3.44 0 002.72 1z" fill="#ff5652"/><path d="M280.37 151.4a.33.33 0 01-.24-.1 2.75 2.75 0 00-2.37-.83.35.35 0 01-.42-.27.34.34 0 01.27-.41 3.43 3.43 0 013 1 .37.37 0 010 .5.39.39 0 01-.24.11z" fill="#263238"/><path d="M297.27 160.76c-1 5.38-2.1 15.23 1.66 18.81 0 0-1.47 5.45-11.46 5.45-11 0-5.25-5.45-5.25-5.45 6-1.43 5.84-5.88 4.8-10z" fill="#ff8b7b"/><path d="M304 183.61a1.93 1.93 0 01-.27-.58c-.84-3.19-4.37-5.68-8.95-5.81-4.83-.12-10.28.46-13.5 3.12-1.42 1.17.15 2.88.15 2.88z" fill="#6c63ff"/><path d="M304 183.61a1.93 1.93 0 01-.27-.58c-.84-3.19-4.37-5.68-8.95-5.81-4.83-.12-10.28.46-13.5 3.12-1.42 1.17.15 2.88.15 2.88z" fill="#fff" opacity=".5"/><path d="M339.31 384.83h-.07a.71.71 0 01-.6-.57.82.82 0 01.09-.68c.56-.95 3-1.45 3.07-1.47a.18.18 0 01.18.07.19.19 0 010 .19c-.37.63-1.74 2.46-2.67 2.46zm2.15-2.29c-.8.21-2.1.64-2.43 1.21a.42.42 0 000 .39c.09.31.25.33.29.34.45.06 1.51-1.02 2.14-1.94z" fill="#6c63ff"/><path d="M340.64 382.58c-.91 0-1.93-.17-2.24-.61a.58.58 0 01.06-.72 1 1 0 01.67-.38c1.1-.12 2.75 1.21 2.82 1.27a.17.17 0 01-.06.3 4.63 4.63 0 01-1.25.14zm-1.34-1.37h-.13a.57.57 0 00-.43.24c-.14.18-.08.27-.05.3.28.41 1.81.57 2.74.42a4.63 4.63 0 00-2.13-.96zM266.68 409.11c-.94 0-1.85-.13-2.16-.55a.66.66 0 010-.76.89.89 0 01.56-.41c1.22-.33 3.79 1.13 3.9 1.2a.17.17 0 01.08.18.18.18 0 01-.14.14 13.29 13.29 0 01-2.24.2zm-1.17-1.42a1.15 1.15 0 00-.33 0 .51.51 0 00-.34.24c-.13.22-.08.33 0 .39.34.47 2.2.48 3.57.29a7.87 7.87 0 00-2.9-.92z" fill="#6c63ff"/><path d="M268.9 408.91h-.07c-.89-.4-2.65-2-2.51-2.82 0-.2.17-.44.65-.49a1.3 1.3 0 011 .3c.94.77 1.13 2.75 1.14 2.83a.17.17 0 01-.07.16.19.19 0 01-.14.02zm-1.79-3H267c-.31 0-.33.15-.34.19-.08.5 1.12 1.75 2 2.29a4.08 4.08 0 00-1-2.26.92.92 0 00-.55-.2z" fill="#6c63ff"/><path fill="#ff8b7b" d="M276.98 408.74h-7.35l-.73-17.01h7.35l.73 17.01zM348.41 377.05l-5.96 4.3-14.06-10.84 5.96-4.29 14.06 10.83z"/><path d="M341.6 381.29l5.72-6a.63.63 0 01.79-.1l5.72 3.47a1.09 1.09 0 01.2 1.68c-2 2.05-3.13 2.94-5.64 5.56-1.55 1.61-5.75 7.27-7.89 9.5s-4.61.4-3.94-.7c3-4.94 4.46-9.84 4.54-12.28a1.81 1.81 0 01.5-1.13zM269.68 407.89h8a.64.64 0 01.63.5l1.45 6.53a1.07 1.07 0 01-1.06 1.3c-2.89 0-7.07-.21-10.71-.21-4.26 0-7.93.23-12.92.23-3 0-3.85-3.05-2.59-3.33 5.75-1.25 10.44-1.39 15.41-4.45a3.41 3.41 0 011.79-.57z" fill="#263238"/><path d="M303.06 195.08c1 1.85 2.13 3.64 3.22 5.31 1.88 2.89 3.7 5.39 5 7.11 1.17 1.55 1.92 2.46 1.92 2.46l14.8-10.09s-9-17.52-15.93-18.64c-7.13-1.13-13.66 5.55-9.01 13.85z" fill="#6c63ff"/><path d="M303.06 195.08c1 1.85 2.13 3.64 3.22 5.31 1.88 2.89 3.7 5.39 5 7.11 1.17 1.55 1.92 2.46 1.92 2.46l14.8-10.09s-9-17.52-15.93-18.64c-7.13-1.13-13.66 5.55-9.01 13.85z" opacity=".5"/><path d="M306.28 200.39c1.88 2.89 3.7 5.39 5 7.11-.15-3.44-.86-9-3.53-13.24-.97.96-1.36 3.44-1.47 6.13z" fill="#6c63ff"/><path d="M306.28 200.39c1.88 2.89 3.7 5.39 5 7.11-.15-3.44-.86-9-3.53-13.24-.97.96-1.36 3.44-1.47 6.13z" opacity=".6"/><path d="M267.31 205.56c0 2.5.06 5.25.2 8.28.36 8.24 1.26 18.51 3 31.27h39.29c.27-6-3.52-35.46 2.3-63.88a102.86 102.86 0 00-13.16-1.66 145.27 145.27 0 00-16.7 0 74.93 74.93 0 00-11.3 2s-3.64 4.13-3.63 23.99z" fill="#6c63ff"/><path d="M267.31 205.56c0 2.5.06 5.25.2 8.28.36 8.24 1.26 18.51 3 31.27h39.29c.27-6-3.52-35.46 2.3-63.88a102.86 102.86 0 00-13.16-1.66 145.27 145.27 0 00-16.7 0 74.93 74.93 0 00-11.3 2s-3.64 4.13-3.63 23.99z" opacity=".5"/><path d="M267.31 205.56c0 2.5.06 5.25.2 8.28 4.61-4.5 4.92-13.69 4.92-13.69z" fill="#6c63ff"/><path d="M267.31 205.56c0 2.5.06 5.25.2 8.28 4.61-4.5 4.92-13.69 4.92-13.69z" opacity=".6"/><path d="M275.5 194.15a35 35 0 01-2.5 3.64c-.83 1.08-1.66 2.1-2.51 3.11-1.69 2-3.5 3.93-5.34 5.8a74.19 74.19 0 01-12.45 10.16 40.75 40.75 0 01-3.75 2.08l-.51.24-.25.12-.31.13a11.41 11.41 0 01-1.52.52l-.73.19-.7.12a11.14 11.14 0 01-1.35.15 26.08 26.08 0 01-8.88-1.25 58.53 58.53 0 01-14.35-6.71l2.37-5a106.47 106.47 0 0013.87 3.16 19.68 19.68 0 006 .08 2.78 2.78 0 00.5-.13l.22-.06.16-.07c.13 0 .16-.1.24-.13l.6-.35a29.76 29.76 0 002.67-1.75 76.29 76.29 0 0010.25-9.28c1.63-1.71 3.2-3.5 4.73-5.28.76-.9 1.5-1.8 2.19-2.71s1.4-1.84 1.81-2.48z" fill="#ff8b7b"/><path d="M223.8 208.8l-4.88-5.8-3.32 8.48s4.21 2 7.49.84zM211.76 201.73l-1.36 6.77 5.2 2.97 3.32-8.48-7.16-1.26z" fill="#ff8b7b"/><path d="M281.39 190.17c-.87 7-16.75 21.75-16.75 21.75l-14.3-11.34a82.57 82.57 0 0112.52-14.53c10.36-8.98 19.58-4.24 18.53 4.12z" fill="#6c63ff"/><path d="M281.39 190.17c-.87 7-16.75 21.75-16.75 21.75l-14.3-11.34a82.57 82.57 0 0112.52-14.53c10.36-8.98 19.58-4.24 18.53 4.12z" opacity=".5"/><path d="M269 237.42c14.27 0 17.53-16.14 18.28-23.07a87.14 87.14 0 00-12.27-33 .89.89 0 01.59-1.35l3.13-.58a.93.93 0 01.93.41c8.59 13.75 11.4 25.41 12.31 31.41h2.56c2.62-5.7 8.39-18.69 7.92-30.86a.88.88 0 011-.93l3.36.33a.88.88 0 01.82.84c.49 11.73-6.14 28-8.69 33.17.87 19.14 11.52 22.45 11.52 22.45a72 72 0 01-.63 14.25c-22.55 3.66-33.79 1.43-40.22-1.23.5-4.81-.4-8.18-.61-11.84z" fill="#6c63ff"/><path d="M269 237.42c14.27 0 17.53-16.14 18.28-23.07a87.14 87.14 0 00-12.27-33 .89.89 0 01.59-1.35l3.13-.58a.93.93 0 01.93.41c8.59 13.75 11.4 25.41 12.31 31.41h2.56c2.62-5.7 8.39-18.69 7.92-30.86a.88.88 0 011-.93l3.36.33a.88.88 0 01.82.84c.49 11.73-6.14 28-8.69 33.17.87 19.14 11.52 22.45 11.52 22.45a72 72 0 01-.63 14.25c-22.55 3.66-33.79 1.43-40.22-1.23.5-4.81-.4-8.18-.61-11.84z" opacity=".3"/><path fill="#ff5652" d="M268.9 391.73l.38 8.77h7.35l-.38-8.77h-7.35zM334.36 366.22l-5.96 4.3 7.25 5.58 5.96-4.3-7.25-5.58z"/><path d="M297.46 156.13c-1.57 7.12-2.13 11.37-6.34 14.49-6.33 4.7-14.69 0-15.28-7.43-.53-6.7 2.12-17.22 9.61-19a10 10 0 0112.01 11.94z" fill="#ff8b7b"/><path d="M303.81 145.08c6.25.17 3.68 3.46.55 5.27 0 0 3.61 1.73 1.75 5.86-2.82 6.27-8.22 13.16-13.73 12.78-6.86-.47-8.81-7.93-8.56-15.29-3.62-3.41-4.23-5.29-4.79-9.39-1.13-8.13 3.97-12.6 24.78.77z" fill="#263238"/><path d="M295.76 131.38a16.66 16.66 0 0112 20.27l-32.29-8.24a16.67 16.67 0 0120.29-12.03z" fill="#6c63ff"/><path d="M295.76 131.38a16.66 16.66 0 0112 20.27l-32.29-8.24a16.67 16.67 0 0120.29-12.03z" fill="#fff" opacity=".5"/><path d="M302.14 151.67a1.44 1.44 0 01-1.41-1.82 13.34 13.34 0 00-1.91-10.69 16.14 16.14 0 00-9.63-6.75 1.46 1.46 0 01.72-2.83 19.05 19.05 0 0111.35 8 16.24 16.24 0 012.3 13 1.46 1.46 0 01-1.42 1.09z" fill="#6c63ff"/><path d="M302.14 151.67a1.44 1.44 0 01-1.41-1.82 13.34 13.34 0 00-1.91-10.69 16.14 16.14 0 00-9.63-6.75 1.46 1.46 0 01.72-2.83 19.05 19.05 0 0111.35 8 16.24 16.24 0 012.3 13 1.46 1.46 0 01-1.42 1.09z" fill="#fff" opacity=".3"/><path d="M271 143.84l38 9.7a1.54 1.54 0 001.87-1.11 1.55 1.55 0 00-1.11-1.88l-38-9.7a1.55 1.55 0 00-1.88 1.12 1.54 1.54 0 001.12 1.87z" fill="#6c63ff"/><path d="M271 143.84l38 9.7a1.54 1.54 0 001.87-1.11 1.55 1.55 0 00-1.11-1.88l-38-9.7a1.55 1.55 0 00-1.88 1.12 1.54 1.54 0 001.12 1.87z" fill="#fff" opacity=".3"/><path d="M287.57 155.46a8.16 8.16 0 01-2.22 4.8c-1.66 1.71-3.3.56-3.51-1.6-.19-1.94.45-5.17 2.44-6.07s3.5.7 3.29 2.87z" fill="#ff8b7b"/><path d="M284.43 245.11s-.85 52.28 5.72 72.78c10.41 32.47 41.85 58.77 41.85 58.77l11.24-8.11s-26.18-22.22-30.98-49.55c-4.31-24.57-2.48-53.8-2.48-73.87z" fill="#6c63ff"/><path d="M284.43 245.11s-.85 52.28 5.72 72.78c10.41 32.47 41.85 58.77 41.85 58.77l11.24-8.11s-26.18-22.22-30.98-49.55c-4.31-24.57-2.48-53.8-2.48-73.87z" opacity=".3"/><path d="M291.76 254.09c1.39 9.42-3.52 35.65-5.22 44.24-1.78-16.06-2.11-35.11-2.14-45.51 3.6-2.44 6.72-3.07 7.36 1.27z" fill="#6c63ff"/><path d="M291.76 254.09c1.39 9.42-3.52 35.65-5.22 44.24-1.78-16.06-2.11-35.11-2.14-45.51 3.6-2.44 6.72-3.07 7.36 1.27z" opacity=".4"/><path d="M327.19 374.29c-.05 0 4.62 2.75 4.62 2.75l12.27-8.86-4.08-3.13z" fill="#6c63ff"/><path d="M327.19 374.29c-.05 0 4.62 2.75 4.62 2.75l12.27-8.86-4.08-3.13z" fill="#fff" opacity=".4"/><path d="M270.49 245.11s-11.07 46.9-11.85 69.3c-.87 25.13 7.9 84.39 7.9 84.39H279s1.54-59.72 2.09-82.61c.6-24.95 15.25-71.08 15.25-71.08z" fill="#6c63ff"/><path d="M270.49 245.11s-11.07 46.9-11.85 69.3c-.87 25.13 7.9 84.39 7.9 84.39H279s1.54-59.72 2.09-82.61c.6-24.95 15.25-71.08 15.25-71.08z" opacity=".3"/><path d="M264.14 393.84c-.05 0 .71 5.17.71 5.17H280l.41-4.61z" fill="#6c63ff"/><path d="M264.14 393.84c-.05 0 .71 5.17.71 5.17H280l.41-4.61z" fill="#fff" opacity=".4"/></g></svg>