<svg xmlns="http://www.w3.org/2000/svg" viewBox="0 0 500 500"><path d="M253.13 157.66c-30 44.81-129.45-8.29-157.75 57.53-46.82 108.89 144.17 135.09 229.13 82.61 90-55.58 115.92-177.78 45.42-216.31-58.64-32.05-84.79 28.43-116.8 76.17z" fill="#6c63ff"/><path d="M253.13 157.66c-30 44.81-129.45-8.29-157.75 57.53-46.82 108.89 144.17 135.09 229.13 82.61 90-55.58 115.92-177.78 45.42-216.31-58.64-32.05-84.79 28.43-116.8 76.17z" fill="#fff" opacity=".9"/><path d="M175.89 163.15h-12.48l-6.24 10.81 6.24 10.8h12.48l6.24-10.8-6.24-10.81z" fill="#6c63ff"/><path d="M175.89 163.15h-12.48l-6.24 10.81 6.24 10.8h12.48l6.24-10.8-6.24-10.81z" fill="#fff" opacity=".5"/><path d="M96 127.33l-.71-.71 6-6 .71.71zM106.33 117l-.71-.71 12.54-12.54.71.7z" fill="#6c63ff"/><path d="M96 127.33l-.71-.71 6-6 .71.71zM106.33 117l-.71-.71 12.54-12.54.71.7z" fill="#fff" opacity=".5"/><path d="M254.5 199.84v-45.26l-14-4.39c-.5-1.34-1.05-2.66-1.63-4l6.81-13-32-32-13 6.82c-1.31-.59-2.62-1.14-4-1.65l-4.39-14H147l-4.38 14c-1.35.51-2.66 1.06-4 1.65l-13-6.82-32 32 6.82 13c-.59 1.31-1.14 2.62-1.64 4l-14 4.39v45.26l14 4.38c.51 1.34 1.06 2.66 1.64 4l-6.82 13 32 32 13-6.82c1.3.59 2.61 1.14 4 1.65l4.38 14h45.26l4.39-14c1.34-.51 2.65-1.06 4-1.65l13 6.82 32-32-6.82-13c.58-1.3 1.14-2.62 1.64-4zm-51.17-22.64z" fill="#6c63ff"/><path d="M254.5 199.84v-45.26l-14-4.39c-.5-1.34-1.05-2.66-1.63-4l6.81-13-32-32-13 6.82c-1.31-.59-2.62-1.14-4-1.65l-4.39-14H147l-4.38 14c-1.35.51-2.66 1.06-4 1.65l-13-6.82-32 32 6.82 13c-.59 1.31-1.14 2.62-1.64 4l-14 4.39v45.26l14 4.38c.51 1.34 1.06 2.66 1.64 4l-6.82 13 32 32 13-6.82c1.3.59 2.61 1.14 4 1.65l4.38 14h45.26l4.39-14c1.34-.51 2.65-1.06 4-1.65l13 6.82 32-32-6.82-13c.58-1.3 1.14-2.62 1.64-4zm-51.17-22.64z" fill="#fff" opacity=".5"/><path d="M190.08 259.31h-40.85l-4-12.62 3.89 12.45h40.48l4.16-13.14 1.37-.51c1.16-.44 2.39-.95 3.78-1.57l1.33-.6-1.33.59-1.26.48-4.12 13.19zm23-9.53 28.76-28.75-6.39-12.2.6-1.33c.6-1.35 1.11-2.59 1.56-3.77l.51-1.37 13.15-4.11V157l-13-4.06 13.14 4.1v40.85l-13.17 4.1-.47 1.26c-.45 1.19-1 2.43-1.58 3.8l-.54 1.22 6.41 12.25-28.88 28.89zm-86.87.0-28.88-28.89 6.47-12.36-6.38 12.2 28.75 28.75zm17-4.49h-.09c-1-.39-2.09-.85-3.3-1.39 1.2.53 2.27 1 3.28 1.37zm26.46-31.14zm-68-10.73-.47-1.25-13.21-4.13v-40.85l12.63-3.94L88.05 157v40.48l13.15 4.11.52 1.37zm0-52h-.09c.48-1.28 1-2.5 1.55-3.74-.56 1.22-1.06 2.44-1.54 3.71zm134.19-5.71h-.12l6-11.55-4.8-4.82 5 5-6.13 11.71zM97.33 134 126 104.71l12.25 6.41 1.22-.54c1.18-.53 2.26-1 3.3-1.39-1 .41-2.1.86-3.27 1.38l-1.33.6-12.2-6.39L97.51 134zm135.52-9.12L213 105.19l-12.2 6.39-1.33-.6c-1.37-.61-2.61-1.12-3.78-1.57l-1.37-.51-4.11-13.14h-40.44l-3.54 11.31 3.6-11.48h40.85l4.12 13.2 1.26.48c1.18.44 2.42 1 3.8 1.58l1.22.54 12.27-6.41 19.71 19.8z" fill="#fafafa"/><g><path d="M313.34 185.39c3.13 4 6.06 8 8.92 12.13s5.58 8.35 8.15 12.75c.65 1.09 1.27 2.23 1.9 3.35l-5.15-2c-.66-1-1.3-2-2-3-2.71-4-5.58-7.91-8.47-11.84l-8.69-11.78z" fill="#ff8b7b"/><path d="M321.91 239.81l-2.66 4.76 9.28 1.37s1-4-1.33-6.76z" fill="#ff8b7b"/><path fill="#ff8b7b" d="M317.85 250.9l7.73.78 2.95-5.74-9.28-1.37-1.4 6.33z"/><path d="M343 279.3l2.76-14.69 23.17 4.34-105.12-62.22 23.17 4.34-2.76 14.7-23.17-4.35 104.91 62.1-23.17-4.35z" fill="#6c63ff"/><rect x="218.02" y="220.75" width="105.56" height="13.34" rx="3.26" transform="rotate(30.62 270.804 227.431)" fill="#6c63ff"/><rect x="218.02" y="220.75" width="105.56" height="13.34" rx="3.26" transform="rotate(30.62 270.804 227.431)" fill="#fff" opacity=".2"/><path d="M277.74 154.31c-.1.59-.48 1-.86 1s-.62-.59-.53-1.17.48-1 .86-.95.62.54.53 1.12z" fill="#263238"/><path d="M277.31 155.33z" fill="#ff5652"/><path d="M280.37 151.4z" fill="#263238"/><path d="M297.27 160.76c-1 5.38-2.1 15.23 1.66 18.81.0.0-1.47 5.45-11.46 5.45-11 0-5.25-5.45-5.25-5.45 6-1.43 5.84-5.88 4.8-10z" fill="#ff8b7b"/><path d="M304 183.61c-.84-3.19-4.37-5.68-8.95-5.81-4.83-.12-10.28.46-13.5 3.12-1.42 1.17.15 2.88.15 2.88z" fill="#6c63ff"/><path d="M304 183.61c-.84-3.19-4.37-5.68-8.95-5.81-4.83-.12-10.28.46-13.5 3.12-1.42 1.17.15 2.88.15 2.88z" fill="#fff" opacity=".5"/><path d="M339.31 384.83h-.07c.56-.95 3-1.45 3.07-1.47-.37.63-1.74 2.46-2.67 2.46zm2.15-2.29c-.8.21-2.1.64-2.43 1.21.09.31.25.33.29.34.45.06 1.51-1.02 2.14-1.94z" fill="#6c63ff"/><path d="M340.64 382.58c-.91.0-1.93-.17-2.24-.61 1.1-.12 2.75 1.21 2.82 1.27zm-1.34-1.37h-.13c-.14.18-.08.27-.05.3.28.41 1.81.57 2.74.42zM266.68 409.11c-.94.0-1.85-.13-2.16-.55 1.22-.33 3.79 1.13 3.9 1.2zm-1.17-1.42c-.13.22-.08.33.0.39.34.47 2.2.48 3.57.29z" fill="#6c63ff"/><path d="M268.9 408.91h-.07c-.89-.4-2.65-2-2.51-2.82.0-.2.17-.44.65-.49.94.77 1.13 2.75 1.14 2.83zm-1.79-3H267c-.31.0-.33.15-.34.19-.08.5 1.12 1.75 2 2.29z" fill="#6c63ff"/><path fill="#ff8b7b" d="M276.98 408.74h-7.35l-.73-17.01h7.35l.73 17.01zM348.41 377.05l-5.96 4.3-14.06-10.84 5.96-4.29 14.06 10.83z"/><path d="M341.6 381.29l5.72-6 5.72 3.47c-2 2.05-3.13 2.94-5.64 5.56-1.55 1.61-5.75 7.27-7.89 9.5s-4.61.4-3.94-.7c3-4.94 4.46-9.84 4.54-12.28zM269.68 407.89h8l1.45 6.53c-2.89.0-7.07-.21-10.71-.21-4.26.0-7.93.23-12.92.23-3 0-3.85-3.05-2.59-3.33 5.75-1.25 10.44-1.39 15.41-4.45z" fill="#263238"/><path d="M303.06 195.08c1 1.85 2.13 3.64 3.22 5.31 1.88 2.89 3.7 5.39 5 7.11 1.17 1.55 1.92 2.46 1.92 2.46l14.8-10.09s-9-17.52-15.93-18.64c-7.13-1.13-13.66 5.55-9.01 13.85z" fill="#6c63ff"/><path d="M303.06 195.08c1 1.85 2.13 3.64 3.22 5.31 1.88 2.89 3.7 5.39 5 7.11 1.17 1.55 1.92 2.46 1.92 2.46l14.8-10.09s-9-17.52-15.93-18.64c-7.13-1.13-13.66 5.55-9.01 13.85z" opacity=".5"/><path d="M306.28 200.39c1.88 2.89 3.7 5.39 5 7.11-.15-3.44-.86-9-3.53-13.24-.97.96-1.36 3.44-1.47 6.13z" fill="#6c63ff"/><path d="M306.28 200.39c1.88 2.89 3.7 5.39 5 7.11-.15-3.44-.86-9-3.53-13.24-.97.96-1.36 3.44-1.47 6.13z" opacity=".6"/><path d="M267.31 205.56c0 2.5.06 5.25.2 8.28.36 8.24 1.26 18.51 3 31.27h39.29c.27-6-3.52-35.46 2.3-63.88s-3.64 4.13-3.63 23.99z" fill="#6c63ff"/><path d="M267.31 205.56c0 2.5.06 5.25.2 8.28.36 8.24 1.26 18.51 3 31.27h39.29c.27-6-3.52-35.46 2.3-63.88s-3.64 4.13-3.63 23.99z" opacity=".5"/><path d="M267.31 205.56c0 2.5.06 5.25.2 8.28 4.61-4.5 4.92-13.69 4.92-13.69z" fill="#6c63ff"/><path d="M267.31 205.56c0 2.5.06 5.25.2 8.28 4.61-4.5 4.92-13.69 4.92-13.69z" opacity=".6"/><path d="M275.5 194.15c-.83 1.08-1.66 2.1-2.51 3.11-1.69 2-3.5 3.93-5.34 5.8l-.51.24-.25.12-.31.13-.73.19-.7.12 2.37-5 .22-.06.16-.07c.13.0.16-.1.24-.13l.6-.35c1.63-1.71 3.2-3.5 4.73-5.28.76-.9 1.5-1.8 2.19-2.71s1.4-1.84 1.81-2.48z" fill="#ff8b7b"/><path d="M223.8 208.8l-4.88-5.8-3.32 8.48s4.21 2 7.49.84zM211.76 201.73l-1.36 6.77 5.2 2.97 3.32-8.48-7.16-1.26z" fill="#ff8b7b"/><path d="M281.39 190.17c-.87 7-16.75 21.75-16.75 21.75l-14.3-11.34c10.36-8.98 19.58-4.24 18.53 4.12z" fill="#6c63ff"/><path d="M281.39 190.17c-.87 7-16.75 21.75-16.75 21.75l-14.3-11.34c10.36-8.98 19.58-4.24 18.53 4.12z" opacity=".5"/><path d="M269 237.42c14.27.0 17.53-16.14 18.28-23.07l3.13-.58c8.59 13.75 11.4 25.41 12.31 31.41h2.56c2.62-5.7 8.39-18.69 7.92-30.86l3.36.33c.49 11.73-6.14 28-8.69 33.17.87 19.14 11.52 22.45 11.52 22.45-22.55 3.66-33.79 1.43-40.22-1.23.5-4.81-.4-8.18-.61-11.84z" fill="#6c63ff"/><path d="M269 237.42c14.27.0 17.53-16.14 18.28-23.07l3.13-.58c8.59 13.75 11.4 25.41 12.31 31.41h2.56c2.62-5.7 8.39-18.69 7.92-30.86l3.36.33c.49 11.73-6.14 28-8.69 33.17.87 19.14 11.52 22.45 11.52 22.45-22.55 3.66-33.79 1.43-40.22-1.23.5-4.81-.4-8.18-.61-11.84z" opacity=".3"/><path fill="#ff5652" d="M268.9 391.73l.38 8.77h7.35l-.38-8.77h-7.35zM334.36 366.22l-5.96 4.3 7.25 5.58 5.96-4.3-7.25-5.58z"/><path d="M297.46 156.13c-1.57 7.12-2.13 11.37-6.34 14.49-6.33 4.7-14.69.0-15.28-7.43-.53-6.7 2.12-17.22 9.61-19z" fill="#ff8b7b"/><path d="M303.81 145.08c6.25.17 3.68 3.46.55 5.27.0.0 3.61 1.73 1.75 5.86-2.82 6.27-8.22 13.16-13.73 12.78-6.86-.47-8.81-7.93-8.56-15.29-3.62-3.41-4.23-5.29-4.79-9.39-1.13-8.13 3.97-12.6 24.78.77z" fill="#263238"/><path d="M295.76 131.38l-32.29-8.24z" fill="#6c63ff"/><path d="M295.76 131.38l-32.29-8.24z" fill="#fff" opacity=".5"/><path d="M302.14 151.67z" fill="#6c63ff"/><path d="M302.14 151.67z" fill="#fff" opacity=".3"/><path d="M271 143.84l38 9.7-38-9.7z" fill="#6c63ff"/><path d="M271 143.84l38 9.7-38-9.7z" fill="#fff" opacity=".3"/><path d="M287.57 155.46c-1.66 1.71-3.3.56-3.51-1.6-.19-1.94.45-5.17 2.44-6.07s3.5.7 3.29 2.87z" fill="#ff8b7b"/><path d="M284.43 245.11s-.85 52.28 5.72 72.78c10.41 32.47 41.85 58.77 41.85 58.77l11.24-8.11s-26.18-22.22-30.98-49.55c-4.31-24.57-2.48-53.8-2.48-73.87z" fill="#6c63ff"/><path d="M284.43 245.11s-.85 52.28 5.72 72.78c10.41 32.47 41.85 58.77 41.85 58.77l11.24-8.11s-26.18-22.22-30.98-49.55c-4.31-24.57-2.48-53.8-2.48-73.87z" opacity=".3"/><path d="M291.76 254.09c1.39 9.42-3.52 35.65-5.22 44.24-1.78-16.06-2.11-35.11-2.14-45.51 3.6-2.44 6.72-3.07 7.36 1.27z" fill="#6c63ff"/><path d="M291.76 254.09c1.39 9.42-3.52 35.65-5.22 44.24-1.78-16.06-2.11-35.11-2.14-45.51 3.6-2.44 6.72-3.07 7.36 1.27z" opacity=".4"/><path d="M327.19 374.29c-.05.0 4.62 2.75 4.62 2.75l12.27-8.86-4.08-3.13z" fill="#6c63ff"/><path d="M327.19 374.29c-.05.0 4.62 2.75 4.62 2.75l12.27-8.86-4.08-3.13z" fill="#fff" opacity=".4"/><path d="M270.49 245.11s-11.07 46.9-11.85 69.3c-.87 25.13 7.9 84.39 7.9 84.39H279s1.54-59.72 2.09-82.61c.6-24.95 15.25-71.08 15.25-71.08z" fill="#6c63ff"/><path d="M270.49 245.11s-11.07 46.9-11.85 69.3c-.87 25.13 7.9 84.39 7.9 84.39H279s1.54-59.72 2.09-82.61c.6-24.95 15.25-71.08 15.25-71.08z" opacity=".3"/><path d="M264.14 393.84c-.05.0.71 5.17.71 5.17H280l.41-4.61z" fill="#6c63ff"/><path d="M264.14 393.84c-.05.0.71 5.17.71 5.17H280l.41-4.61z" fill="#fff" opacity=".4"/></g></svg>