<svg xmlns="http://www.w3.org/2000/svg" viewBox="0 0 750 500"><path d="M191.74 414.91h312.78a219.11 219.11 0 0055-44.71c50.74-57.27 69.39-154.1 43.34-225.91l-2.4-5.17c-19.28-41.56-59.71-70.29-105.89-73.66a125.82 125.82 0 00-19.51.08c-43.29 3.57-83.86 30.08-104 68-11.85 22.28-17.68 48.91-37 65.38-25.1 21.43-62.73 17.54-95.62 12.46s-70.55-8.88-95.55 12.66c-15.66 13.49-22.72 34.55-24.12 55-3.69 53.47 27.93 105.64 72.97 135.87z" fill="#e0e0e0"/><rect x="175.89" y="156.3" width="384.52" height="254.28" rx="14.57" fill="#455a64"/><path d="M160.86 394.16h416.6v4.45a17.8 17.8 0 01-17.8 17.8h-381a17.8 17.8 0 01-17.8-17.8v-4.45z" fill="#455a64"/><path fill="#263238" d="M186.21 166.4h362.8v214.73h-362.8zM330.25 391.77l5.16 8.23h72.75l4.8-8.23h-82.71z"/><rect x="193.69" y="173.67" width="348.6" height="206.78" rx="3.27" fill="#ebebeb"/><path fill="#fafafa" d="M541.91 380.75h-348.6l.38-191.62h348.22v191.62z"/><path d="M222.28 181.66a2.79 2.79 0 11-2.79-2.78 2.78 2.78 0 012.79 2.78zM205.4 181.66a2.79 2.79 0 11-2.78-2.78 2.77 2.77 0 012.78 2.78zM213.5 181.66a2.79 2.79 0 11-2.78-2.78 2.77 2.77 0 012.78 2.78zM557.1 391.77c0 .14-85.34.25-190.59.25s-190.62-.11-190.62-.25 85.33-.25 190.62-.25 190.59.12 190.59.25z" fill="#263238"/><path fill="#6c63ff" d="M305.31 263.98l141.83-1.32 4.15 96.41-146.86-1.05.88-94.04z"/><path d="M305.31 264l67-54.45a7.72 7.72 0 019.74 0l65.08 53.12" fill="#6c63ff"/><path d="M305.31 264l67-54.45a7.72 7.72 0 019.74 0l65.08 53.12" opacity=".3"/><path d="M304.43 358c-.17-.17 11.15-12.59 25.3-27.74s25.77-27.26 25.95-27.12-11.15 12.58-25.31 27.74-25.76 27.3-25.94 27.12zM451.29 359.07c-.18.17-11.26-12-24.75-27.07s-24.28-27.5-24.1-27.66 11.26 12 24.76 27.08 24.27 27.49 24.09 27.65z" fill="#263238"/><path d="M447.14 262.66l-71.1 57.04-70.73-55.72" opacity=".5"/><path fill="#fafafa" d="M312.47 269.24l-.32-44.3 124.19-1.72 1.49 46.6-61.8 49.13-63.56-49.71z"/><path d="M312.47 269.24s.41.29 1.18.88l3.38 2.61 12.86 10c11.08 8.65 27 21 46.27 36.08h-.26l61.77-49.17-.09.21c-.29-8.89-.59-18.22-.89-27.71-.21-6.39-.41-12.71-.61-18.9l.26.25-124.18 1.64.16-.17c.06 13.93.12 25 .15 32.58V266.28c0-2-.06-4.9-.1-8.68-.07-7.61-.18-18.68-.31-32.64v-.16h.16l124.11-1.8h.26v.26c.2 6.19.4 12.5.61 18.89.3 9.49.6 18.82.88 27.71v.13l-.1.08-61.84 49.1-.13.11-.13-.11-46.22-36.27-12.76-10.06-3.33-2.64z" fill="#263238"/><path d="M416.76 245.56c0 .14-19 .41-42.42.6s-42.42.23-42.42.09 19-.41 42.42-.61 42.42-.23 42.42-.08zM416.78 258.07c0 .14-19 .42-42.41.61s-42.42.23-42.42.08 19-.41 42.42-.6 42.41-.23 42.41-.09zM416.81 272.49c0 .15-19 .42-42.41.61s-42.42.23-42.42.08 19-.41 42.42-.6 42.41-.23 42.41-.09zM416.84 286.91c0 .15-18.11.41-40.46.59s-40.47.22-40.47.07 18.11-.41 40.47-.59 40.46-.21 40.46-.07zM401 299.6a1.65 1.65 0 01-.5.06l-1.43.06-5.24.13-17.31.32c-6.76.12-12.89.16-17.32.16h-6.67a2 2 0 01-.5-.05 1.65 1.65 0 01.5-.06l1.42-.06 5.25-.13 17.31-.31c6.76-.13 12.88-.17 17.31-.17h6.68a2.55 2.55 0 01.5.05zM385 311.8a76.73 76.73 0 01-9 .28 77.38 77.38 0 01-9-.24 79.42 79.42 0 019-.28 80.12 80.12 0 019 .24z" fill="#263238"/><g><path d="M401.76 222.83c.14 0 .2.58.13 1.27s-.24 1.23-.38 1.22-.2-.59-.13-1.28.23-1.23.38-1.21zM403.09 213.09a6.09 6.09 0 01-.11 2.46 6.18 6.18 0 01-.63 2.39 11.6 11.6 0 01.74-4.85zM405.05 203.45a6 6 0 01-.27 2.46 6.14 6.14 0 01-.79 2.34 5.91 5.91 0 01.28-2.45 6 6 0 01.78-2.35zM407.72 194a11.53 11.53 0 01-1.43 4.71 6.14 6.14 0 01.47-2.43 5.88 5.88 0 01.96-2.28zM411.15 184.78a6.15 6.15 0 01-.67 2.38 6 6 0 01-1.15 2.19A6.19 6.19 0 01410 187a5.92 5.92 0 011.15-2.22zM415.41 175.93a11.85 11.85 0 01-2.24 4.37 6 6 0 01.89-2.3c.62-1.21 1.22-2.14 1.35-2.07zM420.55 167.55a6.12 6.12 0 01-1.15 2.19c-.72 1.14-1.41 2-1.53 1.93a5.81 5.81 0 011.09-2.22c.76-1.13 1.47-1.98 1.59-1.9zM426.61 159.81a6.23 6.23 0 01-1.37 2.06c-.87 1-1.66 1.81-1.78 1.72s.5-1 1.38-2.05 1.66-1.82 1.77-1.73zM433.53 152.84c.1.11-.62.95-1.6 1.88s-1.86 1.6-2 1.5.61-.94 1.6-1.88 1.91-1.61 2-1.5zM441.27 146.78c.08.12-.74.87-1.83 1.67a6.06 6.06 0 01-2.13 1.24c-.09-.11.73-.86 1.83-1.66a5.9 5.9 0 012.13-1.25zM449.75 141.81a11.7 11.7 0 01-4.33 2.34c-.07-.13.84-.75 2-1.4a5.91 5.91 0 012.33-.94zM458.85 138.11a6.24 6.24 0 01-2.22 1.08 5.93 5.93 0 01-2.4.59 6.09 6.09 0 012.22-1.08 5.77 5.77 0 012.4-.59zM468.41 135.88a6.2 6.2 0 01-2.37.66 6 6 0 01-2.45.25 9.83 9.83 0 014.82-.91zM478.22 135.34a6.08 6.08 0 01-2.45.28 5.85 5.85 0 01-2.46-.23 6.1 6.1 0 012.45-.29 5.84 5.84 0 012.46.24zM488 136.49a6.07 6.07 0 01-2.47-.14 5.94 5.94 0 01-2.39-.65 11.87 11.87 0 014.86.79zM497.39 139.3a11.61 11.61 0 01-4.65-1.62 6.32 6.32 0 012.41.56 5.91 5.91 0 012.24 1.06zM506.14 143.76a6.23 6.23 0 01-2.26-1 6.06 6.06 0 01-2-1.45 6 6 0 012.26 1c1.18.69 2.08 1.33 2 1.45zM513.84 149.84a6.27 6.27 0 01-2-1.43c-1-.88-1.76-1.7-1.67-1.81s1 .52 2 1.42 1.77 1.72 1.67 1.82zM518.7 155.44c-.12.08-.55-.29-1-.83s-.67-1.05-.56-1.15.54.28 1 .83.68 1.06.56 1.15zM564.94 215.69a6.13 6.13 0 01-2.37-.82c-1.26-.58-2.23-1.16-2.16-1.29a6.52 6.52 0 012.38.82 6.28 6.28 0 012.15 1.29zM574.38 219a12.16 12.16 0 01-4.78-1.46 12 12 0 014.78 1.46zM584.25 220.55a6.18 6.18 0 01-2.52 0 6.1 6.1 0 01-2.45-.53 6.38 6.38 0 012.51 0 6.29 6.29 0 012.46.53zM594.23 220.24a6.2 6.2 0 01-2.47.44 6 6 0 01-2.52-.07 6.56 6.56 0 012.48-.45 6.1 6.1 0 012.51.08zM604.05 218.4a6.42 6.42 0 01-2.37.84 6.27 6.27 0 01-2.51.25 6.29 6.29 0 012.4-.75 6.1 6.1 0 012.48-.34zM613.33 214.71c.07.13-.9.7-2.16 1.29a6 6 0 01-2.38.8 12.16 12.16 0 014.54-2.09zM621.62 209.14c.09.11-.69.93-1.8 1.77a5.52 5.52 0 01-2.19 1.24c-.08-.12.78-.83 1.88-1.65a7 7 0 012.11-1.36zM628.42 201.84a5.56 5.56 0 01-1.33 2.15c-.89 1.07-1.75 1.81-1.85 1.71s.58-1 1.45-2 1.61-1.94 1.73-1.86zM633.1 193a5.34 5.34 0 01-.69 2.43 5.56 5.56 0 01-1.34 2.14 7.37 7.37 0 01.86-2.36 7.59 7.59 0 011.17-2.21zM635 183.26a5.28 5.28 0 01.11 2.52 5.18 5.18 0 01-.62 2.45 7.78 7.78 0 01.1-2.5 7.6 7.6 0 01.41-2.47zM633.51 173.4a5.45 5.45 0 01.9 2.36 5.32 5.32 0 01.21 2.51 7.43 7.43 0 01-.72-2.39 7.59 7.59 0 01-.39-2.48zM629.16 164.44c.11-.09.87.77 1.57 2a5.2 5.2 0 01.94 2.33c-.13.07-.71-.89-1.39-2.07a7.72 7.72 0 01-1.12-2.26zM622.22 157.3a5.22 5.22 0 012.13 1.36c1.06.91 1.75 1.81 1.65 1.91s-1-.63-2-1.52-1.86-1.63-1.78-1.75zM613.15 153.24a5 5 0 012.5.41 5.18 5.18 0 012.25 1.15 7.82 7.82 0 01-2.41-.66 8.19 8.19 0 01-2.34-.9zM603.24 153.41a4.83 4.83 0 012.42-.73 5 5 0 012.53.08 26.92 26.92 0 01-5 .65zM594.62 158.23c-.11-.09.58-1 1.71-1.87a4.71 4.71 0 012.26-1.15c.07.14-.87.75-2 1.57s-1.86 1.55-1.97 1.45zM590.66 167.21a4.57 4.57 0 01.15-2.53 4.42 4.42 0 011.05-2.31 10.86 10.86 0 01-.55 2.43 9.63 9.63 0 01-.65 2.41zM592.61 176.9a4.86 4.86 0 01-1.21-2.22 4.72 4.72 0 01-.42-2.5 9 9 0 01.91 2.33 8.62 8.62 0 01.72 2.39zM599.15 184.34A5 5 0 01597 183c-1.06-.92-1.71-1.86-1.6-1.95s.92.66 1.94 1.56 1.89 1.61 1.81 1.73zM608.23 188.41a5.28 5.28 0 01-2.48-.47 5.06 5.06 0 01-2.25-1.15 7.82 7.82 0 012.41.66 7.4 7.4 0 012.32.96zM618.15 189.35a9.23 9.23 0 01-5-.11 7.9 7.9 0 012.5-.12 7.28 7.28 0 012.5.23zM628 187.53a9.36 9.36 0 01-4.84 1.24 7.13 7.13 0 012.37-.79 7.63 7.63 0 012.47-.45z" fill="#263238"/><path d="M637 183.38a6.27 6.27 0 01-2.09 1.4 6.2 6.2 0 01-2.33.94 12.18 12.18 0 014.42-2.34zM645 177.42c.1.11-.69.91-1.76 1.79a6.49 6.49 0 01-2.1 1.39c-.09-.12.71-.92 1.77-1.79a6.58 6.58 0 012.09-1.39zM651.85 170.11c.11.09-.53 1-1.43 2.07s-1.72 1.83-1.82 1.73.53-1 1.42-2.07 1.71-1.84 1.83-1.73zM657.34 161.77a6.14 6.14 0 01-1.06 2.28c-.72 1.19-1.39 2.09-1.51 2a6.19 6.19 0 011.06-2.28c.71-1.17 1.38-2.07 1.51-2zM661.4 152.63a6.44 6.44 0 01-.67 2.43 5.66 5.66 0 01-1.18 2.22 7.14 7.14 0 01.69-2.41 6.29 6.29 0 011.16-2.24zM664.19 143a6.07 6.07 0 01-.37 2.48 6.26 6.26 0 01-.88 2.36 11.95 11.95 0 011.25-4.84zM665.94 133.2a6 6 0 01-.12 2.51 6.31 6.31 0 01-.63 2.43 6 6 0 01.12-2.51 6.38 6.38 0 01.63-2.43zM666.86 123.24a11.93 11.93 0 01-.37 5 6.47 6.47 0 01-.07-2.52 6.31 6.31 0 01.44-2.48zM667.18 113.25a6 6 0 01.21 2.5 6 6 0 01-.31 2.5 6.55 6.55 0 01-.21-2.51 6.39 6.39 0 01.31-2.49zM667.11 103.25a6.27 6.27 0 01.3 2.5 6 6 0 01-.23 2.5 6.31 6.31 0 01-.3-2.5 6.43 6.43 0 01.23-2.5zM667 97.1c.14 0 .27.25.28.57s-.1.57-.25.58-.27-.25-.27-.57.06-.58.24-.58z" fill="#263238"/><path fill="#6c63ff" d="M620.902 74.79l67.97-7.383 4.978 45.82-67.97 7.384z"/><path d="M625.85 120.66l-5-45.84 68-7.38 5 45.85zm-4.92-45.82l5 45.77 67.92-7.38-5-45.77z" fill="#263238"/><path d="M689.15 68a4.68 4.68 0 01-.57.68l-1.71 1.87-6.39 6.78-21.29 22.22-.17.19-.22-.14-.52-.33L632 82.46l-8-5.15-2.14-1.43a5.91 5.91 0 01-.73-.53 4.5 4.5 0 01.8.42l2.2 1.33 8 5 26.41 16.66.52.33h-.39L680.17 77l6.53-6.64 1.79-1.78a4.87 4.87 0 01.66-.58z" fill="#263238"/><path d="M626.15 121.16c-.14-.09 4.29-6.93 9.89-15.26s10.27-15 10.41-14.92-4.28 6.93-9.89 15.26-10.27 15.02-10.41 14.92zM669 88c.13-.12 5.86 5.57 12.8 12.7s12.47 13 12.35 13.13-5.85-5.56-12.8-12.7S668.86 88.07 669 88z" fill="#263238"/></g><g><path d="M378.47 206.35c.14 0 .35.51.47 1.19s.09 1.25-.05 1.28-.35-.51-.47-1.2-.09-1.25.05-1.27zM376.87 196.59a6.2 6.2 0 01.65 2.4 6.11 6.11 0 01.14 2.48 5.94 5.94 0 01-.65-2.4 6.11 6.11 0 01-.14-2.48zM375.44 186.81a6 6 0 01.6 2.41 6.17 6.17 0 01.09 2.48 5.84 5.84 0 01-.6-2.41 6.17 6.17 0 01-.09-2.48zM374.32 177a6.22 6.22 0 01.52 2.43 5.88 5.88 0 010 2.48 6.12 6.12 0 01-.51-2.43 6 6 0 01-.01-2.48zM373.63 167.12a11.89 11.89 0 01.28 4.94 11.87 11.87 0 01-.28-4.94zM373.53 157.23a12.14 12.14 0 010 5 5.85 5.85 0 01-.25-2.47 6 6 0 01.25-2.53zM374.15 147.37a6.33 6.33 0 01.05 2.49 6.14 6.14 0 01-.46 2.44 5.93 5.93 0 01-.06-2.48 6.06 6.06 0 01.47-2.45zM375.63 137.6a5.84 5.84 0 01-.17 2.48 6 6 0 01-.69 2.39 12.16 12.16 0 01.86-4.87zM378.16 128.05a6.27 6.27 0 01-.46 2.44 6.34 6.34 0 01-.95 2.3 6 6 0 01.45-2.45 5.88 5.88 0 01.96-2.29zM381.85 118.88a6.06 6.06 0 01-.76 2.37 6.21 6.21 0 01-1.23 2.16 12 12 0 012-4.53zM386.67 110.26a6.17 6.17 0 01-1.05 2.25c-.7 1.16-1.37 2-1.5 2a6.18 6.18 0 011.06-2.25c.7-1.19 1.37-2.08 1.49-2zM392.6 102.35c.11.1-.49 1-1.34 2.09s-1.64 1.85-1.76 1.76a6.26 6.26 0 011.35-2.09c.86-1.06 1.65-1.85 1.75-1.76zM399.63 95.4c.09.12-.65.95-1.65 1.87s-1.9 1.57-2 1.47.64-.93 1.65-1.86 1.91-1.59 2-1.48zM407.71 89.72c.07.13-.8.82-1.95 1.55a6.09 6.09 0 01-2.22 1.11c-.08-.11.79-.81 1.94-1.55a6.34 6.34 0 012.23-1.11zM416.71 85.67a6 6 0 01-2.21 1.14 6.05 6.05 0 01-2.39.66 6.08 6.08 0 012.21-1.14 6 6 0 012.39-.66zM423.93 83.89c0 .14-.5.36-1.17.49s-1.25.12-1.28 0 .5-.36 1.18-.49 1.25-.14 1.27 0z" fill="#263238"/><path fill="#6c63ff" d="M352.663 93.08l18.073-46.737 69.337 26.81L422 119.892z"/><path d="M422 119.93L352.64 93.1l18.09-46.76 69.36 26.82zm-69.3-26.86l69.3 26.79 18.06-46.69-69.3-26.79z" fill="#263238"/><path d="M440.08 73.81a4.77 4.77 0 01-.88.37l-2.59.94-9.55 3.36-31.68 10.88-.26.09-.14-.24-.34-.58-17-29.37-5.09-8.94-1.35-2.45a5 5 0 01-.44-.88 5.53 5.53 0 01.55.81l1.47 2.39L378 59c4.44 7.54 10.5 17.87 17.19 29.27l.34.58-.4-.15L426.91 78l9.62-3.15 2.63-.83a4.38 4.38 0 01.92-.21z" fill="#263238"/><path d="M352.67 93.73c-.09-.16 7.6-4.55 17.18-9.8s17.41-9.38 17.5-9.22-7.6 4.55-17.18 9.81-17.41 9.37-17.5 9.21zM410.63 83c.18-.05 2.87 8.3 6 18.65s5.55 18.8 5.37 18.85-2.87-8.29-6-18.65-5.55-18.76-5.37-18.85z" fill="#263238"/></g><g><path d="M349.35 217.29c.14 0 .21.58.16 1.27s-.22 1.24-.36 1.23-.22-.58-.16-1.27.22-1.24.36-1.23zM349.6 207.12a6.33 6.33 0 01.26 2.55 6.55 6.55 0 01-.27 2.54 6.41 6.41 0 01-.25-2.54 6.63 6.63 0 01.26-2.55zM348.91 197a12.78 12.78 0 01.47 5.07 6.17 6.17 0 01-.49-2.51 6.61 6.61 0 01.02-2.56zM347.22 186.94a6.51 6.51 0 01.74 2.45 6.44 6.44 0 01.23 2.55 6.59 6.59 0 01-.74-2.45 6.22 6.22 0 01-.23-2.55zM344.45 177.15A12.48 12.48 0 01346 182a6.42 6.42 0 01-1-2.35 6.35 6.35 0 01-.55-2.5zM340.56 167.76a6.32 6.32 0 011.28 2.21 6.54 6.54 0 01.81 2.43 6.57 6.57 0 01-1.28-2.21 6.43 6.43 0 01-.81-2.43zM335.51 158.93c.12-.08.84.82 1.6 2a6.65 6.65 0 011.08 2.33c-.13.07-.81-.85-1.53-2.06a6.45 6.45 0 01-1.15-2.27zM329.28 150.9c.11-.1.93.7 1.83 1.78a6.58 6.58 0 011.43 2.13c-.12.08-.93-.72-1.83-1.79a6.49 6.49 0 01-1.43-2.12zM322 143.82c.09-.11 1 .57 2.06 1.51s1.81 1.8 1.71 1.9a6.51 6.51 0 01-2.06-1.51c-1.06-.94-1.83-1.79-1.71-1.9zM313.73 137.88a6.34 6.34 0 012.26 1.19c1.17.78 2.06 1.51 2 1.63a6.62 6.62 0 01-2.26-1.2c-1.19-.77-2.08-1.5-2-1.62zM304.67 133.26a6.35 6.35 0 012.42.83 6.43 6.43 0 012.2 1.3 6.35 6.35 0 01-2.42-.83 6.56 6.56 0 01-2.2-1.3zM295 130.19a6.59 6.59 0 012.53.41 6.4 6.4 0 012.39.92 6.75 6.75 0 01-2.53-.41 6.6 6.6 0 01-2.39-.92zM284.89 128.9a10.39 10.39 0 015.07.41 15.84 15.84 0 01-5.07-.41zM274.75 129.6a12.53 12.53 0 015.06-.6 6.34 6.34 0 01-2.5.56 6.66 6.66 0 01-2.56.04zM264.93 132.22a6.32 6.32 0 012.35-1 6.25 6.25 0 012.5-.52 6.53 6.53 0 01-2.35 1 6.64 6.64 0 01-2.5.52zM255.77 136.63c-.07-.13.87-.77 2.12-1.44a6.32 6.32 0 012.36-1 12.86 12.86 0 01-4.48 2.43zM247.65 142.73c-.1-.1.7-.92 1.78-1.83a6.58 6.58 0 012.13-1.43c.08.12-.72.94-1.79 1.83a6.28 6.28 0 01-2.12 1.43zM241 150.41a5.73 5.73 0 011.29-2.22c.87-1.12 1.72-1.9 1.82-1.81s-.55 1-1.41 2.13-1.58 1.98-1.7 1.9zM237.29 157c-.13-.06 0-.61.31-1.24s.65-1.08.78-1 0 .62-.31 1.24-.65 1.07-.78 1zM173.75 216c0-.14.53-.32 1.21-.41s1.25 0 1.27.11-.51.33-1.21.41-1.26.06-1.27-.11zM163.85 214.9a7.91 7.91 0 012.48.37 7.73 7.73 0 012.42.66 8.57 8.57 0 01-4.9-1zM154.89 210.47a7.54 7.54 0 012.24 1.14c1.18.7 2.13 1.29 2.07 1.43a5.58 5.58 0 01-2.33-1c-1.2-.7-2.06-1.45-1.98-1.57zM147.45 203.79c.11-.09.93.67 1.9 1.65s1.72 1.81 1.63 1.92-1-.56-2-1.55-1.64-1.92-1.53-2.02zM141.57 195.69c.13-.07.84.8 1.59 2a6.42 6.42 0 011.16 2.23c-.12.09-.83-.79-1.59-1.95a6.18 6.18 0 01-1.16-2.28zM137.25 186.66a6.28 6.28 0 011.22 2.2 6.65 6.65 0 01.75 2.41 6.21 6.21 0 01-1.23-2.2 6.39 6.39 0 01-.74-2.41zM134.38 177.06a6.36 6.36 0 01.89 2.36 6.2 6.2 0 01.38 2.49 6.08 6.08 0 01-.89-2.36 6.22 6.22 0 01-.38-2.49zM132.64 167.19a6.54 6.54 0 01.63 2.44 6.29 6.29 0 01.12 2.52 6.19 6.19 0 01-.63-2.44 6.08 6.08 0 01-.12-2.52zM131.68 157.22a12.12 12.12 0 01.4 5 6.2 6.2 0 01-.46-2.47 6.1 6.1 0 01.06-2.53zM131.26 149.71c.15 0 .29.55.32 1.24s-.06 1.25-.2 1.26-.29-.55-.32-1.24.06-1.25.2-1.26z" fill="#263238"/><path fill="#6c63ff" d="M85.77 92.999l83.148-3.921 2.643 56.047-83.147 3.922z"/><path d="M88.38 149.07L85.74 93l83.18-3.92 2.64 56.07zM85.79 93l2.64 56 83.1-3.92-2.64-56z" fill="#263238"/><path d="M169.21 89.74a5.48 5.48 0 01-.74.78l-2.22 2.14-8.25 7.77-27.54 25.47-.23.21-.25-.18-.6-.44-30.73-22.38c-3.86-2.86-7-5.19-9.26-6.85l-2.49-1.9a5.48 5.48 0 01-.84-.7 6.86 6.86 0 01.93.58L89.57 96l9.4 6.66 30.85 22.2.61.44h-.48l27.68-25.3 8.42-7.59 2.32-2a5.14 5.14 0 01.84-.67z" fill="#263238"/><path d="M88.7 149.71c-.16-.13 5.73-8.11 13.16-17.82s13.59-17.48 13.75-17.36-5.72 8.11-13.15 17.82-13.59 17.48-13.76 17.36zM143.22 112.53c.16-.14 6.7 7.2 14.6 16.38s14.19 16.74 14 16.88-6.69-7.2-14.6-16.39-14.16-16.73-14-16.87z" fill="#263238"/></g></svg>