<svg xmlns="http://www.w3.org/2000/svg" viewBox="0 0 500 500"><path d="M416 89.8a218.12 218.12 0 00-59.47-42.19c-32.79-15.5-68.91-23-105-23.41-105.57-1.3-113.6 124.06-146.06 141.49s-91.33 19.48-93.36 89.21C10.83 298.75 21 343.84 49.43 378c26.09 31.29 64.4 47.15 102.15 58.87C194 450 238.93 463 283.53 454.07c45.76-9.07 77.91-45.74 115.47-70.49 23.66-15.59 44.9-32 59.51-57 1.74-3 3.38-6 4.94-9.13 19.55-38.86 23.39-83.68 12.6-125.73C466.39 154 444.55 118 416 89.8z" fill="#6c63ff"/><path d="M416 89.8a218.12 218.12 0 00-59.47-42.19c-32.79-15.5-68.91-23-105-23.41-105.57-1.3-113.6 124.06-146.06 141.49s-91.33 19.48-93.36 89.21C10.83 298.75 21 343.84 49.43 378c26.09 31.29 64.4 47.15 102.15 58.87C194 450 238.93 463 283.53 454.07c45.76-9.07 77.91-45.74 115.47-70.49 23.66-15.59 44.9-32 59.51-57 1.74-3 3.38-6 4.94-9.13 19.55-38.86 23.39-83.68 12.6-125.73C466.39 154 444.55 118 416 89.8z" fill="#fff" opacity=".7"/><path fill="#263238" stroke="#263238" stroke-linecap="round" stroke-linejoin="round" d="M289.92 156.17H448.1V444.5H289.92z"/><path fill="#fff" stroke="#263238" stroke-linecap="round" stroke-linejoin="round" d="M299.94 170.19h135.64v150.17H299.94zM359.53 298.15l-12.58 6.45M431.21 261.38l-56 28.72M323.26 219.38l-5.47 2.81M354.47 203.37l-24.38 12.51M299.94 336.38h135.64v92.1H299.94z"/><path fill="#fff" d="M438.05 285.66h4.94v52.67h-4.94z"/><path fill="#fff" stroke="#263238" stroke-linecap="round" stroke-linejoin="round" d="M323.26 398.16l-5.47 2.81M354.47 382.14l-24.38 12.51"/><g opacity=".3"><path d="M51.14 388.07h23.95v11.4H51.14zM78.51 388.07h23.95v11.4H78.51zM78.51 417.15h23.95v11.4H78.51zM217.07 417.15h23.95v11.4h-23.95zM258.69 417.15h23.95v11.4h-23.95zM51.14 417.15h23.95v11.4H51.14zM149.22 417.15h23.95v11.4h-23.95zM121.28 417.15h23.95v11.4h-23.95zM64.26 402.32h23.95v11.4H64.26zM91.06 402.32h23.95v11.4H91.06zM120.14 388.07h23.95v11.4h-23.95zM147.5 388.07h23.95v11.4H147.5zM133.25 402.32h23.95v11.4h-23.95zM189.13 388.07h23.95v11.4h-23.95zM216.5 388.07h23.95v11.4H216.5zM202.24 402.32h23.95v11.4h-23.95zM229.61 402.32h23.95v11.4h-23.95z"/></g><path fill="#fff" stroke="#263238" stroke-linecap="round" stroke-linejoin="round" d="M49.1 156.44h226.78v206.23H49.1zM84.5 257.13l-12.58 6.45M233.57 180.65l-133.39 68.43M147.4 237.48L71.92 276.2M170.09 286.59l-12.58 6.45M241.77 249.82l-56 28.72"/><path fill="#8a8a8a" stroke="#263238" stroke-linecap="round" stroke-linejoin="round" d="M40.93 347h239.7v29H40.93z"/><path fill="#fff" stroke="#263238" stroke-linecap="round" stroke-linejoin="round" d="M127.05 347h3.14v29h-3.14zM148.72 347h3.14v29h-3.14zM105.38 347h3.14v29h-3.14zM62.04 347h3.14v29h-3.14zM83.71 347h3.14v29h-3.14zM170.39 347h3.14v29h-3.14zM235.4 347h3.14v29h-3.14zM257.07 347h3.14v29h-3.14zM192.06 347h3.14v29h-3.14zM213.73 347h3.14v29h-3.14z"/><g><path d="M410.36 83H29.66v106.64a26.12 26.12 0 0026.12 26.12h10.64a26.12 26.12 0 0026.13-26.12 26.11 26.11 0 0026.12 26.12h10.64a26.11 26.11 0 0026.12-26.12v-3h.57v3a26.12 26.12 0 0026.13 26.12h10.64a26.12 26.12 0 0026.12-26.12v-3h.57v3a26.12 26.12 0 0026.12 26.12h10.64a26.12 26.12 0 0026.13-26.12v-3h.57v3A26.11 26.11 0 00309 215.76h10.64a26.11 26.11 0 0026.12-26.12v-3h.58v3a26.11 26.11 0 0026.12 26.12h10.64a26.11 26.11 0 0026.12-26.12v-3h.57v3A26.12 26.12 0 00436 215.76h10.63a26.12 26.12 0 0026.13-26.12V83z" opacity=".2"/><path d="M92.55 145.19h62.89v10.45a26.12 26.12 0 01-26.12 26.12h-10.65a26.12 26.12 0 01-26.12-26.12v-10.45h0z" fill="#6c63ff" stroke="#263238" stroke-linecap="round" stroke-linejoin="round"/><path d="M29.66 145.19h62.89v10.45a26.12 26.12 0 01-26.12 26.12H55.78a26.12 26.12 0 01-26.12-26.12v-10.45h0zM156 145.19h62.89v10.45a26.12 26.12 0 01-26.12 26.12h-10.64A26.12 26.12 0 01156 155.64v-10.45h0z" fill="#e0e0e0" stroke="#263238" stroke-linecap="round" stroke-linejoin="round"/><path d="M219.46 145.19h62.89v10.45a26.12 26.12 0 01-26.12 26.12h-10.65a26.12 26.12 0 01-26.12-26.12v-10.45h0z" fill="#6c63ff" stroke="#263238" stroke-linecap="round" stroke-linejoin="round"/><path d="M282.92 145.19h62.88v10.45a26.12 26.12 0 01-26.12 26.12H309a26.12 26.12 0 01-26.12-26.12v-10.45h0z" fill="#e0e0e0" stroke="#263238" stroke-linecap="round" stroke-linejoin="round"/><path d="M346.38 145.19h62.89v10.45a26.12 26.12 0 01-26.12 26.12H372.5a26.12 26.12 0 01-26.12-26.12v-10.45h0z" fill="#6c63ff" stroke="#263238" stroke-linecap="round" stroke-linejoin="round"/><path d="M409.83 145.19h62.89v10.45a26.12 26.12 0 01-26.12 26.12H436a26.12 26.12 0 01-26.12-26.12v-10.45h-.05z" fill="#e0e0e0" stroke="#263238" stroke-linecap="round" stroke-linejoin="round"/><path fill="#fff" stroke="#263238" stroke-linecap="round" stroke-linejoin="round" d="M29.66 49h443.06v103.68H29.66z"/><path fill="#6c63ff" stroke="#263238" stroke-linecap="round" stroke-linejoin="round" d="M92.88 49h62.99v103.68H92.88zM219.56 49h62.99v103.68h-62.99zM347.37 49h62.99v103.68h-62.99z"/><path d="M422.6 66.06q4.29-1.5 8.4-3.06M327.94 90.12c31.71-6.05 62.91-13.41 89.43-22.27M159.82 112.57c30.67-2.65 96.44-9.2 161.38-21.19M142 114s3.13-.22 8.8-.67M214 97.22c12.59-1.55 25.19-3.57 37-6.22M116 102a764.86 764.86 0 0091.74-4" fill="none" stroke="#263238" stroke-linecap="round" stroke-linejoin="round"/></g></svg>