<svg xmlns="http://www.w3.org/2000/svg" viewBox="0 0 500 500"><path d="M329 34.58s-77.4-27.52-153.37 16.3S61.3 181.67 28.38 251.34s-14 140.55 44 172.86 97.43-15.32 178.79-17.64 103.27 9.31 170.83-36.65 79.71-154.51 26.46-234.82S329 34.58 329 34.58z" fill="#6c63ff"/><path d="M329 34.58s-77.4-27.52-153.37 16.3S61.3 181.67 28.38 251.34s-14 140.55 44 172.86 97.43-15.32 178.79-17.64 103.27 9.31 170.83-36.65 79.71-154.51 26.46-234.82S329 34.58 329 34.58z" fill="#fff" opacity=".7"/><path fill="#263238" stroke="#263238" stroke-linecap="round" stroke-linejoin="round" d="M179.88 205h14.24v63.33h-14.24z"/><path fill="#263238" stroke="#263238" stroke-linecap="round" stroke-linejoin="round" d="M144.67 179.67h84.67V243h-84.67z"/><path fill="#e5e5e5" stroke="#263238" stroke-linecap="round" stroke-linejoin="round" d="M151.12 184.49h71.76v53.68h-71.76z"/><path d="M278.28 449.13L277.13 462h-47.2s-1.14-5.15 1.43-7.15 12-3.72 14-4.29 6-3.72 6-3.72z" fill="#263238" stroke="#263238" stroke-linecap="round" stroke-linejoin="round"/><path d="M277.38 459.06l-.25 2.94h-47.2a13.24 13.24 0 01-.24-2.9c13.53-.05 39.1-.1 47.69-.04z" fill="#919191" stroke="#263238" stroke-linecap="round" stroke-linejoin="round"/><path d="M278 314.69s-1.43 33.75-1.43 42.62 7.15 25.46 7.44 35.18-4.87 50.92-4.87 50.92l-21.45-.29s-1.69-17.12-2.3-33.46-7.15-55.78-8.58-68.94-4.58-27.18-4.58-27.18z" fill="#263238" stroke="#263238" stroke-linecap="round" stroke-linejoin="round"/><path fill="#919191" stroke="#263238" stroke-linecap="round" stroke-linejoin="round" d="M281.71 440.55l-1.72 9.44-22.31-1.15v-10.58l24.03 2.29z"/><path d="M284 292.09s-2.58 12.87-3.72 18.59-6.87 20.89-7.15 27.46-2.58 31.47-2.58 45.2-.57 17.16-3.43 28.89-5.72 30.61-5.72 30.61a71 71 0 01-12.87-.86 37.28 37.28 0 01-13.16-4.58l-.29-5.43s-1.43-7.73-2-10 3.43-12.59 3.43-13.73-3.14-4.87-4.29-10.59-5.15-39.47-5.15-44.34-1.71-38.61-1.71-38.61-3.44-21.74-3.44-24.32 46.63-2.86 54.35-3.43 10.3.85 7.73 5.14z" fill="#919191" stroke="#263238" stroke-linecap="round" stroke-linejoin="round"/><path d="M244 298.38s6.29 10.3 13.73 13.45M254.7 336.44l-.45 2.28M261.97 299.53l-6.47 32.86M268 340.15a119.85 119.85 0 01-13.16 1.14h-17.47l-.28 6.29a65.6 65.6 0 0014.58 1.15 113.76 113.76 0 0016.31-2z" fill="none" stroke="#263238" stroke-linecap="round" stroke-linejoin="round"/><path d="M268 346.73s-.57 11.15-.29 19.45-3.14 9.72-6.86 9.72-20.31 2-22.6.29-3.15-6.29-2.29-10 1.15-18.6 1.15-18.6" fill="none" stroke="#263238" stroke-linecap="round" stroke-linejoin="round"/><path d="M259.68 452l-.86 10h-47.19s-1.15-5.15 1.43-7.15 12-3.72 14-4.29 6-3.72 6-3.72z" fill="#263238" stroke="#263238" stroke-linecap="round" stroke-linejoin="round"/><path d="M259.08 459.06l-.26 2.94h-47.19a12.87 12.87 0 01-.25-2.9c13.53-.05 39.1-.1 47.7-.04zM264.55 439.12s-.58 13.16-2.87 13.73-31.46-4.29-31.75-6.58 2.58-6.58 2.86-8 .29-3.72 1.43-5.43 22.89 3.42 30.33 6.28z" fill="#fff" stroke="#263238" stroke-linecap="round" stroke-linejoin="round"/><path d="M146.52 261.4s-4.62 1.18-5.9 2.26-3 3.93-2.45 5.1 1.57.69 2 .1a17.3 17.3 0 014.13-4.42 46.41 46.41 0 015.4-2.75 4.24 4.24 0 00-3.18-.29z" fill="#e5e5e5" stroke="#263238" stroke-linecap="round" stroke-linejoin="round"/><path d="M230.25 191.86l-19.9 45.76s-6.63 2.66-19.9 7.63-27.19 11.28-30.51 12.27-11.27 2.65-15.25 5-7.41 7.11-4.76 7.44c.93.12 1 1.08 3.34.79a5.78 5.78 0 002.56-1.28 19.61 19.61 0 015.82-3 21.79 21.79 0 018.81-.47 14.25 14.25 0 004 0 37.89 37.89 0 004.42-3.48s23.21-2 32.5-3.65 23.21-6.3 23.21-6.3l14.93-60.36z" fill="#fff" stroke="#263238" stroke-linecap="round" stroke-linejoin="round"/><path d="M151.32 262.5s-9.62 3.31-10.28 7.29" fill="none" stroke="#263238" stroke-linecap="round" stroke-linejoin="round"/><path d="M168.9 262.5a26.5 26.5 0 01-4.65 3.64c-2.32 1.33-5.3.67-7.62 2s-3 2.32-5.64 2-2.66-2.65.66-3.64a18.82 18.82 0 004.31-1.66l2-2.32" fill="#fff" stroke="#263238" stroke-linecap="round" stroke-linejoin="round"/><path fill="#6c63ff" stroke="#263238" stroke-linecap="round" stroke-linejoin="round" d="M183.45 208.62l-66.57 1.32-9.22 58.57 81.72.66-5.93-60.55z"/><path fill="none" stroke="#263238" stroke-linecap="round" stroke-linejoin="round" d="M175.56 268.51l2.63-59.89L144 249l-27.12-39.06"/><path d="M267.41 156.79s5.43 2 13.44 9.44 14.3 26.89 15.16 37.19-5.43 41.76-5.43 49.48-2.29 40.91-3.44 41.77-37.18 3.71-53.2 2.86-16.88-7.16-18.59-13.16-2.87-21.74-.29-39.76 5.72-41.48 12.87-53.49 12-18.31 18-23.75 17.19-11.15 21.48-10.58z" fill="#263238" stroke="#263238" stroke-linecap="round" stroke-linejoin="round"/><path fill="#6c63ff" d="M256.72 220.96l-13.63-.87v-22.91l13.63.87v22.91z"/><path fill="#fff" stroke="#263238" stroke-linecap="round" stroke-linejoin="round" d="M248.89 193.99h2.61v6.96h-2.61z"/><path fill="#fff" d="M253.82 216.12l-7.83-.76v-11.89l7.83.76v11.89z"/><path d="M256.83 192.35l20.73 46.1-37.78 17.82s-21.56.12-23.24-.17-16.48 9-17.23 9.8a1.1 1.1 0 00.08 1.58s-1.87 1.76-.56 2.77l1.3 1s-.14.84 1.76 1.87 2.77.56 2.77.56a23.17 23.17 0 003.67-1.11c1.59-.68 6.42-4.54 7.26-4.39s10.25 1.5 14 1.36 6.64-3.81 6.64-3.81 32.45-.41 43.55-3.37 24.89-10.92 27.39-13.88-6.34-41.45-9.49-49.9-8.1-17.54-9.51-18.91" fill="#263238" stroke="#263238" stroke-linecap="round" stroke-linejoin="round"/><path d="M204.66 273.68s-.86.46-2.77-.56-1.76-1.87-1.76-1.87l-1.3-1c-1.31-1 .56-2.77.56-2.77a1.1 1.1 0 01-.08-1.58c.75-.82 15.54-10.09 17.23-9.8s23.24.17 23.24.17l37.78-17.82-8.72-19.4 31-13.38c3.82 14.05 9.4 40.39 7.34 42.81-2.5 3-16.29 10.92-27.39 13.88s-43.55 3.37-43.55 3.37-2.89 3.67-6.64 3.81-13.17-1.22-14-1.36-5.67 3.71-7.27 4.39a22.88 22.88 0 01-3.67 1.11z" fill="#fff" stroke="#263238" stroke-linecap="round" stroke-linejoin="round"/><path fill="none" stroke="#263238" stroke-linecap="round" stroke-linejoin="round" d="M199.39 267.48l11.78-6.43M200.49 270.89l11.06-7.39M203.3 273.64a1.11 1.11 0 01.58-1.5c1-.46 9.11-6.28 9.11-6.28"/><path d="M237.19 164.17l4.81 3.68s-8.77 17-4.81 17.83 17.55-17.26 22.64-23.21 7.58-5.68 7.58-5.68-6.16-7-8.43-12.43-3.39-8.77-3.39-8.77z" fill="#fff" stroke="#263238" stroke-linecap="round" stroke-linejoin="round"/><path d="M220.94 120.15s-.48 22.33.15 26.27 6.08 14.88 8.15 17.24 10.54 2.7 13.62.86 10.92-11.85 12.31-15.79a27.41 27.41 0 001.53-7.32s4.92 1.24 7.7-4.6 0-10.46-3.66-10.21l-3.13 1.51s4.29-11.13 1.59-15.42-26.65-2.15-31.58-1.37-6.68 8.83-6.68 8.83z" fill="#fff" stroke="#263238" stroke-linecap="round" stroke-linejoin="round"/><path d="M238.72 133s3.35-2.51 6.69-.56M222.55 131.32s4.18-1.11 5 2" fill="none" stroke="#263238" stroke-linecap="round" stroke-linejoin="round"/><path d="M226.24 132.66a1.46 1.46 0 11-1.46-1.46 1.47 1.47 0 011.46 1.46zM242.88 133.51a1.46 1.46 0 11-1.46-1.46 1.46 1.46 0 011.46 1.46z" fill="#263238"/><path d="M241.22 121.37l5.62 1.49a1.44 1.44 0 011 1.89l-.14.38a1.46 1.46 0 01-1.83.88l-5.47-1.87a1.44 1.44 0 01-.89-1.87h0a1.44 1.44 0 011.71-.9zM228.8 122v.09a1.17 1.17 0 01-.63 1.57l-3.9 1.56a1.18 1.18 0 01-1.6-.91h0a1.18 1.18 0 01.7-1.26l3.86-1.65a1.18 1.18 0 011.57.6z" fill="#263238" stroke="#263238" stroke-linecap="round" stroke-linejoin="round"/><path d="M242.77 143.16s-2.4 5.21-9.28 4.77" fill="none" stroke="#263238" stroke-linecap="round" stroke-linejoin="round"/><path d="M229.82 127.7s-.91 13.55-1 14.65 2.87 4.16 5.13 1.82a7.62 7.62 0 002.38-4.33" fill="#fff" stroke="#263238" stroke-linecap="round" stroke-linejoin="round"/><path d="M229.66 127.32a7.6 7.6 0 10-6 12.3 6.35 6.35 0 005.46-2.56z" fill="none" stroke="#263238" stroke-linecap="round" stroke-linejoin="round"/><circle cx="242.04" cy="132.02" r="7.6" fill="none" stroke="#263238" stroke-linecap="round" stroke-linejoin="round"/><path fill="none" stroke="#263238" stroke-linecap="round" stroke-linejoin="round" d="M249.67 130.5l11.83-3.67M216.17 131.17l4.5-.84M229.66 129a4.4 4.4 0 014.87.34"/><path d="M258.46 99.66s9.92 7.18 7.79 14.94-8.2 22.55-8.2 22.55l-1.65.26-.56-5.64s-5.58-1.13-5.33-5.89a20.57 20.57 0 012.08-8.09S247.69 123 241 123s-10.95-7.36-12.83-4.36-5.24 5.22-12.72 2.71-19.52-18.8-12.75-24.94 20.19 1.83 24.29 2.19 6-6.69 15.31-5.48a37.35 37.35 0 0116.16 6.54z" fill="#263238" stroke="#263238" stroke-linecap="round" stroke-linejoin="round"/><path fill="#fff" stroke="#263238" stroke-linecap="round" stroke-linejoin="round" d="M74.28 265.76H288.4v196.55H74.28z"/><path fill="#263238" stroke="#263238" stroke-linecap="round" stroke-linejoin="round" d="M74.28 265.76H288.4v13.23H74.28z"/><path fill="none" stroke="#263238" stroke-linecap="round" stroke-linejoin="round" d="M220.65 265.76h67.75v196.55h-67.75z"/><path fill="#fff" stroke="#263238" stroke-linecap="round" stroke-linejoin="round" d="M65.08 265.76H297.6v7.53H65.08z"/><path fill="#fff" stroke="#263238" stroke-linecap="round" stroke-linejoin="round" d="M212.28 265.76h85.31v7.53h-85.31z"/><g><path d="M56.76 349.28s2.93 14.89 2.93 20.47S56 385.43 56 397.4s3.42 43.6 3.42 43.6l12.76.53s3.72-38.81 7.71-47.85 5.58-27.92 5.58-33.24A46.58 46.58 0 0187.33 349z" fill="#263238" stroke="#263238" stroke-linecap="round" stroke-linejoin="round"/><path d="M53.57 431.16h21.27l-.27 16.49s12.23 7.71 15.16 8.77 4.52 3.46 4.25 4.25-1.59 1.33-1.59 1.33H55.7a14.65 14.65 0 01-.8-6.64 33.4 33.4 0 011.86-6.36z" fill="#6c63ff" stroke="#263238" stroke-linecap="round" stroke-linejoin="round"/><path d="M63.61 349.28s2.92 14.89 2.92 20.47-3.72 15.68-3.72 27.65 3.46 43.6 3.46 43.6l12.76.53s3.72-38.81 7.71-47.85 5.58-27.92 5.58-33.24A46.58 46.58 0 0194.18 349z" fill="#263238" stroke="#263238" stroke-linecap="round" stroke-linejoin="round"/><path d="M94.52 227.51s8.24 54.51 11.17 64.61S120 346.35 120 346.35a99 99 0 01-32.7 8c-18.87 1.33-43.33-.27-50.51-3.46s-12.23-5.31-12.23-5.31l7.71-39.35s16.75-47.06 16.75-57.69S48 227 54.11 219s13.29-11.7 18.34-10.11 22.07 18.62 22.07 18.62z" fill="#ababab"/><path d="M111 311.82c-.08-.32-.17-.64-.25-1-1.77.44-3.53.86-5.27 1.23l2.39-4.92 2.78 3.3c-.21-.77-.41-1.53-.61-2.27l-1.57-1.88c.33-.07.67-.16 1-.25-.09-.32-.17-.64-.26-1-34.68 8.37-62.24 3.59-76.4-.38-.33.95-.52 1.48-.52 1.48l-.13.66 2.2 4.4c-1-.27-2-.55-2.9-.81l-.19 1A142.58 142.58 0 0071 316.86a163.91 163.91 0 0040-5.04zm-4-5.16l-2.45 5-4.15-3.7q3.28-.55 6.6-1.3zm-3.14 5.78c-3 .62-5.93 1.14-8.81 1.58l4.68-5.26zm-5.07-4.13l-4.8 5.4-3.19-4.2q3.94-.51 8.01-1.2zm-5.61 6c-3.31.46-6.52.81-9.65 1.06L90 310zm-4.48-4.55l-6.21 5.18-5.31-4.31c3.72-.15 7.57-.44 11.54-.88zm-56-4c2.33.65 5 1.32 8 1.95l-5.35 3.4zm3.5 6l4.76-3 3.53 4.81c-3.01-.57-5.78-1.21-8.25-1.82zm5.37-3.89c3 .61 6.34 1.18 10 1.65l-5.85 3.95zm5.21 6.06l5.35-3.61 4.92 4.92c-3.64-.35-7.05-.8-10.23-1.32zm6.22-4.25c3 .36 6.17.64 9.52.83L58 314.7zm5.77 5.69l4.45-4.14 5.41 4.61c-3.49-.05-6.78-.22-9.9-.47zm5.23-4.79c2.28.1 4.63.17 7.06.17 1.14 0 2.3 0 3.48-.05l-5.24 4.4zm11.93.27l5.74 4.65c-4.08.28-8 .38-11.72.36zM117.16 335.25c-.15-.58-.31-1.17-.46-1.77l-2.82-3.43 1.79-.51c-.09-.32-.17-.64-.25-1-.81.22-1.62.46-2.42.67a.38.38 0 00-.15 0 .83.83 0 00-.16.09c-40.92 10.78-72.45 3.08-84.71-1l-.2 1c1.15.38 2.45.79 3.92 1.21l-4.7 3.6h-.13l-.2 1a.48.48 0 00.47.11c7.56 2.57 23 6.73 43.9 6.73a165.3 165.3 0 0046.12-6.7zm-3.94-4.42l3 3.64c-1.38.4-2.76.78-4.12 1.13zm-.94-.36l-1 4.26-2.8-3.32c1.26-.3 2.52-.61 3.8-.94zm-1.34 5.42c-1.83.47-3.65.89-5.45 1.29l2.39-4.93zm-3.94-4.15l-2.45 5.06-4.15-3.7c2.19-.4 4.39-.86 6.6-1.36zm-3.14 5.78c-3 .62-5.93 1.15-8.81 1.58l4.68-5.26zm-5.07-4.13l-4.8 5.4-3.19-4.2q3.94-.49 8.01-1.2zm-5.61 6c-3.31.46-6.52.81-9.65 1.06L90 335.1zm-4.48-4.55L82.51 340l-5.31-4.3c3.7-.14 7.55-.43 11.52-.87zm-60.6-.33l3.9-2.95 2.39 4.79c-2.45-.64-4.54-1.28-6.27-1.85zm4.62-3.67c2.33.64 5 1.31 8 1.94l-5.35 3.4zm3.5 6l4.76-3 3.53 4.81c-3.03-.6-5.8-1.2-8.27-1.82zm5.37-3.89c3 .62 6.34 1.18 10 1.65l-5.85 4zm5.23 6.05l5.35-3.61 4.92 4.92c-3.68-.31-7.09-.79-10.27-1.31zm6.18-4.24c3 .36 6.17.65 9.52.83L58 339.78zm5.77 5.69l4.45-4.14 5.41 4.62c-3.49-.06-6.78-.23-9.9-.48zm5.23-4.79q3.42.16 7.06.17h3.48l-5.24 4.39zm11.93.27l5.74 4.65c-4.08.28-8 .38-11.72.36zM119.33 343.6l-.25-1c-38.61 13.5-82.13 3.36-93.93.14l-.2 1a200 200 0 0050.26 6.7c14.08.01 29.45-1.73 44.12-6.84z" fill="#fff"/><path d="M25.69 340l-.19 1a200.15 200.15 0 0049.71 6.55c13.86 0 29-1.69 43.42-6.61-.08-.31-.16-.64-.25-1-37.86 12.95-80.22 3.4-92.69.06zM114 323.2c-.09-.32-.17-.64-.25-1-33.88 11.3-73 3.88-84.82 1.17l-.19 1a202.93 202.93 0 0043.54 4.92c13.33.02 27.96-1.5 41.72-6.09z" fill="#fff"/><path d="M113.47 321.15c-.08-.32-.17-.64-.25-1-33.37 10.93-71.62 3.86-83.86 1.09l-.19 1a203 203 0 0043.12 4.83c13.15.02 27.57-1.47 41.18-5.92z" fill="#fff"/><path d="M94.52 227.51s8.24 54.51 11.17 64.61S120 346.35 120 346.35a99 99 0 01-32.7 8c-18.87 1.33-43.33-.27-50.51-3.46s-12.23-5.31-12.23-5.31l7.71-39.35s16.75-47.06 16.75-57.69S48 227 54.11 219s13.29-11.7 18.34-10.11 22.07 18.62 22.07 18.62z" fill="none" stroke="#263238" stroke-linecap="round" stroke-linejoin="round"/><path d="M60.42 431.16h21.27l-.27 16.49s12.23 7.71 15.16 8.77 4.52 3.46 4.25 4.25-1.59 1.33-1.59 1.33H62.55a14.65 14.65 0 01-.8-6.64 33.4 33.4 0 011.86-6.36z" fill="#6c63ff" stroke="#263238" stroke-linecap="round" stroke-linejoin="round"/><path d="M64.48 204.12s-14.62 10.37-18.08 21.8-4.52 32.7-5.32 37.49-13.29 48.91-13.29 48.91 10.37 7.18 28.71 9 38.55-2.66 39.35-2.66-6.65-91.66-6.38-92.47-14.89-18.35-17.55-20.74-7.44-1.33-7.44-1.33z" fill="#fff" stroke="#263238" stroke-linecap="round" stroke-linejoin="round"/><path d="M97.29 186.48s.36 9.89 2.19 13.19 1.47 6.59-3.29 5.49-11-11-11.72-16.85 9.89-8.79 12.82-1.83z" fill="#263238" stroke="#263238" stroke-linecap="round" stroke-linejoin="round"/><path d="M89 217.16l8.57 72.09 15.58-1.83-18.27-70.58s-3.68-4.7-5.88.32z" fill="#6c63ff" stroke="#263238" stroke-linecap="round" stroke-linejoin="round"/><path d="M97.47 155.74a54.69 54.69 0 012.94 6.49c.87 2.63.72 7.51 1 8.31s4.19 5.51 4.21 6.46-3.55 2.82-3.55 2.82-.94 6.51-1.62 9.26-.56 4.29-4.17 4.23-8.52-1.49-14.64-4.66-10.67-7.79-11.85-14.1S85 156 87.41 154.36s10.06 1.38 10.06 1.38z" fill="#fff" stroke="#263238" stroke-linecap="round" stroke-linejoin="round"/><path d="M99.05 170.68c-.06 1.24-.52 2.23-1 2.21s-.88-1.06-.82-2.3.53-2.24 1-2.22.88 1.06.82 2.31z" fill="#263238"/><path d="M94.74 167.65s1.79-4.58 4.58-3M101.11 182.17s-3.38 1.39-5.17-1.39" fill="none" stroke="#263238" stroke-linecap="round" stroke-linejoin="round"/><path d="M67.26 192.74s31.25 8.08 30.74 11.74-1.27 14.33-5.36 14.87-35.17-11.35-37.5-12.1 1.89-11.43 4.23-14.12 7.89-.39 7.89-.39z" fill="#6c63ff" stroke="#263238" stroke-linecap="round" stroke-linejoin="round"/><path d="M83.68 164.61s3.48 23 7.58 32.25 8.34 11.8 6.78 13.6-10.56-4-10.56-4 7.68 10.92 2.58 13.89-18.06-3.41-20.81-5.75l-2.69-2.34s-.86 7-9.74 11.22-21.12-3.06-13.14-13 11.3-21.36 9.89-28.25 21.72-25.37 30.11-17.62z" fill="#263238" stroke="#263238" stroke-linecap="round" stroke-linejoin="round"/><path d="M58.62 240.27c2 4.5 6.43 8.58 9.79 12.12 5.36 5.65 11.74 10 17.34 15.36 1 1 12.06 10.57 13.38 10 0 0 11-5 18.75-12.14s27-29.22 27-29.22c4.8-1.25 12.46-7.71 12.46-7.71l7.12-.94a.92.92 0 00-.19-1.82l-6.61.52 9-4.69a.89.89 0 00.38-1.2.9.9 0 00-1-.44l-9.64 2.5 8.19-4.49a1 1 0 00-1-1.81l-9.4 4.7 4.66-4 1.56-1.95a.76.76 0 00-1-1.08l-1.86 1.38c-3.39 2.57-11.51 8.75-12.27 9.76-1 1.28-5.83 6.82-5.83 6.82s-8.27 6.61-19.3 14.33a128 128 0 01-16.29 10.09c-3.36-4.23-13.46-17.21-17.44-25.16a27.29 27.29 0 00-14.07-12.79" fill="#fff" stroke="#263238" stroke-linecap="round" stroke-linejoin="round"/><path d="M166 220.09l-9.64 2.5 8.19-4.49a1 1 0 00-1-1.81l-9.4 4.7 4.66-4 1.56-1.95a.76.76 0 00-1-1.08l-1.86 1.38c-3.39 2.57-11.51 8.75-12.27 9.76-1 1.28-5.83 6.82-5.83 6.82s-8.27 6.61-19.3 14.33c-4.25 3-7.69 5.18-10.33 6.77l6.73 13.78c.47-.41.94-.82 1.4-1.25 7.72-7.16 27-29.22 27-29.22 4.8-1.25 12.46-7.71 12.46-7.71l7.12-.94a.92.92 0 00-.19-1.82l-6.61.52 9-4.69a.89.89 0 00.38-1.2.9.9 0 00-1.07-.4z" fill="#fff" stroke="#263238" stroke-linecap="round" stroke-linejoin="round"/><path d="M53.57 182.25s-6.75 1.06-10.4-2.89 2.07-8.92 7.92-19.11 9.64-19.81 21-22.21 25 6.91 28.06 9.4 3.11 4.75 1.64 5.36c0 0-36.07 14.34-47.88 31" fill="#6c63ff" stroke="#263238" stroke-linecap="round" stroke-linejoin="round"/><path fill="none" stroke="#263238" stroke-linecap="round" stroke-linejoin="round" d="M71.23 167.05l-18 7.88"/><path d="M53.56 185.7S69 172.14 83.7 166.05s20.3-6.66 20.3-8.68-2.18-4.57-2.18-4.57-23.89 9-33.34 16.09S48 181.37 53.56 185.7z" fill="#6c63ff" stroke="#263238" stroke-linecap="round" stroke-linejoin="round"/></g></svg>